<?xml version="1.0" encoding="UTF-8" standalone="no"?>
<!-- Uploaded to: SVG Repo, www.svgrepo.com, Transformed by: SVG Repo Mixer Tools -->

<svg
   version="1.1"
   id="Layer_1"
   viewBox="0 0 550.05127 327.48717"
   xml:space="preserve"
   width="283.89743"
   height="169.02563"
   fill="#000000"
   sodipodi:docname="addimage.svg"
   inkscape:version="1.2.2 (b0a8486541, 2022-12-01)"
   xmlns:inkscape="http://www.inkscape.org/namespaces/inkscape"
   xmlns:sodipodi="http://sodipodi.sourceforge.net/DTD/sodipodi-0.dtd"
   xmlns="http://www.w3.org/2000/svg"
   xmlns:svg="http://www.w3.org/2000/svg"><defs
   id="defs70" /><sodipodi:namedview
   id="namedview68"
   pagecolor="#ffffff"
   bordercolor="#000000"
   borderopacity="0.25"
   inkscape:showpageshadow="2"
   inkscape:pageopacity="0.0"
   inkscape:pagecheckerboard="0"
   inkscape:deskcolor="#d1d1d1"
   showgrid="false"
   inkscape:zoom="2.4375"
   inkscape:cx="142.76923"
   inkscape:cy="83.487179"
   inkscape:window-width="1920"
   inkscape:window-height="993"
   inkscape:window-x="0"
   inkscape:window-y="0"
   inkscape:window-maximized="1"
   inkscape:current-layer="SVGRepo_iconCarrier" />

<g
   id="SVGRepo_bgCarrier"
   stroke-width="0"
   transform="translate(28.615383,-86.641029)" />

<g
   id="SVGRepo_tracerCarrier"
   stroke-linecap="round"
   stroke-linejoin="round"
   transform="translate(28.615383,-86.641029)" />

<g
   id="SVGRepo_iconCarrier"
   transform="translate(28.615383,-86.641029)"> <path
   style="fill:#516266;stroke-width:1.18002"
   d="m -33.549845,588.04204 c -6.007979,0 -10.013299,-3.55994 -10.013299,-8.89985 V 80.75082 c 0,-5.339908 4.00532,-8.899846 10.013299,-8.899846 H 527.19494 c 6.00798,0 10.01331,3.559938 10.01331,8.899846 v 498.39137 c 0,5.33991 -4.00533,8.89985 -10.01331,8.89985 z"
   id="path4" /> <path
   style="fill:#324144;stroke-width:1.18002"
   d="m 527.19494,54.051282 c 16.02128,0 30.0399,11.5698 30.0399,26.699538 v 498.39137 c 0,14.23975 -13.01729,26.69954 -30.0399,26.69954 H -33.549845 c -16.021279,0 -30.039899,-11.5698 -30.039899,-26.69954"
   id="path6" /> <g
   id="g12"
   transform="matrix(1.2516624,0,0,1.1124807,-63.589744,54.051282)"> <path
   style="fill:#7e8687"
   d="m 196.8,216 c -8.8,0 -16.8,3.2 -22.4,8.8 -3.2,-4 -8.8,-7.2 -14.4,-7.2 -4.8,0 -9.6,2.4 -12.8,5.6 -3.2,-2.4 -7.2,-4 -11.2,-5.6 -2.4,-10.4 -12,-18.4 -23.2,-18.4 -4,0 -8,0.8 -11.2,2.4 -0.8,-6.4 -6.4,-11.2 -12.8,-12 0,-1.6 0.8,-3.2 0.8,-4 0,-8 -2.4,-15.2 -6.4,-21.6 4.8,-2.4 8.8,-7.2 8.8,-12.8 0,-8 -6.4,-13.6 -13.6,-13.6 0,0 0,0 -0.8,0 0,-0.8 0,-1.6 0,-2.4 0,-20 -16,-36 -36,-36 -20,0 -36,16 -36,36 0,11.2 5.6,20.8 13.6,28 -4.8,6.4 -7.2,14.4 -7.2,22.4 0,14.4 8,26.4 19.2,33.6 -5.6,8 -9.6,18.4 -9.6,28.8 0,27.2 22.4,49.6 49.6,49.6 17.6,0 32.8,-8.8 41.6,-22.4 4.8,2.4 9.6,4 15.2,4 14.4,0 26.4,-9.6 30.4,-23.2 0.8,0 1.6,0 2.4,0 1.6,0 3.2,0 4,-0.8 3.2,15.2 16.8,27.2 32.8,27.2 18.4,0 33.6,-15.2 33.6,-33.6 -0.8,-17.6 -16,-32.8 -34.4,-32.8 z"
   id="path8" /> <path
   style="fill:#7e8687"
   d="M 496,251.2 V 192 c -5.6,-6.4 -12,-11.2 -20,-14.4 9.6,-8.8 16,-21.6 16,-35.2 0,-26.4 -21.6,-48 -48,-48 -26.4,0 -48,21.6 -48,48 v 0.8 c -20,1.6 -36,17.6 -38.4,37.6 -2.4,-0.8 -4.8,-1.6 -7.2,-1.6 -8,0 -14.4,5.6 -16.8,12.8 -20,3.2 -35.2,20 -35.2,40 0,20 14.4,36.8 32.8,40 0.8,18.4 16,33.6 34.4,33.6 12,0 23.2,-6.4 28.8,-16 6.4,3.2 14.4,5.6 22.4,5.6 10.4,0 20,-3.2 28,-8.8 4,9.6 13.6,16 24.8,16 11.2,0 20,-6.4 24.8,-16 v -21.6 c -1.6,-3.2 -4,-6.4 -6.4,-8.8 4,-0.8 6.4,-3.2 8,-4.8 z"
   id="path10" /> </g> <g
   id="g18"
   transform="matrix(1.2516624,0,0,1.1124807,-63.589744,54.051282)"> <path
   style="fill:#657375"
   d="m 196.8,227.2 c -8.8,0 -16.8,3.2 -22.4,8.8 -3.2,-4 -8.8,-7.2 -14.4,-7.2 -4.8,0 -9.6,2.4 -12.8,5.6 -3.2,-2.4 -7.2,-4 -11.2,-4.8 -2.4,-10.4 -12,-18.4 -23.2,-18.4 -4,0 -8,0.8 -11.2,2.4 -0.8,-6.4 -6.4,-11.2 -12.8,-12 0,-1.6 0.8,-3.2 0.8,-4 0,-8 -2.4,-15.2 -6.4,-21.6 4.8,-2.4 8.8,-7.2 8.8,-12.8 0,-8 -6.4,-13.6 -13.6,-13.6 0,0 0,0 -0.8,0 0,-0.8 0,-1.6 0,-2.4 0,-20 -16,-36 -36,-36 -20,0 -36,16 -36,36 0,11.2 5.6,20.8 13.6,28 -4.8,6.4 -7.2,14.4 -7.2,22.4 0,14.4 8,26.4 19.2,33.6 -5.6,8 -9.6,18.4 -9.6,28.8 0,27.2 22.4,49.6 49.6,49.6 17.6,0 32.8,-8.8 41.6,-22.4 4.8,2.4 9.6,4 15.2,4 14.4,0 26.4,-9.6 30.4,-23.2 0.8,0 1.6,0 2.4,0 1.6,0 3.2,0 4,-0.8 3.2,15.2 16.8,27.2 32.8,27.2 18.4,0 33.6,-15.2 33.6,-33.6 -0.8,-18.4 -16,-33.6 -34.4,-33.6 z"
   id="path14" /> <path
   style="fill:#657375"
   d="m 496,261.6 v -58.4 c -5.6,-6.4 -12,-11.2 -20,-14.4 9.6,-8.8 16,-21.6 16,-35.2 0,-26.4 -21.6,-48 -48,-48 -26.4,0 -48,21.6 -48,48 v 0.8 c -20,1.6 -36,17.6 -38.4,37.6 -2.4,-0.8 -4.8,-1.6 -7.2,-1.6 -8,0 -14.4,5.6 -16.8,12.8 -20,3.2 -35.2,20 -35.2,40 0,20 14.4,36.8 32.8,40 0.8,18.4 16,33.6 34.4,33.6 12,0 23.2,-6.4 28.8,-16 6.4,3.2 14.4,5.6 22.4,5.6 10.4,0 20,-3.2 28,-8.8 4,9.6 13.6,16 24.8,16 11.2,0 20,-6.4 24.8,-16 V 276 c -1.6,-3.2 -4,-6.4 -6.4,-8.8 4,-0.8 6.4,-3.2 8,-5.6 z"
   id="path16" /> </g> <rect
   x="-33.549843"
   y="347.74619"
   style="fill:#00addb;stroke-width:1.18002"
   width="570.75806"
   height="115.698"
   id="rect20" /> <path
   style="fill:#e8e8e8;stroke-width:1.18002"
   d="M 527.19494,54.051282 H -33.549845 c -17.02261,0 -30.039899,11.5698 -30.039899,26.699538 v 498.39137 c 0,14.23975 13.017289,26.69954 30.039899,26.69954 H 527.19494 c 16.02128,0 30.0399,-11.5698 30.0399,-26.69954 V 80.75082 c 0,-15.129738 -13.01729,-26.699538 -30.0399,-26.699538 z M 517.18165,89.650666 V 410.04512 H -23.536544 V 89.650666 Z"
   id="path22" />  <path
   style="fill:#eae4be;stroke-width:1.18002"
   d="m 148.69221,253.40783 c -14.01861,0 -28.03724,-5.33991 -38.05053,-14.23975 -10.01331,-8.89985 -16.02129,-20.46965 -16.02129,-33.81942 0,-13.34977 6.00798,-24.91957 16.02129,-33.81941 6.00796,-5.33991 15.01994,-5.33991 21.02793,0 6.00797,5.3399 6.00797,13.34977 0,18.68967 -5.00665,4.44993 -7.00932,9.78983 -7.00932,15.12974 0,5.33991 3.00399,11.5698 7.00932,15.12974 9.01197,8.00986 25.03324,8.00986 34.04522,0 6.00797,-5.33991 15.01994,-5.33991 21.02792,0 6.00798,5.33991 6.00798,13.34977 0,18.68968 -10.0133,8.89984 -23.03059,14.23975 -38.05054,14.23975 z"
   id="path26" /> <path
   style="fill:#fcf8e6;stroke-width:1.18002"
   d="m 166.71615,220.4784 c -9.01196,8.00986 -25.03325,8.00986 -34.04522,0 -5.00665,-4.44992 -7.00931,-9.78983 -7.00931,-15.12974 0,-5.33991 3.00398,-11.5698 7.00931,-15.12974 6.00798,-5.3399 6.00798,-13.34977 0,-18.68967 -4.00533,-3.55994 -9.01196,-4.44993 -14.01861,-3.55994 -8.01064,9.78983 -12.01596,19.57966 -12.01596,30.25947 0,12.45979 6.00797,24.91957 16.02127,33.81942 10.0133,8.89984 23.0306,14.23975 38.05054,14.23975 10.01331,0 19.02528,-2.66995 27.03591,-7.11987 6.00799,-5.33991 5.00665,-13.34977 0,-17.7997 -7.00931,-5.3399 -16.02128,-5.3399 -21.02793,-0.88998 z"
   id="path28" /> <path
   style="fill:#19cbf4;stroke-width:1.18002"
   d="M 415.04598,347.7462 H 400.02604 L 282.87044,208.9086 c -5.00666,-6.22989 -18.02395,-6.22989 -23.03061,0.88998 L 173.72547,313.0368 151.6962,287.22724 c -5.00664,-6.22989 -18.02394,-8.00986 -23.0306,-1.77997 L 75.595122,347.7462 H 59.573841 c -8.010641,0 -15.019947,6.22989 -15.019947,13.34976 0,7.11988 7.009306,13.34977 15.019947,13.34977 h 19.02527 c 2.002662,0 5.006651,0 7.009302,0 h 60.079817 c 1.00133,0 2.00265,0.88999 3.00398,0.88999 1.00134,0 2.00266,-0.88999 4.00532,-0.88999 h 41.05454 c 1.00131,0 2.00265,0.88999 4.00531,0.88999 1.00133,0 2.00266,-0.88999 3.00399,-0.88999 h 189.25136 c 2.00267,0 5.00666,0 7.00932,0 h 18.02393 c 8.01063,0 15.01996,-6.22989 15.01996,-13.34977 0,-7.11987 -7.00933,-13.34976 -15.01996,-13.34976 z"
   id="path30" /> <path
   style="fill:#00addb;stroke-width:1.18002"
   d="M 415.04598,347.7462 H 400.02604 L 282.87044,208.9086 c -5.00666,-6.22989 -18.02395,-6.22989 -23.03061,0.88998 L 194.75338,337.95637 151.6962,287.22724 c -5.00664,-6.22989 -18.02394,-8.00986 -23.0306,-1.77997 L 98.625714,347.7462 H 59.573841 c -8.010641,0 -15.019947,6.22989 -15.019947,13.34976 0,7.11988 7.009306,13.34977 15.019947,13.34977 h 19.02527 c 2.002662,0 5.006651,0 7.009302,0 h 60.079817 c 1.00133,0 2.00265,0.88999 3.00398,0.88999 1.00134,0 2.00266,-0.88999 4.00532,-0.88999 h 41.05454 c 1.00131,0 2.00265,0.88999 4.00531,0.88999 1.00133,0 2.00266,-0.88999 3.00399,-0.88999 h 189.25136 c 2.00267,0 5.00666,0 7.00932,0 h 18.02393 c 8.01063,0 15.01996,-6.22989 15.01996,-13.34977 0,-7.11987 -7.00933,-13.34976 -15.01996,-13.34976 z"
   id="path32" /> <g
   id="g48"
   transform="matrix(1.2516624,0,0,1.1124807,-63.589744,54.051282)"> <path
   style="fill:#eae4be"
   d="m 201.6,50.4 c 0,1.6 -0.8,2.4 -2.4,2.4 -1.6,0 -2.4,-0.8 -2.4,-2.4 0,-1.6 0.8,-2.4 2.4,-2.4 1.6,0 2.4,1.6 2.4,2.4 z"
   id="path34" /> <circle
   style="fill:#eae4be"
   cx="228.8"
   cy="64"
   r="4.8000002"
   id="circle36" /> <circle
   style="fill:#eae4be"
   cx="261.60001"
   cy="42.400002"
   r="1.6"
   id="circle38" /> <circle
   style="fill:#eae4be"
   cx="280"
   cy="94.400002"
   r="5.5999999"
   id="circle40" /> <circle
   style="fill:#eae4be"
   cx="194.39999"
   cy="81.599998"
   r="1.6"
   id="circle42" /> <circle
   style="fill:#eae4be"
   cx="228.8"
   cy="93.599998"
   r="4"
   id="circle44" /> <circle
   style="fill:#eae4be"
   cx="152.8"
   cy="54.400002"
   r="3.2"
   id="circle46" /> </g> <path
   style="fill:#fcf8e6;stroke-width:1.18002"
   d="m 282.87044,210.68857 c -5.00666,-6.22989 -18.02395,-7.11988 -23.03061,-0.88999 l -41.05451,49.83914 25.03325,22.24962 15.01994,-13.34977 15.01995,13.34977 15.01995,-13.34977 15.01995,13.34977 24.03192,-21.35963 z"
   id="path50" /> <path
   style="fill:#eae4be;stroke-width:1.18002"
   d="m 242.81723,281.88734 15.01996,-13.34977 15.01993,13.34977 15.01996,-13.34977 15.01995,13.34977 25.03325,-22.24962 -43.0572,-50.72912 c -5.00664,-6.22989 -18.02392,-6.22989 -23.03059,0.88998 l -30.03989,60.51896 z"
   id="path52" /> <rect
   x="-23.536543"
   y="410.0451"
   style="fill:#e8e8e8;stroke-width:1.18002"
   width="560.74481"
   height="26.699537"
   id="rect54" />     <g
   id="g233"
   transform="matrix(0.95213046,0,0,0.85605628,57.781915,-16.840818)"><circle
     style="fill:#5ac117"
     cx="364.79999"
     cy="379.20001"
     r="116.8"
     id="circle58" /><path
     style="fill:#4db20d"
     d="m 281.6,296.8 c 45.6,-45.6 120,-45.6 165.6,0 45.6,45.6 45.6,120 0,165.6"
     id="path62" /><path
     style="fill:#ffffff"
     d="M 423.2,368 H 376 v -48 c 0,-6.4 -5.6,-12 -12,-12 -6.4,0 -12,5.6 -12,12 v 48 h -46.4 c -6.4,0 -12,5.6 -12,12 0,6.4 5.6,12 12,12 H 352 v 45.6 c 0,6.4 5.6,12 12,12 6.4,0 12,-5.6 12,-12 V 392 h 47.2 c 6.4,0 12,-5.6 12,-12 0,-6.4 -5.6,-12 -12,-12 z"
     id="path64" /></g> </g>

</svg>
