<?xml version="1.0" encoding="UTF-8" standalone="no"?>
<!-- Uploaded to: SVG Repo, www.svgrepo.com, Transformed by: SVG Repo Mixer Tools -->

<svg
   width="256px"
   height="256px"
   viewBox="0 0 24.00 24.00"
   id="SVGRoot"
   version="1.1"
   fill="#3584e4"
   sodipodi:docname="arrow-back-direction-left-move-previous-svgrepo-com(2).svg"
   inkscape:version="1.2.2 (b0a8486541, 2022-12-01)"
   xmlns:inkscape="http://www.inkscape.org/namespaces/inkscape"
   xmlns:sodipodi="http://sodipodi.sourceforge.net/DTD/sodipodi-0.dtd"
   xmlns="http://www.w3.org/2000/svg"
   xmlns:svg="http://www.w3.org/2000/svg">
  <defs
     id="defs258" />
  <sodipodi:namedview
     id="namedview256"
     pagecolor="#ffffff"
     bordercolor="#000000"
     borderopacity="0.25"
     inkscape:showpageshadow="2"
     inkscape:pageopacity="0.0"
     inkscape:pagecheckerboard="0"
     inkscape:deskcolor="#d1d1d1"
     showgrid="false"
     inkscape:zoom="0.921875"
     inkscape:cx="68.881356"
     inkscape:cy="128"
     inkscape:window-width="1366"
     inkscape:window-height="672"
     inkscape:window-x="0"
     inkscape:window-y="0"
     inkscape:window-maximized="1"
     inkscape:current-layer="SVGRoot" />
  <g
     id="SVGRepo_bgCarrier"
     stroke-width="0"
     transform="translate(2.5199999999999996,2.5199999999999996), scale(0.79)">
    <rect
       x="0"
       y="0"
       width="24.00"
       height="24.00"
       rx="12"
       fill="#ffffff"
       strokewidth="0"
       id="rect247" />
  </g>
  <g
     id="SVGRepo_tracerCarrier"
     stroke-linecap="round"
     stroke-linejoin="round" />
  <g
     id="SVGRepo_iconCarrier"
     transform="matrix(1.1881356,0,0,1.1932203,-2.2067797,-2.2169491)">
    <defs
       id="defs2" />
    <g
       id="layer1">
      <path
         d="M 12,2 C 6.4889971,2 2,6.4889971 2,12 2,17.511003 6.4889971,22 12,22 17.511003,22 22,17.511003 22,12 22,6.4889971 17.511003,2 12,2 Z m 0,2 c 4.430123,0 8,3.5698774 8,8 0,4.430123 -3.569877,8 -8,8 C 7.5698774,20 4,16.430123 4,12 4,7.5698774 7.5698774,4 12,4 Z M 11.029297,8 A 1,1 0 0 0 10.292969,8.2929688 L 7.3125,11.273438 7.292969,11.292968 a 1.0001,1.0001 0 0 0 -0.00977,0.0098 1,1 0 0 0 -0.046875,0.05274 1,1 0 0 0 -0.050781,0.06641 1,1 0 0 0 -0.039063,0.06055 1.0001,1.0001 0 0 0 -0.017578,0.02734 1,1 0 0 0 -0.029297,0.05664 1,1 0 0 0 -0.03125,0.07227 1.0001,1.0001 0 0 0 -0.00391,0.01172 1,1 0 0 0 -0.023437,0.06445 1.0001,1.0001 0 0 0 -0.00781,0.03516 1,1 0 0 0 -0.00977,0.04102 1.0001,1.0001 0 0 0 -0.00781,0.03711 1,1 0 0 0 -0.00781,0.04297 1.0001,1.0001 0 0 0 -0.00586,0.07226 A 1.0001,1.0001 0 0 0 7,11.988281 1,1 0 0 0 7,12 a 1,1 0 0 0 0.00195,0.0293 1.0001,1.0001 0 0 0 0.00195,0.03711 1,1 0 0 0 0.00391,0.05078 1.0001,1.0001 0 0 0 0.00391,0.0293 1,1 0 0 0 0.013672,0.07617 1,1 0 0 0 0.015625,0.05859 1.0001,1.0001 0 0 0 0.013672,0.04297 1,1 0 0 0 0.00391,0.01367 1.0001,1.0001 0 0 0 0.029297,0.07031 1.0001,1.0001 0 0 0 0.033203,0.06641 1,1 0 0 0 0.013672,0.02734 1.0001,1.0001 0 0 0 0.029297,0.04492 1,1 0 0 0 0.013672,0.02148 1.0001,1.0001 0 0 0 0.023437,0.0332 1,1 0 0 0 0.017578,0.02149 1.0001,1.0001 0 0 0 0.046875,0.05469 1,1 0 0 0 0.019531,0.02149 1.0001,1.0001 0 0 0 0.00781,0.0078 1,1 0 0 0 0.041016,0.03906 l 2.958985,2.960937 a 1,1 0 0 0 1.414062,0 1,1 0 0 0 0,-1.414062 L 10.414062,13 H 16 a 1,1 0 0 0 1,-1 1,1 0 0 0 -1,-1 h -5.585938 l 1.292969,-1.2929688 a 1,1 0 0 0 0,-1.4140624 A 1,1 0 0 0 11.029297,8 Z"
         id="path2488"
         style="color:#3584e4;font-style:normal;font-variant:normal;font-weight:normal;font-stretch:normal;font-size:medium;line-height:normal;font-family:sans-serif;font-variant-ligatures:normal;font-variant-position:normal;font-variant-caps:normal;font-variant-numeric:normal;font-variant-alternates:normal;font-variant-east-asian:normal;font-feature-settings:normal;font-variation-settings:normal;text-indent:0;text-align:start;text-decoration:none;text-decoration-line:none;text-decoration-style:solid;text-decoration-color:#3584e4;letter-spacing:normal;word-spacing:normal;text-transform:none;writing-mode:lr-tb;direction:ltr;text-orientation:mixed;dominant-baseline:auto;baseline-shift:baseline;text-anchor:start;white-space:normal;shape-padding:0;shape-margin:0;inline-size:0;clip-rule:nonzero;display:inline;overflow:visible;visibility:visible;opacity:1;isolation:auto;mix-blend-mode:normal;color-interpolation:sRGB;color-interpolation-filters:linearRGB;solid-color:#3584e4;solid-opacity:1;vector-effect:none;fill:#3584e4;fill-opacity:1;fill-rule:nonzero;stroke:none;stroke-width:2;stroke-linecap:round;stroke-linejoin:miter;stroke-miterlimit:4;stroke-dasharray:none;stroke-dashoffset:0;stroke-opacity:1;color-rendering:auto;image-rendering:auto;shape-rendering:auto;text-rendering:auto;enable-background:accumulate;stop-color:#3584e4;stop-opacity:1" />
    </g>
  </g>
</svg>
