<?xml version="1.0" encoding="UTF-8" standalone="no"?>
<!-- Uploaded to: SVG Repo, www.svgrepo.com, Transformed by: SVG Repo Mixer Tools -->

<svg
   version="1.1"
   id="Layer_1"
   viewBox="-51.2 -51.2 598.04447 384.8881"
   xml:space="preserve"
   width="249.1852"
   height="160.37004"
   fill="#e01b24"
   stroke="#e01b24"
   stroke-width="0.00512"
   sodipodi:docname="clear.svg"
   inkscape:version="1.2.2 (b0a8486541, 2022-12-01)"
   xmlns:inkscape="http://www.inkscape.org/namespaces/inkscape"
   xmlns:sodipodi="http://sodipodi.sourceforge.net/DTD/sodipodi-0.dtd"
   xmlns="http://www.w3.org/2000/svg"
   xmlns:svg="http://www.w3.org/2000/svg"><defs
   id="defs80"><filter
     id="filter1835"
     inkscape:menu="Blurs"
     height="1.0600234"
     width="1.0650146"
     color-interpolation-filters="sRGB"
     y="-0.030011623"
     x="-0.032508523"
     inkscape:menu-tooltip="Edges are partly feathered out"
     inkscape:label="Apparition"><feMorphology
       id="feMorphology1837"
       result="result0"
       radius="4"
       in="SourceGraphic" /><feGaussianBlur
       id="feGaussianBlur1839"
       result="result91"
       stdDeviation="8"
       in="result0" /><feComposite
       id="feComposite1841"
       operator="in"
       in2="result91"
       in="SourceGraphic" /></filter><filter
     id="filter1835-6"
     inkscape:menu="Blurs"
     height="1.0600234"
     width="1.0650146"
     color-interpolation-filters="sRGB"
     y="-0.030011623"
     x="-0.032508523"
     inkscape:menu-tooltip="Edges are partly feathered out"
     inkscape:label="Apparition"><feMorphology
       id="feMorphology1837-7"
       result="result0"
       radius="4"
       in="SourceGraphic" /><feGaussianBlur
       id="feGaussianBlur1839-5"
       result="result91"
       stdDeviation="8"
       in="result0" /><feComposite
       id="feComposite1841-3"
       operator="in"
       in2="result91"
       in="SourceGraphic" /></filter></defs><sodipodi:namedview
   id="namedview78"
   pagecolor="#ffffff"
   bordercolor="#000000"
   borderopacity="0.25"
   inkscape:showpageshadow="2"
   inkscape:pageopacity="0.0"
   inkscape:pagecheckerboard="0"
   inkscape:deskcolor="#d1d1d1"
   showgrid="false"
   inkscape:zoom="1.7235728"
   inkscape:cx="97.762044"
   inkscape:cy="17.11561"
   inkscape:window-width="1366"
   inkscape:window-height="691"
   inkscape:window-x="0"
   inkscape:window-y="0"
   inkscape:window-maximized="1"
   inkscape:current-layer="Layer_1" />

<g
   id="SVGRepo_bgCarrier"
   stroke-width="0"
   transform="matrix(0.97749199,0,0,0.94801186,-1.4310935,-40.386561)" />



<g
   id="SVGRepo_iconCarrier"
   transform="matrix(1.1841015,0,0,1.1221839,-53.240801,-67.734852)">            <polygon
   style="fill:#ffffff"
   points="153.28,104.168 199.36,133.336 153.28,162.496 "
   id="polygon74" /> <g
   id="SVGRepo_bgCarrier-3"
   stroke-width="0"
   transform="matrix(0.92757884,0,0,0.61573978,22.511188,31.875882)" /><g
   id="SVGRepo_tracerCarrier-6"
   stroke-linecap="round"
   stroke-linejoin="round"
   transform="matrix(0.92757884,0,0,0.61573978,22.511188,31.875882)" /><g
   id="g6260"
   transform="matrix(0.47241612,0.11273168,-0.07947981,0.31630208,31.161179,-61.105808)"><path
     d="m 727.68813,422.58644 c -46,-25.4 -92.5,-49.9 -139.1,-74.2 -36.3,-18.9 -73.3,-19.2 -110,-0.9 -22,11 -38.8,27.5 -50.4,49.9 116.5,62 232.2,123.6 348.7,185.6 2.2,-5.1 4.4,-9.3 6,-13.7 21.1,-56.8 -1.1,-116.9 -55.2,-146.7 z"
     id="path6126"
     style="fill:#2a7fff" /><path
     d="M 866.26772,72.460566 C 855.61451,57.896051 840.90845,49.24837 823.19171,45.37967 803.85382,41.169616 792.96903,45.607241 782.66321,61.650965 721.29148,157.9133 659.91976,254.17564 598.54802,350.43799 c -1.96852,3.0722 -3.70546,6.1444 -5.55819,9.2166 1.15796,1.25164 1.73694,2.27571 2.6633,2.73085 41.91805,21.96056 83.83609,43.92112 126.33313,66.22303 1.50533,-2.38949 2.31591,-3.52734 3.01068,-4.77898 48.17102,-106.84437 96.22624,-213.68875 144.51305,-320.41933 4.97922,-11.378527 3.82127,-21.391631 -3.24227,-30.949594 z"
     id="path6128"
     style="fill:#2a7fff;stroke-width:1.14786" /><path
     d="m 754.3,597.7 c 7.1,-18.1 -1.8,-38.5 -19.9,-45.6 -18,-7.2 -38.5,1.7 -45.6,19.8 -3.7,9.4 -80.7,208.2 -18.2,347.6 -29.6,-0.3 -76.3,-7.1 -141.9,-31.8 -12.2,-38 -20.9,-97.3 5.7,-166.9 0,0 -63.7,72.8 -74.3,137.5 -13.7,-6.6 -28,-13.8 -43,-21.8 -15,-8.1 -28.9,-16 -42,-23.8 48.1,-44.6 73.5,-137.9 73.5,-137.9 -43.3,60.6 -97.5,86.2 -135.9,97 -57.1,-41.1 -88.6,-76.3 -105.1,-100.6 150.8,-25 273.9,-199.1 279.7,-207.4 11.1,-15.9 7.2,-37.9 -8.7,-48.9 -15.9,-11.2 -37.8,-7.2 -49,8.7 -1.4,1.9 -137.8,193.7 -271.7,179.5 -10.4,-1.1 -21,2.5 -28.6,10 -7.5,7.5 -11.3,17.9 -10.2,28.5 1.3,12.4 19.5,125.3 264.8,256.9 138.2,74.1 231.6,91.5 288.7,91.5 44.3,0 66.9,-10.4 71.7,-13 9.4,-4.9 16,-13.8 18.1,-24.3 2.1,-10.4 -0.7,-21.2 -7.5,-29.4 -86.2,-103.8 -1.4,-323.4 -0.6,-325.6 z"
     id="path6130"
     style="fill:#ff7f2a" /></g></g>

</svg>
