<?xml version="1.0" encoding="UTF-8" standalone="no"?>
<!-- Uploaded to: SVG Repo, www.svgrepo.com, Transformed by: SVG Repo Mixer Tools -->

<svg
   width="256px"
   height="256px"
   viewBox="0 0 24.00 24.00"
   version="1.1"
   fill="#000000"
   id="svg12"
   sodipodi:docname="dot-grid-svgrepo-com.svg"
   inkscape:version="1.2.2 (b0a8486541, 2022-12-01)"
   xmlns:inkscape="http://www.inkscape.org/namespaces/inkscape"
   xmlns:sodipodi="http://sodipodi.sourceforge.net/DTD/sodipodi-0.dtd"
   xmlns="http://www.w3.org/2000/svg"
   xmlns:svg="http://www.w3.org/2000/svg">
  <defs
     id="defs16" />
  <sodipodi:namedview
     id="namedview14"
     pagecolor="#ffffff"
     bordercolor="#000000"
     borderopacity="0.25"
     inkscape:showpageshadow="2"
     inkscape:pageopacity="0.0"
     inkscape:pagecheckerboard="0"
     inkscape:deskcolor="#d1d1d1"
     showgrid="false"
     inkscape:zoom="0.921875"
     inkscape:cx="68.881356"
     inkscape:cy="128"
     inkscape:window-width="1366"
     inkscape:window-height="672"
     inkscape:window-x="0"
     inkscape:window-y="0"
     inkscape:window-maximized="1"
     inkscape:current-layer="SVGRepo_iconCarrier" />
  <g
     id="SVGRepo_bgCarrier"
     stroke-width="0" />
  <g
     id="SVGRepo_tracerCarrier"
     stroke-linecap="round"
     stroke-linejoin="round"
     stroke="#CCCCCC"
     stroke-width="0.048" />
  <g
     id="SVGRepo_iconCarrier">
    <title
       id="title4">dot_grid_line</title>
    <g
       id="页面-1"
       stroke-width="0.00024"
       fill="none"
       fill-rule="evenodd"
       transform="matrix(1.3359098,0,0,1.2937408,-3.7627118,-3.1853726)">
      <g
         id="System"
         transform="translate(-528,-288)"
         fill-rule="nonzero">
        <g
           id="dot_grid_line"
           transform="translate(528,288)">
          <path
             d="M 24,0 V 24 H 0 V 0 Z m -11.40651,23.257841 -0.01155,0.0017 -0.07106,0.03553 -0.019,0.0037 v 0 l -0.01516,-0.0037 -0.07106,-0.03553 c -0.0098,-0.0031 -0.01861,-4.89e-4 -0.02351,0.0054 l -0.0041,0.01092 -0.01709,0.427279 0.005,0.02039 0.01101,0.01222 0.103573,0.07398 0.01487,0.0039 v 0 l 0.01177,-0.0039 0.103575,-0.07398 0.0126,-0.01604 v 0 l 0.0034,-0.01656 -0.01709,-0.427279 c -0.002,-0.01013 -0.0085,-0.01653 -0.01607,-0.01799 z m 0.264901,-0.112555 -0.01384,0.002 -0.184705,0.09235 -0.01,0.01024 v 0 l -0.0027,0.01121 0.0179,0.429528 0.0048,0.01278 v 0 l 0.0085,0.0071 0.200954,0.09275 c 0.01209,0.0037 0.02289,-2.52e-4 0.02849,-0.008 l 0.004,-0.01406 -0.03415,-0.614631 c -0.0024,-0.01194 -0.01027,-0.01953 -0.01929,-0.02125 z m -0.715344,0.002 c -0.0098,-0.0049 -0.02087,-0.002 -0.02741,0.0053 l -0.0057,0.01394 -0.03415,0.614631 c -6.39e-4,0.0115 0.007,0.0207 0.01688,0.0234 l 0.01561,-0.0013 0.200955,-0.09275 0.0094,-0.0081 v 0 l 0.0039,-0.0118 0.0179,-0.429528 -0.0032,-0.01259 v 0 l -0.0095,-0.0089 z"
             id="MingCute"
             fill-rule="nonzero" />
          <path
             d="M 5.5,17 C 6.32843,17 7,17.6716 7,18.5 7,19.3284 6.32843,20 5.5,20 4.67157,20 4,19.3284 4,18.5 4,17.6716 4.67157,17 5.5,17 Z m 6.5,0 c 0.8284,0 1.5,0.6716 1.5,1.5 0,0.8284 -0.6716,1.5 -1.5,1.5 -0.8284,0 -1.5,-0.6716 -1.5,-1.5 0,-0.8284 0.6716,-1.5 1.5,-1.5 z m 6.5,0 C 19.3284,17 20,17.6716 20,18.5 20,19.3284 19.3284,20 18.5,20 17.6716,20 17,19.3284 17,18.5 17,17.6716 17.6716,17 18.5,17 Z M 5.5,10.5 C 6.32843,10.5 7,11.1716 7,12 7,12.8284 6.32843,13.5 5.5,13.5 4.67157,13.5 4,12.8284 4,12 4,11.1716 4.67157,10.5 5.5,10.5 Z m 6.5,0 c 0.8284,0 1.5,0.6716 1.5,1.5 0,0.8284 -0.6716,1.5 -1.5,1.5 -0.8284,0 -1.5,-0.6716 -1.5,-1.5 0,-0.8284 0.6716,-1.5 1.5,-1.5 z m 6.5,0 c 0.8284,0 1.5,0.6716 1.5,1.5 0,0.8284 -0.6716,1.5 -1.5,1.5 -0.8284,0 -1.5,-0.6716 -1.5,-1.5 0,-0.8284 0.6716,-1.5 1.5,-1.5 z M 5.5,4 C 6.32843,4 7,4.67157 7,5.5 7,6.32843 6.32843,7 5.5,7 4.67157,7 4,6.32843 4,5.5 4,4.67157 4.67157,4 5.5,4 Z M 12,4 c 0.8284,0 1.5,0.67157 1.5,1.5 C 13.5,6.32843 12.8284,7 12,7 11.1716,7 10.5,6.32843 10.5,5.5 10.5,4.67157 11.1716,4 12,4 Z m 6.5,0 C 19.3284,4 20,4.67157 20,5.5 20,6.32843 19.3284,7 18.5,7 17.6716,7 17,6.32843 17,5.5 17,4.67157 17.6716,4 18.5,4 Z"
             id="形状"
             fill="#000000" />
        </g>
      </g>
    </g>
  </g>
</svg>
