<?xml version="1.0" encoding="UTF-8" standalone="no"?>
<!-- Uploaded to: SVG Repo, www.svgrepo.com, Transformed by: SVG Repo Mixer Tools -->

<svg
   height="256px"
   width="256px"
   version="1.1"
   id="Layer_1"
   viewBox="0 0 460.802 460.802"
   xml:space="preserve"
   fill="#000000"
   sodipodi:docname="erase.svg"
   inkscape:version="1.2.2 (b0a8486541, 2022-12-01)"
   xmlns:inkscape="http://www.inkscape.org/namespaces/inkscape"
   xmlns:sodipodi="http://sodipodi.sourceforge.net/DTD/sodipodi-0.dtd"
   xmlns="http://www.w3.org/2000/svg"
   xmlns:svg="http://www.w3.org/2000/svg"><defs
   id="defs18" /><sodipodi:namedview
   id="namedview16"
   pagecolor="#ffffff"
   bordercolor="#000000"
   borderopacity="0.25"
   inkscape:showpageshadow="2"
   inkscape:pageopacity="0.0"
   inkscape:pagecheckerboard="0"
   inkscape:deskcolor="#d1d1d1"
   showgrid="false"
   inkscape:zoom="2.4375"
   inkscape:cx="128"
   inkscape:cy="128.20513"
   inkscape:window-width="1920"
   inkscape:window-height="993"
   inkscape:window-x="0"
   inkscape:window-y="0"
   inkscape:window-maximized="1"
   inkscape:current-layer="g12" />

<g
   id="SVGRepo_bgCarrier"
   stroke-width="0" />

<g
   id="SVGRepo_tracerCarrier"
   stroke-linecap="round"
   stroke-linejoin="round" />

<g
   id="SVGRepo_iconCarrier"> <g
   transform="translate(0 -952.36)"
   id="g12"> <g
   transform="matrix(-0.70711 -0.70711 -0.70711 0.70711 0 0)"
   id="g8">   </g> <g
   id="g181"
   transform="matrix(1.4935868,0,0,1.491168,-113.72352,-579.81599)"><path
     style="fill:#27bec4"
     d="m -1040.327,515.425 h 82.169 c 19.509,0 35.216,15.706 35.216,35.216 v 211.293 c 0,19.509 -15.706,35.216 -35.216,35.216 h -82.169 c -19.509,0 -35.216,-15.706 -35.216,-35.216 V 550.64 c 0,-19.509 15.706,-35.215 35.216,-35.215 z"
     id="path6"
     transform="matrix(-0.70710999,-0.70710999,-0.70710999,0.70710999,0,4.5110156e-6)" /><path
     style="fill:#ea612f"
     d="m 292.251,1228.804 -94.689,94.689 c -13.795,13.796 -36.046,13.795 -49.841,0 L 89.618,1265.39 c -13.795,-13.795 -13.75,-36 0.045,-49.796 l 94.689,-94.689 z"
     id="path10" /></g> </g> </g>

</svg>
