<?xml version="1.0" encoding="UTF-8" standalone="no"?>
<!-- Uploaded to: SVG Repo, www.svgrepo.com, Transformed by: SVG Repo Mixer Tools -->

<svg
   height="256px"
   width="256px"
   version="1.1"
   id="Layer_1"
   viewBox="0 0 512 512"
   xml:space="preserve"
   fill="#000000"
   stroke="#000000"
   stroke-width="1.536"
   sodipodi:docname="fen.svg"
   inkscape:version="1.2.2 (b0a8486541, 2022-12-01)"
   xmlns:inkscape="http://www.inkscape.org/namespaces/inkscape"
   xmlns:sodipodi="http://sodipodi.sourceforge.net/DTD/sodipodi-0.dtd"
   xmlns="http://www.w3.org/2000/svg"
   xmlns:svg="http://www.w3.org/2000/svg"><defs
   id="defs3059" /><sodipodi:namedview
   id="namedview3057"
   pagecolor="#ffffff"
   bordercolor="#000000"
   borderopacity="0.25"
   inkscape:showpageshadow="2"
   inkscape:pageopacity="0.0"
   inkscape:pagecheckerboard="0"
   inkscape:deskcolor="#d1d1d1"
   showgrid="false"
   inkscape:zoom="0.921875"
   inkscape:cx="68.881356"
   inkscape:cy="128.54237"
   inkscape:window-width="1366"
   inkscape:window-height="691"
   inkscape:window-x="0"
   inkscape:window-y="0"
   inkscape:window-maximized="1"
   inkscape:current-layer="SVGRepo_iconCarrier" />

<g
   id="SVGRepo_bgCarrier"
   stroke-width="0" />

<g
   id="SVGRepo_tracerCarrier"
   stroke-linecap="round"
   stroke-linejoin="round" />

<g
   id="SVGRepo_iconCarrier">   <path
   style="fill:#ecf0f1;stroke-width:2.1852"
   d="m 23.730894,209.76802 h 85.254516 v 202.47944 c 0,20.58658 -19.182267,37.43609 -42.627251,37.43609 -23.446515,0 -42.627265,-16.84551 -42.627265,-37.43609 0,0 0,-202.47944 0,-202.47944 z"
   id="path2991" /> <path
   style="fill:#15bdb1;stroke-width:2.1852"
   d="m 36.622296,297.67398 v 114.57348 c 0,14.34034 13.404521,26.11553 29.732826,26.11553 16.329823,0 29.737369,-11.77519 29.737369,-26.11553 V 297.67398 Z"
   id="path2993" /> <g
   id="g2999"
   transform="matrix(1.5180649,0,0,1.3332419,-151.10312,-90.731353)"
   style="fill:#7fff2a"> <path
   style="fill:#7fff2a"
   d="m 258.884,139.067 v 117.405 l 83.314,153.893 c 12.479,23.048 -2.427,36.721 -28.469,36.721 h -86.373 -86.375 c -26.042,0 -40.955,-13.654 -28.469,-36.721 L 195.83,256.472 V 139.067 Z"
   id="path2995" /> <path
   style="fill:#7fff2a"
   d="M 425.858,239.714 V 383.847 H 329.623 V 239.714 c -12.449,0 102.929,0 96.235,0 z"
   id="path2997" /> </g> <path
   style="fill:#ff0000;stroke-width:2.1852"
   d="M 416.09297,213.70242 V 31.598917 h -62.53972 c -2.438,0 -4.41605,-1.735881 -4.41605,-3.874401 V 3.5675073 H 332.27454 V 69.433655 c 0,2.138517 -1.97652,3.877064 -4.41301,3.877064 h -26.47051 c -2.438,0 -4.41453,-1.737217 -4.41453,-3.877064 V 35.017349 H 198.45105 V 94.678582 H 189.6235 V 31.138949 c 0,-2.137187 1.97652,-3.874401 4.41453,-3.874401 h 107.35299 c 2.43802,0 4.41151,1.737214 4.41151,3.874401 v 34.4163 h 17.64295 V -0.31089272 c 0,-2.13852028 1.975,-3.87440088 4.41453,-3.87440088 h 25.69324 c 2.43498,0 4.41454,1.7358806 4.41454,3.87440088 V 23.847448 H 420.506 c 2.438,0 4.41453,1.734548 4.41453,3.877068 V 213.70375 h -8.82756 z"
   id="path3001" /> <g
   id="g3007"
   transform="matrix(1.5180649,0,0,1.3332419,-151.10312,-90.731353)"> <path
   style="fill:#c8cacc"
   d="m 379.446,258.762 c 0,1.606 -1.302,2.908 -2.908,2.908 -1.604,0 -2.907,-1.302 -2.907,-2.908 v -19.048 h 5.815 z"
   id="path3003" /> <path
   style="fill:#c8cacc"
   d="m 230.262,139.067 v 40.3 c 0,1.604 -1.303,2.908 -2.907,2.908 -1.606,0 -2.908,-1.303 -2.908,-2.908 v -40.3 z"
   id="path3005" /> </g> <path
   style="fill:#ff5b62;stroke-width:2.1852"
   d="M 134.52382,309.42518 36.461381,463.5866 c -2.356032,4.23304 -6.278717,12.78178 -3.133284,17.45214 4.532936,6.7262 21.972473,7.91411 29.587084,7.91411 H 325.15937 c 7.61765,0 25.04807,-1.19058 29.58253,-7.92212 3.14543,-4.67034 -0.76814,-13.21242 -3.12721,-17.44413 L 253.55224,309.42518 c -49.02135,-9.57268 -70.01162,13.67373 -119.02842,0 z"
   id="path3009" /> <path
   style="fill:#20d0c2;stroke-width:2.1852"
   d="m 364.55771,279.60056 c 81.01913,-12.24583 79.68626,15.74692 115.54447,0 V 410.24092 H 364.55771 Z"
   id="path3011" /> <g
   id="g3017"
   transform="matrix(1.5180649,0,0,1.3332419,-151.10312,-90.731353)"> <path
   style="fill:#666666"
   d="m 339.683,243.65 h 9.778 v 3.28 h -9.778 z m 0,129.216 v 0 h 4.888 v 3.282 h -4.888 z m 0,-7.6 v 0 h 9.778 v 3.281 h -9.778 z m 0,-7.603 v 0 h 4.888 v 3.282 h -4.888 z m 0,-7.602 v 0 h 9.778 v 3.282 h -9.778 z m 0,-7.6 v 0 h 4.888 v 3.282 h -4.888 z m 0,-7.599 v 0 h 9.778 v 3.28 h -9.778 z m 0,-7.602 v 0 h 4.888 v 3.281 h -4.888 z m 0,-7.601 v 0 h 9.778 v 3.281 h -9.778 z m 0,-7.603 v 0 h 4.888 v 3.283 h -4.888 z m 0,-7.6 v 0 h 9.778 v 3.281 h -9.778 z m 0,-7.601 v 0 h 4.888 v 3.281 h -4.888 z m 0,-7.601 v 0 h 9.778 v 3.281 h -9.778 z m 0,-7.6 v 0 h 4.888 v 3.282 h -4.888 z m 0,-7.602 v 0 h 9.778 v 3.282 h -9.778 z m 0,-7.601 v 0 h 4.888 v 3.282 h -4.888 z m 0,-7.602 v 0 h 9.778 v 3.282 h -9.778 z m 0,-7.601 v 0 h 4.888 v 3.282 h -4.888 z"
   id="path3013" /> <path
   style="fill:#666666"
   d="m 123.661,246.86 h 9.778 v 3.282 h -9.778 z m 0,129.216 v 0 h 4.888 v 3.282 h -4.888 c 0,0 0,-3.282 0,-3.282 z m 0,-7.601 v 0 h 9.778 v 3.282 h -9.778 z m 0,-7.601 v 0 h 4.888 v 3.281 h -4.888 c 0,0 0,-3.281 0,-3.281 z m 0,-7.602 v 0 h 9.778 v 3.281 h -9.778 z m 0,-7.6 v 0 h 4.888 v 3.282 h -4.888 c 0,-0.001 0,-3.282 0,-3.282 z m 0,-7.599 v 0 h 9.778 v 3.281 h -9.778 z m 0,-7.603 v 0 h 4.888 v 3.282 h -4.888 c 0,-0.001 0,-3.282 0,-3.282 z m 0,-7.602 v 0 h 9.778 v 3.282 h -9.778 z m 0,-7.601 v 0 h 4.888 v 3.282 h -4.888 c 0,0 0,-3.282 0,-3.282 z m 0,-7.6 v 0 h 9.778 v 3.281 h -9.778 z m 0,-7.6 v 0 h 4.888 v 3.28 h -4.888 c 0,0 0,-3.28 0,-3.28 z m 0,-7.602 v 0 h 9.778 v 3.281 h -9.778 z m 0,-7.6 v 0 h 4.888 v 3.282 h -4.888 c 0,-10e-4 0,-3.282 0,-3.282 z m 0,-7.603 v 0 h 9.778 v 3.282 h -9.778 z m 0,-7.602 v 0 h 4.888 v 3.282 h -4.888 c 0,0 0,-3.282 0,-3.282 z m 0,-7.6 v 0 h 9.778 v 3.281 h -9.778 z m 0,-7.601 v 0 h 4.888 v 3.281 h -4.888 c 0,0 0,-3.281 0,-3.281 z"
   id="path3015" /> </g> <g
   id="g3033"
   transform="matrix(1.5180649,0,0,1.3332419,-151.10312,-90.731353)"> <path
   style="fill:#fad24d"
   d="m 212.48,344.014 c 5.172,0 9.367,4.192 9.367,9.366 0,5.172 -4.194,9.367 -9.367,9.367 -5.174,0 -9.366,-4.194 -9.366,-9.367 0,-5.174 4.192,-9.366 9.366,-9.366 z"
   id="path3019" /> <path
   style="fill:#fad24d"
   d="m 170.706,387.494 c 3.752,0 6.795,3.042 6.795,6.796 0,3.753 -3.042,6.796 -6.795,6.796 -3.755,0 -6.796,-3.042 -6.796,-6.796 0.001,-3.754 3.042,-6.796 6.796,-6.796 z"
   id="path3021" /> <path
   style="fill:#fad24d"
   d="m 273.866,349.671 c 3.796,0 6.871,3.077 6.871,6.87 0,3.795 -3.075,6.87 -6.871,6.87 -3.794,0 -6.87,-3.075 -6.87,-6.87 0.001,-3.793 3.077,-6.87 6.87,-6.87 z"
   id="path3023" /> <path
   style="fill:#fad24d"
   d="m 232.638,310.706 c 2.762,0 5.004,2.241 5.004,5.005 0,2.762 -2.242,5.004 -5.004,5.004 -2.765,0 -5.005,-2.242 -5.005,-5.004 -0.001,-2.764 2.241,-5.005 5.005,-5.005 z"
   id="path3025" /> <path
   style="fill:#fad24d"
   d="m 290.688,404.654 c 3.328,0 6.024,2.698 6.024,6.023 0,3.328 -2.696,6.024 -6.024,6.024 -3.327,0 -6.024,-2.697 -6.024,-6.024 -10e-4,-3.326 2.698,-6.023 6.024,-6.023 z"
   id="path3027" /> <path
   style="fill:#fad24d"
   d="m 194.474,419.421 c 2.168,0 3.925,1.758 3.925,3.925 0,2.169 -1.758,3.926 -3.925,3.926 -2.169,0 -3.926,-1.758 -3.926,-3.926 0,-2.168 1.757,-3.925 3.926,-3.925 z"
   id="path3029" /> <path
   style="fill:#fad24d"
   d="m 242.565,384.091 c 5.633,0 10.199,4.565 10.199,10.199 0,5.632 -4.565,10.197 -10.199,10.197 -5.632,0 -10.197,-4.565 -10.197,-10.197 0,-5.633 4.565,-10.199 10.197,-10.199 z"
   id="path3031" /> </g> <path
   style="fill:#20d0c2;stroke-width:2.1852"
   d="m 192.8843,164.64845 c 3.57504,0 6.47304,2.54516 6.47304,5.68628 0,3.13578 -2.89648,5.68361 -6.47304,5.68361 -3.57352,0 -6.47151,-2.54516 -6.47151,-5.68361 0.002,-3.14112 2.89951,-5.68628 6.47151,-5.68628 z"
   id="path3035" /> <path
   style="fill:#ff5b62;stroke-width:2.1852"
   d="m 187.36765,197.23555 c 6.94667,0 12.58022,4.94765 12.58022,11.04857 0,6.10091 -5.63355,11.04724 -12.58022,11.04724 -6.94666,0 -12.57868,-4.94633 -12.57868,-11.04724 0,-6.10092 5.6305,-11.04857 12.57868,-11.04857 z"
   id="path3037" /> <path
   style="fill:#ffffff;stroke-width:2.1852"
   d="M 157.58475,78.972996 H 142.2538 c -12.53921,0 -12.53921,18.888038 0,18.888038 h 15.33095 72.90506 15.3279 c 12.54073,0 12.54073,-18.888038 0,-18.888038 h -15.3279 z"
   id="path3039" /> <path
   style="fill:#fad24d;stroke-width:2.1852"
   d="m 211.77055,237.68344 c 4.40847,0 7.9835,3.13979 7.9835,7.01152 0,3.87173 -3.57352,7.01018 -7.9835,7.01018 -4.40542,0 -7.97895,-3.13578 -7.97895,-7.01018 0,-3.87308 3.57353,-7.01152 7.97895,-7.01152 z"
   id="path3041" /> <path
   style="fill:#ecf0f1;stroke-width:2.1852"
   d="m 181.79636,263.44567 c 9.60025,0 17.38487,6.83686 17.38487,15.26828 0,8.4301 -7.78462,15.26562 -17.38487,15.26562 -9.60024,0 -17.38488,-6.83419 -17.38488,-15.26562 0,-8.43142 7.78464,-15.26828 17.38488,-15.26828 z"
   id="path3043" /> <path
   style="fill:#20d0c2;stroke-width:2.1852"
   d="m 222.28163,282.81234 c 2.20575,0 3.99403,1.57055 3.99403,3.50642 0,1.93721 -1.78828,3.5051 -3.99403,3.5051 -2.20271,0 -3.98947,-1.56789 -3.98947,-3.5051 0,-1.9372 1.78524,-3.50642 3.98947,-3.50642 z"
   id="path3045" /> <path
   style="fill:#fad24d;stroke-width:2.1852"
   d="m 142.29176,367.51719 c 2.84789,0 5.15686,2.0252 5.15686,4.52769 0,2.49983 -2.30897,4.53036 -5.15686,4.53036 -2.84789,0 -5.15839,-2.03053 -5.15839,-4.53036 -0.001,-2.50249 2.30898,-4.52769 5.15839,-4.52769 z"
   id="path3047" /> <g
   id="g3053"
   transform="matrix(1.5180649,0,0,1.3332419,-151.10312,-90.731353)"> <path
   style="fill:#ffffff"
   d="m 323.517,229.187 h 108.49 c 7.453,0 7.453,12.66 0,12.66 h -108.49 c -7.453,0.001 -7.453,-12.66 0,-12.66 z"
   id="path3049" /> <path
   style="fill:#ffffff"
   d="m 113.209,219.201 h 61.248 c 4.207,0 4.207,7.839 0,7.839 h -61.248 c -4.207,0 -4.207,-7.839 0,-7.839 z"
   id="path3051" /> </g> </g>

</svg>
