<!DOCTYPE svg PUBLIC "-//W3C//DTD SVG 1.1//EN" "http://www.w3.org/Graphics/SVG/1.1/DTD/svg11.dtd">
<!-- Uploaded to: SVG Repo, www.svgrepo.com, Transformed by: SVG Repo Mixer Tools -->
<svg height="256px" width="256px" version="1.1" id="Layer_1" xmlns="http://www.w3.org/2000/svg" xmlns:xlink="http://www.w3.org/1999/xlink" viewBox="0 0 512.001 512.001" xml:space="preserve" fill="#000000">
<g id="SVGRepo_bgCarrier" stroke-width="0"/>
<g id="SVGRepo_tracerCarrier" stroke-linecap="round" stroke-linejoin="round"/>
<g id="SVGRepo_iconCarrier"> <path style="fill:#D5494F;" d="M124.189,435.287c-8.557-8.557-22.569-8.437-31.128,0.123l-0.136,0.123l-12.369-12.369l0.129-0.129 c8.559-8.559,8.623-22.499,0.064-31.058c-8.557-8.557-22.369-8.623-30.928-0.064L6.433,435.3 c-4.618,4.618-6.948,11.039-6.336,17.542s4.088,12.383,9.488,16.055l51.651,35.121c3.745,2.548,8.054,3.806,12.328,3.806 c5.654,0,11.277-2.17,15.516-6.408l35.124-35.124C132.762,457.735,132.747,443.845,124.189,435.287z"/> <path style="fill:#F5F5F5;" d="M217.603,409.312c-5.711-10.674-18.826-14.858-29.496-9.15l-5.685,2.964l-69.38-69.38l2.964-5.685 c5.71-10.671,1.604-23.868-9.065-29.578c-10.674-5.71-23.995-1.647-29.703,9.025l-40.828,76.262 c-4.555,8.515-3.051,19.056,3.778,25.883l66.329,66.329c4.215,4.215,9.851,6.392,15.53,6.392c3.522,0,7.086-0.863,10.347-2.606 l76.222-40.787C219.285,433.271,223.314,419.983,217.603,409.312z"/> <path style="fill:#D5494F;" d="M505.438,112.492L403.677,10.73c-8.25-8.25-21.262-8.848-29.923-1.029L66.95,286.642 c-4.459,4.025-6.927,9.559-7.08,15.564c-0.153,6.005,2.308,11.666,6.555,15.913l131.627,131.627 c4.116,4.116,9.612,6.497,15.416,6.497c0.187,0,0.335,0.038,0.522,0.032c6.005-0.153,11.665-2.745,15.688-7.203l276.8-306.667 C514.297,133.745,513.69,120.743,505.438,112.492z"/> <path style="fill:#C61623;" d="M124.189,435.287c-8.557-8.557-22.569-8.436-31.128,0.123l-0.136,0.123l-7.496-7.496l-55.023,55.023 l30.83,20.962c3.745,2.548,8.054,3.806,12.328,3.806c5.654,0,11.277-2.17,15.516-6.408l35.124-35.124 C132.762,457.735,132.747,443.844,124.189,435.287z"/> <path style="fill:#E6E6E6;" d="M217.603,409.312c-5.711-10.674-18.826-14.858-29.496-9.15l-5.685,2.964l-36.044-36.044 l-74.381,74.382l34.517,34.517c4.215,4.215,9.852,6.392,15.53,6.392c3.522,0,7.086-0.863,10.347-2.606l76.222-40.787 C219.285,433.271,223.314,419.983,217.603,409.312z"/> <path style="fill:#C61623;" d="M506.479,142.405c7.819-8.661,7.211-21.662-1.039-29.912l-52.235-52.235l-322.322,322.32 l67.168,67.168c4.116,4.116,9.612,6.498,15.416,6.498c0.187,0,0.335,0.038,0.522,0.032c6.005-0.153,11.665-2.745,15.688-7.203 L506.479,142.405z"/> </g>
</svg>