<?xml version="1.0" encoding="UTF-8" standalone="no"?>
<!-- Uploaded to: SVG Repo, www.svgrepo.com, Transformed by: SVG Repo Mixer Tools -->

<svg
   version="1.1"
   id="Layer_1"
   viewBox="-51.2 -51.2 598.04447 384.8881"
   xml:space="preserve"
   width="249.1852"
   height="160.37004"
   fill="#e01b24"
   stroke="#e01b24"
   stroke-width="0.00512"
   sodipodi:docname="gridrenk.svg"
   inkscape:version="1.2.2 (b0a8486541, 2022-12-01)"
   xmlns:inkscape="http://www.inkscape.org/namespaces/inkscape"
   xmlns:sodipodi="http://sodipodi.sourceforge.net/DTD/sodipodi-0.dtd"
   xmlns="http://www.w3.org/2000/svg"
   xmlns:svg="http://www.w3.org/2000/svg"><defs
   id="defs80" /><sodipodi:namedview
   id="namedview78"
   pagecolor="#ffffff"
   bordercolor="#000000"
   borderopacity="0.25"
   inkscape:showpageshadow="2"
   inkscape:pageopacity="0.0"
   inkscape:pagecheckerboard="0"
   inkscape:deskcolor="#d1d1d1"
   showgrid="false"
   inkscape:zoom="2.4375"
   inkscape:cx="58.051282"
   inkscape:cy="74.461538"
   inkscape:window-width="1366"
   inkscape:window-height="691"
   inkscape:window-x="0"
   inkscape:window-y="0"
   inkscape:window-maximized="1"
   inkscape:current-layer="SVGRepo_iconCarrier" />

<g
   id="SVGRepo_bgCarrier"
   stroke-width="0"
   transform="matrix(0.97749199,0,0,0.94801186,-1.4310935,-40.386561)" />

<g
   id="SVGRepo_tracerCarrier"
   stroke-linecap="round"
   stroke-linejoin="round"
   stroke="#3584e4"
   stroke-width="20.48"
   transform="matrix(1.097851,0,0,1.0084642,-32.242995,-47.003947)"> <path
   d="M 0,357.336 V 26 C 0,20.496 4.704,16 10.448,16 H 501.552 C 507.296,16 512,20.496 512,26 v 331.336 z"
   id="path3" />      <rect
   x="17.864"
   y="33.863998"
   style="fill:#ffffff"
   width="476.23999"
   height="305.60001"
   id="rect15" /> <rect
   x="96"
   y="229.336"
   style="fill:#c9c9c9"
   width="149.336"
   height="10.664"
   id="rect17" /> <g
   id="g27"> <rect
   x="277.328"
   y="69.335999"
   style="fill:#32bea6"
   width="138.664"
   height="42.664001"
   id="rect19" /> <rect
   x="277.328"
   y="133.336"
   style="fill:#32bea6"
   width="138.664"
   height="42.664001"
   id="rect21" /> <rect
   x="277.328"
   y="197.336"
   style="fill:#32bea6"
   width="138.664"
   height="42.664001"
   id="rect23" /> <rect
   x="277.328"
   y="261.336"
   style="fill:#32bea6"
   width="138.664"
   height="42.664001"
   id="rect25" /> </g> <g
   id="g33"> <rect
   x="96"
   y="261.336"
   style="fill:#c9c9c9"
   width="149.336"
   height="10.664"
   id="rect29" /> <rect
   x="96"
   y="293.336"
   style="fill:#c9c9c9"
   width="149.336"
   height="10.664"
   id="rect31" /> </g> <path
   style="fill:#e04f5f"
   d="m 234.664,197.336 h -128 C 100.8,197.336 96,192.536 96,186.672 V 80 c 0,-5.864 4.8,-10.664 10.664,-10.664 h 128 c 5.864,0 10.664,4.8 10.664,10.664 v 106.664 c 0.008,5.872 -4.792,10.672 -10.664,10.672 z"
   id="path35" /> <polygon
   style="fill:#ffffff"
   points="153.28,162.496 153.28,104.168 199.36,133.336 "
   id="polygon37" /> </g>

<g
   id="SVGRepo_iconCarrier"
   transform="matrix(1.1841015,0,0,1.1221839,-53.240801,-67.734852)">       <rect
   x="17.864"
   y="33.863998"
   style="fill:#ffffff"
   width="476.23999"
   height="305.60001"
   id="rect52" />      <rect
   height="18.518564"
   width="476.02545"
   id="rect10"
   x="17.547144"
   y="123.22107"
   style="fill:#ff0000;stroke-width:0.00474105" /><rect
   height="20.940615"
   width="473.82263"
   id="rect12"
   x="17.972647"
   y="72.700653"
   style="fill:#ff0000;stroke-width:0.0764652" /><rect
   height="20.940615"
   width="473.82263"
   id="rect12-6"
   x="18.868851"
   y="285.03503"
   style="fill:#ff0000;stroke-width:0.0764652" /><rect
   height="20.007124"
   width="306.40164"
   id="rect12-6-3"
   x="33.131008"
   y="-61.471413"
   transform="matrix(0.00928503,0.99995689,-0.99994827,0.01017175,0,0)"
   style="fill:#00ff66;stroke-width:0.00374378" /><rect
   height="17.095516"
   width="306.39835"
   id="rect12-6-3-5"
   x="36.18327"
   y="-199.30385"
   transform="matrix(0.00793372,0.99996853,-0.99992914,0.01190416,0,0)"
   style="fill:#00ff66;stroke-width:0.00346064" /><rect
   height="15.639777"
   width="306.39694"
   id="rect12-6-3-6"
   x="38.718979"
   y="-341.29926"
   transform="matrix(0.00725807,0.99997366,-0.99991534,0.01301219,0,0)"
   style="fill:#00ff66;stroke-width:0.00331001" /><rect
   height="16.367655"
   width="306.39764"
   id="rect12-6-3-2"
   x="40.740326"
   y="-467.47015"
   transform="matrix(0.00759591,0.99997115,-0.9999227,0.01243353,0,0)"
   style="fill:#00ff66;stroke-width:0.00338617" /><rect
   height="20.940607"
   width="476.02551"
   id="rect12-7"
   x="17.857716"
   y="230.11871"
   style="fill:#ff0000;stroke-width:0.00477401" /><rect
   height="20.940615"
   width="473.82263"
   id="rect12-5"
   x="17.50474"
   y="174.02942"
   style="fill:#ff0000;stroke-width:0.0764652" /></g>

</svg>
