<?xml version="1.0" encoding="UTF-8" standalone="no"?>
<!-- Generator: Adobe Illustrator 24.0.1, SVG Export Plug-In . SVG Version: 6.00 Build 0)  -->

<svg
   version="1.1"
   id="katman_1"
   x="0px"
   y="0px"
   viewBox="0 0 882.41364 406.26083"
   xml:space="preserve"
   sodipodi:docname="haritail.svg"
   width="882.41364"
   height="406.26083"
   inkscape:version="1.2.2 (b0a8486541, 2022-12-01)"
   xmlns:inkscape="http://www.inkscape.org/namespaces/inkscape"
   xmlns:sodipodi="http://sodipodi.sourceforge.net/DTD/sodipodi-0.dtd"
   xmlns="http://www.w3.org/2000/svg"
   xmlns:svg="http://www.w3.org/2000/svg"><defs
   id="defs339" /><sodipodi:namedview
   id="namedview337"
   pagecolor="#ffffff"
   bordercolor="#000000"
   borderopacity="0.25"
   inkscape:showpageshadow="2"
   inkscape:pageopacity="0.0"
   inkscape:pagecheckerboard="0"
   inkscape:deskcolor="#d1d1d1"
   showgrid="false"
   inkscape:zoom="0.39333333"
   inkscape:cx="280.9322"
   inkscape:cy="165.25424"
   inkscape:window-width="1366"
   inkscape:window-height="672"
   inkscape:window-x="0"
   inkscape:window-y="0"
   inkscape:window-maximized="1"
   inkscape:current-layer="katman_1" />
<style
   type="text/css"
   id="style2">
	.st0{fill:#9642E6;stroke:#444444;stroke-width:0.5;stroke-miterlimit:12;}
	.st1{fill:#E91DF4;stroke:#444444;stroke-width:0.5;stroke-miterlimit:12;}
	.st2{fill:#C72D9F;stroke:#444444;stroke-width:0.5;stroke-miterlimit:12;}
	.st3{fill:#3F2CC3;stroke:#444444;stroke-width:0.5;stroke-miterlimit:12;}
	.st4{fill:#488E7F;stroke:#444444;stroke-width:0.5;stroke-miterlimit:12;}
	.st5{fill:#6ADEFD;stroke:#444444;stroke-width:0.5;stroke-miterlimit:12;}
	.st6{fill:#1F579D;stroke:#444444;stroke-width:0.5;stroke-miterlimit:12;}
	.st7{fill:#3D3CFF;stroke:#444444;stroke-width:0.5;stroke-miterlimit:12;}
	.st8{fill:#1B9EFF;stroke:#444444;stroke-width:0.5;stroke-miterlimit:12;}
	.st9{fill:#EBFA2A;stroke:#444444;stroke-width:0.5;stroke-miterlimit:12;}
	.st10{fill:#C898E8;stroke:#444444;stroke-width:0.5;stroke-miterlimit:12;}
	.st11{fill:#97D3DD;stroke:#444444;stroke-width:0.5;stroke-miterlimit:12;}
	.st12{fill:#2E9460;stroke:#444444;stroke-width:0.5;stroke-miterlimit:12;}
	.st13{fill:#AC23C2;stroke:#444444;stroke-width:0.5;stroke-miterlimit:12;}
	.st14{fill:#31FA1F;stroke:#444444;stroke-width:0.5;stroke-miterlimit:12;}
	.st15{fill:#B996CE;stroke:#444444;stroke-width:0.5;stroke-miterlimit:12;}
	.st16{fill:#FFBDFF;stroke:#444444;stroke-width:0.5;stroke-miterlimit:12;}
	.st17{fill:#A3B269;stroke:#444444;stroke-width:0.5;stroke-miterlimit:12;}
	.st18{fill:#1CD050;stroke:#444444;stroke-width:0.5;stroke-miterlimit:12;}
	.st19{fill:#F07EC9;stroke:#444444;stroke-width:0.5;stroke-miterlimit:12;}
	.st20{fill:#17868C;stroke:#444444;stroke-width:0.5;stroke-miterlimit:12;}
	.st21{fill:#808361;stroke:#444444;stroke-width:0.5;stroke-miterlimit:12;}
	.st22{fill:#7197E1;stroke:#444444;stroke-width:0.5;stroke-miterlimit:12;}
	.st23{fill:#174D1A;stroke:#444444;stroke-width:0.5;stroke-miterlimit:12;}
	.st24{fill:#9D2373;stroke:#444444;stroke-width:0.5;stroke-miterlimit:12;}
	.st25{fill:#9AEDFC;stroke:#444444;stroke-width:0.5;stroke-miterlimit:12;}
	.st26{fill:#63E12D;stroke:#444444;stroke-width:0.5;stroke-miterlimit:12;}
	.st27{fill:#912CB7;stroke:#444444;stroke-width:0.5;stroke-miterlimit:12;}
	.st28{fill:#1DE253;stroke:#444444;stroke-width:0.5;stroke-miterlimit:12;}
	.st29{fill:#E68D80;stroke:#444444;stroke-width:0.5;stroke-miterlimit:12;}
	.st30{fill:#BD818A;stroke:#444444;stroke-width:0.5;stroke-miterlimit:12;}
	.st31{fill:#B520FF;stroke:#444444;stroke-width:0.5;stroke-miterlimit:12;}
	.st32{fill:#B76B8E;stroke:#444444;stroke-width:0.5;stroke-miterlimit:12;}
	.st33{fill:#D44528;stroke:#444444;stroke-width:0.5;stroke-miterlimit:12;}
	.st34{fill:#1CFF6B;stroke:#444444;stroke-width:0.5;stroke-miterlimit:12;}
	.st35{fill:#36592E;stroke:#444444;stroke-width:0.5;stroke-miterlimit:12;}
	.st36{fill:#174E46;stroke:#444444;stroke-width:0.5;stroke-miterlimit:12;}
	.st37{fill:#FAE263;stroke:#444444;stroke-width:0.5;stroke-miterlimit:12;}
	.st38{fill:#C96E80;stroke:#444444;stroke-width:0.5;stroke-miterlimit:12;}
	.st39{fill:#C7F29A;stroke:#444444;stroke-width:0.5;stroke-miterlimit:12;}
	.st40{fill:#89D77D;stroke:#444444;stroke-width:0.5;stroke-miterlimit:12;}
	.st41{fill:#F417FF;stroke:#444444;stroke-width:0.5;stroke-miterlimit:12;}
	.st42{fill:#955A78;stroke:#444444;stroke-width:0.5;stroke-miterlimit:12;}
	.st43{fill:#991FFB;stroke:#444444;stroke-width:0.5;stroke-miterlimit:12;}
	.st44{fill:#DE8756;stroke:#444444;stroke-width:0.5;stroke-miterlimit:12;}
	.st45{fill:#671A7E;stroke:#444444;stroke-width:0.5;stroke-miterlimit:12;}
	.st46{fill:#64E360;stroke:#444444;stroke-width:0.5;stroke-miterlimit:12;}
	.st47{fill:#D44CC6;stroke:#444444;stroke-width:0.5;stroke-miterlimit:12;}
	.st48{fill:#21199C;stroke:#444444;stroke-width:0.5;stroke-miterlimit:12;}
	.st49{fill:#81B5E3;stroke:#444444;stroke-width:0.5;stroke-miterlimit:12;}
	.st50{fill:#C9C82B;stroke:#444444;stroke-width:0.5;stroke-miterlimit:12;}
	.st51{fill:#C54DE7;stroke:#444444;stroke-width:0.5;stroke-miterlimit:12;}
	.st52{fill:#9A8267;stroke:#444444;stroke-width:0.5;stroke-miterlimit:12;}
	.st53{fill:#F5FFBA;stroke:#444444;stroke-width:0.5;stroke-miterlimit:12;}
	.st54{fill:#67666C;stroke:#444444;stroke-width:0.5;stroke-miterlimit:12;}
	.st55{fill:#D4FFDA;stroke:#444444;stroke-width:0.5;stroke-miterlimit:12;}
	.st56{fill:#47CB2F;stroke:#444444;stroke-width:0.5;stroke-miterlimit:12;}
	.st57{fill:#C6BD69;stroke:#444444;stroke-width:0.5;stroke-miterlimit:12;}
	.st58{fill:#6579CA;stroke:#444444;stroke-width:0.5;stroke-miterlimit:12;}
	.st59{fill:#FEA3FF;stroke:#444444;stroke-width:0.5;stroke-miterlimit:12;}
	.st60{fill:#2535FC;stroke:#444444;stroke-width:0.5;stroke-miterlimit:12;}
	.st61{fill:#C91A4D;stroke:#444444;stroke-width:0.5;stroke-miterlimit:12;}
	.st62{fill:#C8402E;stroke:#444444;stroke-width:0.5;stroke-miterlimit:12;}
	.st63{fill:#EBFFEF;stroke:#444444;stroke-width:0.5;stroke-miterlimit:12;}
	.st64{fill:#7C871F;stroke:#444444;stroke-width:0.5;stroke-miterlimit:12;}
	.st65{fill:#60812F;stroke:#444444;stroke-width:0.5;stroke-miterlimit:12;}
	.st66{fill:#E6343E;stroke:#444444;stroke-width:0.5;stroke-miterlimit:12;}
	.st67{fill:#512CC2;stroke:#444444;stroke-width:0.5;stroke-miterlimit:12;}
	.st68{fill:#9AF9FF;stroke:#444444;stroke-width:0.5;stroke-miterlimit:12;}
	.st69{fill:#31DB37;stroke:#444444;stroke-width:0.5;stroke-miterlimit:12;}
	.st70{fill:#CEF629;stroke:#444444;stroke-width:0.5;stroke-miterlimit:12;}
	.st71{fill:#C84B3C;stroke:#444444;stroke-width:0.5;stroke-miterlimit:12;}
	.st72{fill:#FF99DD;stroke:#444444;stroke-width:0.5;stroke-miterlimit:12;}
	.st73{fill:#5E9AFF;stroke:#444444;stroke-width:0.5;stroke-miterlimit:12;}
	.st74{fill:#DDAA4C;stroke:#444444;stroke-width:0.5;stroke-miterlimit:12;}
	.st75{fill:#BCB145;stroke:#444444;stroke-width:0.5;stroke-miterlimit:12;}
	.st76{fill:#FA93F6;stroke:#444444;stroke-width:0.5;stroke-miterlimit:12;}
	.st77{fill:#1B9462;stroke:#444444;stroke-width:0.5;stroke-miterlimit:12;}
	.st78{fill:#5B4FB4;stroke:#444444;stroke-width:0.5;stroke-miterlimit:12;}
	.st79{fill:#9FC7F4;stroke:#444444;stroke-width:0.5;stroke-miterlimit:12;}
	.st80{fill:#585564;stroke:#444444;stroke-width:0.5;stroke-miterlimit:12;}
	.st81{fill:#FF9E28;stroke:#444444;stroke-width:0.5;stroke-miterlimit:12;}
	.st82{font-family:'Arial-BoldMT';}
	.st83{font-size:11px;}
	.st84{font-size:10px;}
	.st85{font-size:10.9995px;}
	.st86{font-size:9.9996px;}
	.st87{font-size:9px;}
	.st88{font-size:12px;}
	.st89{fill:none;}
	.st90{font-size:14px;}
</style>
<g
   id="g332"
   transform="matrix(0.99998572,0,0,1.0480519,-9.9402564,-110.14142)">
	<path
   class="st0"
   d="m 502.2,191.2 5.3,-1.7 7.2,-5.6 6.1,-10.1 4.9,-0.2 5.8,1.9 4.9,3.6 3.3,0.2 4.4,-6.3 4.1,0.7 0.2,3.6 5.1,4.4 3.7,-0.7 5.9,1.5 -1.8,6.7 1.3,5.4 -0.5,8.6 4.5,4.5 -6.5,2.9 -0.1,4 -4.5,0.7 -4,4.1 -5,-2.2 -2.7,-4.6 -2.5,-6.3 h -5.9 l -10.4,-6.6 -9,0.3 -14,-5.6 z"
   id="path4" />
	<path
   class="st1"
   d="m 520.8,173.8 -6.1,10.1 -7.2,5.6 -5.3,1.7 -2.4,-2.3 -9.1,2.3 -4.8,-3.2 -4.2,-4.4 -1.7,1.2 -1.9,5.1 -5.3,3.3 -3.4,-1.5 -10.8,0.2 -2.9,-3 -7.9,-5.5 -2.7,0.6 -13.5,-3.5 -4.9,0.1 -1.8,-6.6 -2.3,-3.9 2,-2.9 7.2,-4 1.7,2.4 6.8,4.7 9,-1.7 -1.7,-7.8 -0.7,-9 1.6,-4 5.2,0.3 11.6,-4.7 2.6,-1.7 3.9,1.8 3.3,4.2 1,9.6 4.7,5.8 4.4,2.1 0.4,1.7 4.7,2.7 5.1,-3.5 1.9,-4.6 9.4,1 6.6,3 2.2,2.9 0.5,3.6 z"
   id="path6" />
	<path
   class="st2"
   d="m 572.4,422.3 -9.3,4.9 -7.6,2 -5.9,3.7 -4.1,-3.4 -7.9,-3.8 -1.4,1 -6,-6.1 -6.8,-2.8 -1.6,-3.2 -3,0.4 -0.3,3.9 -6.8,4.1 -2.5,2.5 -2.9,-3 -6.8,-4.5 5.7,-8.1 2.3,-5.2 3.7,-5.2 5.4,-2.9 2.1,-3 2.2,1.3 1.5,5.1 3.6,1.1 4,-4.7 14.2,-5.1 5.7,-0.6 1.9,-1.4 0.1,-6.1 10,-1.5 5.4,1.8 3.8,3 -3,0.7 -3.8,5.1 -1.8,5 1.8,10.9 2.5,1.9 2.5,-0.5 -0.3,3.4 2,1.9 z"
   id="path8" />
	<path
   class="st3"
   d="m 377.5,466.3 -0.4,0.5 0.2,-0.3 z"
   id="path10" />
	<path
   class="st4"
   d="m 205,175.4 11.9,1 6,-3.7 6.8,2.5 -1.8,4.4 0.6,3 3.2,0.6 -1.2,5.7 -6.3,-1.1 0.6,2.3 -2.9,3 -2.1,8.6 -1.8,3.6 -8.4,3.4 -3,0.2 -5.9,-2.4 -11.2,3.2 -5,-0.8 0.5,-2.1 0.2,-5.2 3.3,-2.1 2.5,2.2 8.5,-1.6 7.4,0.8 0.3,-2.4 H 200 l -4.2,-1.9 h -10.4 l -3.2,0.7 -4.2,-6.8 8.9,-7.4 2.2,0.3 3.3,4.8 2.8,1.1 1.2,-2.8 7.9,-3.9 1.3,-2.9 z"
   id="path12" />
	<path
   class="st5"
   d="m 106.6,198.9 4.1,1.5 -0.7,1.6 -4.9,2 -2.9,-1.7 -0.3,-2.2 z m -43.3,84.4 -2.3,-5.6 -4.9,-1.1 9.7,-6.6 -0.5,-2 5.7,-2.7 0.9,-5.1 -1.9,-0.7 -10.2,1.3 0.2,-4.8 1.8,-4.4 5.8,0.5 8.9,-4.4 4.7,-0.2 6.5,2 7.5,-3.7 2.4,-6.7 -1.4,-2 2.7,-7.1 -3.3,-3.3 6.7,-4.7 0.5,-3.1 9.6,0.2 4.4,-3.6 -4.1,-0.6 -4.3,-6.6 3.4,-1.8 9.1,2.5 2.7,1.8 -6,4 1.7,2 7.5,-1.4 4.2,0.1 -5.1,5.6 2,4.4 -1.8,4 2.3,6.2 3,3.3 1.3,6.1 11.2,9.2 3.5,0.6 2.2,-1.5 1.4,6.1 2.9,2.8 5.9,0.1 2.3,1.9 -2.9,6.8 -0.8,4.1 -4,6.2 -6.6,2.7 -0.6,4.8 -3.9,-0.8 -4.2,1.9 -7.1,0.5 -3,2.4 -5.9,0.1 -2.1,-5.3 -4.4,-5.5 -5.1,0.1 2.1,-4.4 -1,-1.9 -9.6,-1 -6.9,-3.9 -3.5,1.6 -2.9,-4.6 -2.5,-0.6 -11.1,5.8 -2.8,3.4 z"
   id="path14" />
	<path
   class="st6"
   d="m 33.4,241.6 1.8,0.7 -0.6,2.9 -3.9,-2.4 z m 36.5,-48.5 v -0.2 l 6.3,1.1 -0.3,4.7 1.1,4.3 -12.7,5.3 -3.3,5.4 -8.1,6.3 -4.5,2.1 1.2,2.8 -6.8,4.7 -3.3,0.3 5.2,-7.8 0.6,-3.6 -2.2,-4 5.1,-2 5.2,-4 7.5,-3.6 3.3,0.2 2.9,-2.9 4.4,-1.9 -1.9,-3.5 z m -47.3,26.4 6.9,-1.4 2.5,1.3 -0.6,3.7 2.1,0.8 -11.1,2 -4.4,-2.1 z m 37.3,41.3 -9.5,1 -4.4,2 -2.9,-0.6 -6.5,1.3 -3.4,-1.2 2.2,-7 1.8,-1.5 1,-4.6 -0.8,-2.2 1.4,-11.7 2.3,-3.7 5.1,-0.2 4,-4.9 1,-4.9 4.1,-0.8 11.1,-10.3 12.2,1.5 3.8,-3.3 9.2,0.4 1.1,5.1 4.9,3.2 5.3,0.7 -0.5,3.1 -6.7,4.7 3.3,3.3 -2.7,7.1 1.4,2 -2.4,6.7 -7.5,3.7 -6.5,-2 -4.7,0.2 -8.9,4.4 -5.8,-0.5 -1.9,4.2 z"
   id="path16" />
	<path
   class="st7"
   d="m 490.7,191.2 9.1,-2.3 2.4,2.3 -0.2,3.3 14,5.6 9,-0.3 10.4,6.6 h 5.9 l 2.5,6.3 -4.4,8.6 -7.5,3.7 -11.4,1.5 -7.2,2.5 -5.1,-0.4 -3.2,1.7 -2.5,9.1 -7.8,4.2 -7.2,0.7 -10.2,2.4 -2.3,-3.6 0.2,-5.6 -1.9,-1.7 -7.7,2.2 -7.6,-0.2 -6.7,-5.6 2.9,-5.3 4.7,-2 6.5,-11.6 7.2,0.4 5.7,2.8 7.5,-5 0.2,-2.9 3.5,-1.1 3.9,-9.2 -3.3,-3.8 z"
   id="path18" />
	<path
   class="st8"
   d="m 602.2,231.8 -1.7,0.8 -5.8,0.5 -9.2,-3.1 -4.5,1.4 -8.2,-4.6 -6.2,-19.3 -4.5,-4.5 0.5,-8.6 -1.3,-5.4 1.8,-6.7 7.6,0.3 2,1.5 9.1,-1.1 4.5,-3.1 3.1,1 2.7,-3 6.1,-2.8 4.9,-0.4 4.5,-2 -0.7,7.2 0.8,8.2 1,2.2 -5.2,1 -4.8,4.6 0.2,3.3 -2.4,3.8 0.1,5.2 1.3,1.3 5.3,1.1 3.6,2.2 -0.1,2.1 -6.5,5.3 0.4,5.9 z"
   id="path20" />
	<path
   class="st9"
   d="m 594.7,233.2 5.8,-0.5 1.7,-0.8 5.3,1.5 8.4,3.9 1.6,1.7 5.4,1.8 10.4,-0.8 7.2,-3 3.3,-4.9 7,-1.5 3.7,-2.8 7.3,1 -1.2,6.5 2.5,1.1 7.6,-0.5 3.3,3.7 2,5.3 5.3,3.3 -2.1,5.6 0.2,3.7 -2.9,-0.7 -13.9,0.2 -2.6,-0.8 -8.5,3.7 -6.1,-1.9 -6.5,4.7 -10.2,1.8 -6.9,-0.5 -5.9,1.4 -6.6,2.7 -1.8,2.8 -6.5,4 0.7,4.7 -3.3,1.9 -1.9,4.2 1.5,6.9 -1.4,0.4 -1.1,0.6 -3.1,-3.3 -4.1,-1.7 -4.2,0.1 -3.7,-1.6 1.2,-3.6 -1.8,-10.3 3.3,-4.4 -4.3,-3.6 0.5,-10.3 2.9,-5.1 3.3,-1.3 -0.6,-2.7 -6.2,1.3 0.9,-6.7 1.9,-1.4 4.3,1.7 4.3,-2.2 4.1,0.1 z"
   id="path22" />
	<path
   class="st10"
   d="m 676.2,256.7 2.9,0.7 4,0.2 6.3,-4 6.1,4.5 6.2,1.4 4.4,5.3 -1.1,3.7 1.8,5.7 3.5,4.8 0.2,4.9 -2.8,4.1 -1,4.8 5.1,8.2 -15.4,9.6 -11.6,-0.1 -6.8,2.5 -0.1,3.3 -2.7,3.1 -5.3,0.6 -1.1,-5.3 -2.6,-3.4 1.6,-6.4 2.9,0.6 1.2,-6.1 -3.9,-5.1 -1.4,-4.4 0.6,-4.1 3.6,-7.2 -1.6,-2.8 -5,2.7 -9.9,6.4 0.9,-3.9 -1.3,-4.2 0.6,-5.9 2.6,-2.1 3.8,-0.4 0.6,-2.1 4.1,-1.1 3.7,-5.1 3.3,0.1 z"
   id="path24" />
	<path
   class="st11"
   d="m 499.6,418.3 6.8,4.5 2.9,3 -2.4,4.8 -1.3,7.4 v 5.1 l -1.3,2.2 2.7,9.8 2.3,0.4 1.5,5 -7.7,0.4 -2.2,1.7 -3.7,-1.6 -0.6,3.6 0.3,10.1 h -3.7 l -0.3,2.1 -3.3,0.5 -2.5,7.8 -6.9,-3.1 -0.7,-3 -3.2,0.6 2.9,-5.9 -1.4,-3.9 -7.2,-11 -0.6,-2.2 3.3,-3.2 2.5,-4.5 5.3,-4.8 6.9,-4.7 1.1,-3.1 -1.5,-8.4 -6.2,-6.6 -3.4,0.3 -2.3,2.5 -0.8,-3.6 4.5,-5.1 2,0.6 10.1,-0.1 3.3,2.7 z"
   id="path26" />
	<path
   class="st12"
   d="m 481.5,416.2 -2,-0.6 -4.5,5.1 0.8,3.6 -5.7,5.8 -5.6,0.8 -5,3.7 4.2,-0.7 -1.4,6.2 -4,1.2 -1.5,-1.4 -7.5,4.2 -14.3,-8.5 -5.1,-1.7 6.1,-4.1 -0.9,-9.7 1.3,-3.7 -1.8,-1.8 -5,-1.4 -1.4,-9.2 -2.2,-1.7 -3.3,-6.6 0.1,-4 3.1,-5.6 -1.8,-7.3 1.4,-2.2 4.6,0.8 4.5,-0.8 5.8,-6.2 7.9,0.4 9.8,3.1 2.4,-1.3 -1.3,-10.6 16.5,-12.2 5.3,-9.2 1.8,-5 5.3,-3.7 3.7,-1.2 2.4,1 5,7.6 -3.7,6.1 -3.5,18 1.9,10.4 -3.5,3.8 -7.7,0.5 -2,3.6 -5.3,13.7 0.2,4.5 1.5,4.2 3.9,0.3 2.5,5.1 z"
   id="path28" />
	<path
   class="st13"
   d="m 387.3,249.9 -0.1,-3 2,-3.9 -0.6,-4.9 -3,-2.1 -2.3,-6.8 5.1,-2.7 2.9,-6.7 -2.7,-6.2 -2.2,-10.9 1.4,-4.6 -2.2,-3.6 10,-3.6 1,-2.9 -3.2,-4 3.3,-6.9 3,-3.1 2.6,-5.4 2.2,-0.6 1.2,1.5 7.4,1.1 2.4,2.1 4.9,1.4 2.1,-3.9 2.3,3.9 1.8,6.6 4.9,-0.1 -1.6,6.1 -0.6,9.7 3.5,7.3 8.7,2 5.6,2.4 1.2,2.5 -0.8,6.4 -3.7,5.9 -0.7,6.9 -6,1.1 -0.4,6.7 -4.5,3.8 -5.8,-0.7 -6.5,3.4 -8,1.3 -6.8,-1.1 -8.4,3.4 -6.9,1 z"
   id="path30" />
	<path
   class="st14"
   d="m 383.3,229.2 2.3,6.8 3,2.1 0.6,4.9 -2,3.9 0.1,3 0.6,2.3 0.4,2.4 -7.1,6.9 -1.9,5.9 -3,5 -7.2,5.9 -4.9,8.8 -3.6,-7 -1.8,-8.2 -4.8,-6.6 -1.1,-4.9 2.4,-9.9 1.9,-5 8.4,-2 0.2,-10.7 1.1,-8.1 12.1,3.8 z"
   id="path32" />
	<path
   class="st15"
   d="m 393.5,360.4 14.7,-22.6 9,-1.1 5.5,3.1 4.7,-1.8 3.3,8.7 2.7,2.9 7.3,-0.1 1.3,3.8 -0.1,5 1.5,4 -2.1,1.4 -0.9,6.6 -5.8,6.2 -4.5,0.8 -4.6,-0.8 -1.4,2.2 1.8,7.3 -3.1,5.6 -0.1,4 -3.2,-0.7 -6.1,2.9 -3.4,0.2 -5.7,-7.8 0.2,-4.4 2.8,-5.7 -0.6,-3.4 -6.7,-9 -4.3,-2 z"
   id="path34" />
	<path
   class="st16"
   d="m 408.1,337.8 -14.7,22.6 -3.3,-0.4 -10.5,3.2 -10.6,0.4 -7.4,1.1 -4.9,-5.5 -1,-4.6 -2.8,-5.6 0.3,-4.7 4.3,-14.2 4.4,-6.6 11.5,-4.4 4.1,0.1 5.4,-4.6 0.1,-3.4 -1.8,-4.8 1.4,-3.9 5.3,1.9 2.4,3.9 6.1,-1.7 -0.5,2.3 1.5,5.2 -2.2,5.6 0.7,2.9 4.3,1.9 h 2.9 l -0.8,8.4 z"
   id="path36" />
	<path
   class="st17"
   d="m 396.2,306.7 -6.1,1.7 -2.4,-3.9 -5.3,-1.9 0.3,-1.9 -8.9,-4.2 -8.7,-5.8 -1,-3.3 4.9,-8.8 7.2,-5.9 3,-5 1.9,-5.9 7.1,-6.9 4.1,1.7 4.6,4.7 5.6,0.6 1.8,3.7 6.2,7.5 4.2,1.6 3.2,4.4 -6.3,0.4 1.8,8.1 -0.5,3.7 2.4,4.7 -1.8,2.3 -10.5,5.3 -1,3.1 0.8,3.9 -1.8,0.5 z"
   id="path38" />
	<path
   class="st18"
   d="m 388.4,254.7 -0.4,-2.4 -0.6,-2.3 2.5,-1.3 6.9,-1 8.4,-3.4 6.8,1.1 8,-1.3 6.5,-3.4 5.8,0.7 4.5,-3.8 0.4,-6.7 6,-1.1 1.6,1.9 6.5,0.5 6.7,5.6 7.6,0.2 7.7,-2.2 1.9,1.7 -0.2,5.6 2.3,3.6 1.4,4.2 4.5,7.1 -1.2,4.8 -6.8,6.6 -5.1,8.3 -3.6,3.6 -3.6,5.4 -14.2,9.9 -6.9,4.1 -10.2,-1.4 -2.6,-8.5 -3.6,-2.2 -1.6,-4 -5.6,-5.8 -3.2,-4.4 -4.2,-1.6 -6.2,-7.5 -1.8,-3.7 -5.6,-0.6 -4.6,-4.7 z"
   id="path40" />
	<path
   class="st19"
   d="m 451.2,232.3 -6.5,-0.5 -1.6,-1.9 0.7,-6.9 3.7,-5.9 0.8,-6.4 -1.2,-2.5 -5.6,-2.4 -8.7,-2 -3.5,-7.3 0.6,-9.7 1.6,-6.1 13.5,3.5 2.7,-0.6 7.9,5.5 2.9,3 10.8,-0.2 3.4,1.5 5.3,-3.3 1.9,-5.1 1.7,-1.2 4.2,4.4 4.8,3.2 -0.8,3.4 3.3,3.8 -3.9,9.2 -3.5,1.1 -0.2,2.9 -7.5,5 -5.7,-2.8 -7.2,-0.4 -6.5,11.6 -4.7,2 z"
   id="path42" />
	<path
   class="st20"
   d="m 725,310.5 -2.5,0.7 -2.5,1 -2.1,-1.8 -0.4,-4.7 -5.8,-4.8 -5.1,-8.2 1,-4.8 2.8,-4.1 -0.2,-4.9 -3.5,-4.8 -1.8,-5.7 1.1,-3.7 7,-1.9 3.7,0.5 6.5,4.8 4.1,4.4 7.8,1.1 3.3,-2.9 5.4,-1.5 4.9,-4.7 1.2,-7.8 5.7,-3.7 4.2,-1.1 3.8,6.5 7.1,7.3 0.9,13.7 -6.5,4.8 h -7.4 l -7.3,4 -1.1,3.7 -4,0.3 -0.6,2.1 2.2,4.7 -4.1,5 -3,2.1 -7.7,0.2 z"
   id="path44" />
	<path
   class="st21"
   d="m 720.1,312.2 2.5,-1 2.5,-0.7 4,1.2 3.6,10.8 0.8,6.9 -4.5,8.6 -5.1,1.9 -1.3,2.9 0.7,3.7 5.3,4.1 8.5,2.7 5.4,5 -12.7,11.1 -6.8,2.1 -5.2,-2.7 -3.8,-6.5 -3.6,-3.8 -2.1,-0.2 -2.2,-5.5 4,-5.4 2.9,-10 -1.1,-9.6 1,-8.8 0.9,-1.5 6.8,-3.5 z"
   id="path46" />
	<path
   class="st22"
   d="m 810.7,209.6 -13.1,5.7 -1.2,4.4 -2.5,-0.7 -8.9,0.8 -13.1,5.4 -8.8,-0.7 -4.1,-5.8 -5.1,-3.3 -6.7,-1.4 -4.1,-4.4 1,-3.3 6.2,-2.8 8.7,-6.8 -1.8,-5.7 0.6,-4.1 10.1,-2.7 0.7,-15.9 4.9,-3.4 20.2,-12.1 1.5,4.8 6.7,2.7 5.9,10.1 1.5,5.9 -2.3,9 -3.4,4.1 3,2.3 -0.9,4.5 4.1,4.2 2.7,5.4 -2.8,2.1 z"
   id="path48" />
	<path
   class="st23"
   d="m 796.3,219.7 1.2,-4.4 13.1,-5.7 11.5,3.7 5.4,0.2 9.6,-3.3 3.2,0.1 6.6,2.8 5.3,5.2 5.7,3.8 4,3.8 2.7,4.6 -11.6,-5.9 -4.2,4.6 0.4,3.3 -2.6,-0.7 -7.7,2.9 -6.9,-0.6 -8.5,1 -0.8,-1.6 -7.1,-1.7 -2.7,-3.6 -6.2,-1.8 -5.4,3.9 -2.4,-1 z"
   id="path50" />
	<path
   class="st24"
   d="m 252.3,180.9 11.9,-0.3 5,-3.3 1.7,1.6 7.3,3.9 10.6,1.1 -0.9,5.1 -2.2,2.5 -9.6,1.7 -2.2,1.7 -1.9,7.1 -3.4,2.7 -4.2,0.3 -4.9,-2.2 -7.1,0.1 -3.6,-1.4 0.3,-8.1 -1,-3.3 4.1,-5.7 z"
   id="path52" />
	<path
   class="st25"
   d="m 310.1,167.3 -3.9,5.2 -2.2,7.8 -0.1,5.2 -9.3,-0.4 -5.8,-1.2 -10.6,-1.1 -7.3,-3.9 -1.7,-1.6 2.5,-3 0.2,-6.6 11.1,-4.6 9.2,-6.1 7.3,-4 4.1,-1.4 5,3.7 2.4,7 z"
   id="path54" />
	<path
   class="st26"
   d="m 304,185.4 0.1,-5.2 2.2,-7.8 3.9,-5.2 4.7,0.4 4.5,-1.3 5.3,-4.4 2,-4.2 2.4,-0.6 4.1,-4 1.4,1.7 5.8,-1.5 3.1,2.3 2.5,8 -4.3,1 -4.2,5 0.5,8.2 4.7,1.4 1.4,2.1 -1.9,4.8 -4.1,2.3 -4.2,-0.5 -3.7,4.8 -5.2,4.1 -4.5,2.1 -1.4,-4.7 -9.3,-4.8 0.3,-3.1 z"
   id="path56" />
	<path
   class="st27"
   d="m 184.9,206.7 -0.5,2.1 -2.7,-0.6 -2.9,2.9 -2.8,0.4 -6.5,-3.3 -4.4,-0.7 -0.2,6.3 -2.8,-0.4 -6.1,-3.3 0.9,-1.8 8.7,-4.9 13,-0.6 4.9,-2.2 1.5,1.1 z"
   id="path58" />
	<path
   class="st28"
   d="m 252.3,180.9 0.2,3.5 -4.1,5.7 1,3.3 -0.3,8.1 -2.8,2.1 -0.2,5.4 -5.9,1.1 -4.4,7.2 2,4.8 -0.9,2.1 -5.6,-0.7 -3,-3.3 -5.3,-0.4 -6.1,1.5 -3.8,-1.4 -3.3,-3.4 -2.6,-5 -0.4,-1.3 -0.2,-1.3 3,-0.2 8.4,-3.4 1.8,-3.6 2.1,-8.6 2.9,-3 -0.6,-2.3 6.3,1.1 1.2,-5.7 -3.2,-0.6 -0.6,-3 1.8,-4.4 11.6,3.2 2.1,1.8 z"
   id="path60" />
	<path
   class="st29"
   d="m 319.4,203.7 0.7,-3.1 0.2,-1.7 4.5,-2.1 5.2,-4.1 3.7,-4.8 4.2,0.5 4.1,-2.3 1.9,-4.8 1.6,1.8 5.6,0.7 7.6,5.1 6.2,-3.4 3.3,-0.6 7,-3.8 2.6,2 -2.9,5 1.7,2.8 5.4,3.3 3.6,0.4 2.2,3.6 -1.4,4.6 2.2,10.9 2.7,6.2 -2.9,6.7 -5.1,2.7 -4.1,-0.4 -12.1,-3.8 -8.7,-3.2 -2.3,3.4 -3.2,0.3 -2.9,-2.2 -1.4,-3.5 -5.7,-4 -3.7,-5.4 -12.7,-6.1 z"
   id="path62" />
	<path
   class="st30"
   d="m 320.3,198.9 -0.2,1.7 -0.7,3.1 -2.8,1.9 -0.2,3.1 1.7,4.7 -3.6,5.3 -3.6,1.8 -6.1,-1 -3.7,1.9 -11.9,3.4 H 282 l -4,1.5 -5,-1.5 -1.4,-1.6 -7.4,0.6 -7.9,-3.9 -2.9,9.8 -3.7,2 -2.8,3.6 -2.9,-0.5 -2.6,-1.1 -4.1,-7 -0.6,-2.5 0.9,-2.1 -2,-4.8 4.4,-7.2 5.9,-1.1 0.2,-5.4 2.8,-2.1 3.6,1.4 7.1,-0.1 4.9,2.2 4.2,-0.3 3.4,-2.7 1.9,-7.1 2.2,-1.7 9.6,-1.7 2.2,-2.5 0.9,-5.1 5.8,1.2 9.3,0.4 5.9,1 -0.3,3.1 9.3,4.8 z"
   id="path64" />
	<path
   class="st31"
   d="m 69.9,192.9 v 0.2 l -0.6,3.6 -7.6,0.6 -4.7,2 -2.5,-1.4 -6.3,0.6 -9.9,-1.4 -1.4,-7.3 4.6,-1.6 3.7,-4.4 0.8,-3 6.1,-3.4 -1.1,-9.2 1.2,-7.6 2.7,-0.1 6.7,-4.9 2.2,1.5 2.2,-2.7 -0.8,-13.8 -0.9,1.2 -4.6,-3.7 0.6,-1.5 -6,-2.7 0.4,-4.5 1.9,-1.5 6.5,0.1 1.4,-5.9 3.5,-2.1 4.8,0.8 4.4,-0.5 1.6,12.4 0.1,5.6 -1.4,5.6 -5.3,10.9 1.1,2.8 0.2,9.1 -3.3,6.1 -2.6,7.4 v 4.8 z"
   id="path66" />
	<path
   class="st32"
   d="m 241.4,233.7 2.6,1.1 2.9,0.5 1.8,2.5 0.6,4.7 2.9,0.2 4.2,-1.7 4.8,1.5 2.5,-1.9 6.2,0.2 1.8,1.9 13.1,0.2 2.3,7.8 2.8,1 1.5,3.7 -1.8,2 2.4,9.1 2.2,2 1.9,5.2 -0.5,8.5 2.6,4.4 -2,2.4 -6.2,3.5 -1.2,4.2 -6.1,0.2 -5.2,-0.6 -5.8,0.5 -3.3,-2.7 -2.2,-5.1 -3,-3.5 -13.4,7.1 -4.1,-3.4 -4.5,4 -6.7,3 -3.4,-2.3 -1.6,-3.1 -2.8,-1.7 -0.7,-3.7 -4.3,-6.2 -1.5,-8 -6.4,-7.8 4.6,-6.2 0.6,-5.9 4.1,-3.9 4.6,-0.8 3.9,-4.2 1.5,-5.9 3.7,-2.8 z"
   id="path68" />
	<path
   class="st33"
   d="m 282.8,297 6.1,-0.2 1.2,-4.2 3.9,2.1 7.9,5.9 6.9,-1.6 8.8,3.8 5.5,-3.4 3.3,1.4 8.3,-7.1 6.6,3.1 2.4,-6.9 h 1.9 l 9.6,5.9 2.4,5.6 -0.3,13.1 4.5,8.9 -4.4,6.6 -4.3,14.2 -0.3,4.7 2.8,5.6 1,4.6 4.9,5.5 7.4,-1.1 10.6,-0.4 10.5,-3.2 3.3,0.4 2.2,5.3 4.3,2 6.7,9 0.6,3.4 -2.8,5.7 -0.2,4.4 5.7,7.8 -0.5,1.8 -6.6,4.2 -6.5,2.9 -2.8,2.8 -4.3,-7.5 -11.7,-12.5 -1.3,-7.4 -6.4,-1 -5.6,6.3 -4.7,1.7 -13.9,1.4 -4.3,1.7 -7.8,8.8 -9.9,13.4 -0.9,5.8 5.5,1.6 0.6,3.3 -8,8.7 -5.2,3.9 0.3,-3.9 -1.7,-5.3 -5.5,-1.4 0.9,-5.9 -3.3,-1.7 -5.7,-5.2 -4.3,-5.4 -9.9,-7.6 -11.7,-2.7 -6.5,-1 -3.7,-3.9 1.8,-6.7 -1.7,-5.9 3.5,-2.3 2.2,-5.7 -1,-9.1 1,-3.8 7.6,-3.8 0.3,-1.9 -8.8,-7.9 -6.2,-6.7 -1.2,-4.2 8,-5.2 7.5,-8.7 0.7,-6.7 4.9,-8.4 -1.8,-4.2 z"
   id="path70" />
	<path
   class="st34"
   d="m 206.6,208.9 0.2,1.3 0.4,1.3 -4.2,2.9 -2.3,6.3 1.3,4.8 -5.3,5.9 -1.4,8.6 3.3,4.5 0.6,3 -4.7,0.1 -5.5,0.6 -4.5,-2 -2.3,1.5 -3.9,10.2 -2.2,1.5 -1.5,6.5 -2.5,1.5 -8.2,-1.3 -1.7,-1.4 -2.3,-1.9 -5.9,-0.1 -2.9,-2.8 -1.4,-6.1 -2.2,1.5 -3.5,-0.6 -11.2,-9.2 -1.3,-6.1 -3,-3.3 -2.3,-6.2 1.8,-4 -2,-4.4 5.1,-5.6 12.2,0.6 6.5,2.3 6,-1.9 8,2.7 4.8,-0.4 1.2,-3 2.7,-0.3 -3.6,-2.9 -3.8,0.7 0.2,-6.3 4.4,0.7 6.5,3.3 2.8,-0.4 2.9,-2.9 2.7,0.6 5,0.8 11.2,-3.2 z"
   id="path72" />
	<path
   class="st35"
   d="m 134.3,149.5 -2.1,2.7 h -0.1 l -15.1,0.8 -9.1,1.9 -4,6.1 -5.4,2.3 -6.4,-6.3 -12.1,-0.1 -6.6,1 -1.1,-2.8 5.3,-10.9 1.4,-5.6 -0.1,-5.6 -1.6,-12.4 4.4,-1 3.9,-4.2 6.5,1.4 4.4,-1.7 5.8,7.3 5.2,4.6 2.9,-2.9 4.9,-0.5 2.7,1.6 1,-2.9 8.9,1.8 0.9,4.8 h -2.9 l -0.5,3.8 4.5,8.7 -0.3,1.8 z"
   id="path74" />
	<path
   class="st36"
   d="m 132.1,152.2 v 0 l 2.2,-2.7 7.6,5.7 9.2,4.7 13,7 8.6,2.2 -1.3,3.8 2.1,-2.3 4.5,-1.6 16.6,4.2 10.5,2 0.5,4.2 -1.3,2.9 -7.9,3.9 -1.2,2.8 -2.8,-1.1 -3.3,-4.8 -2.2,-0.3 -8.9,7.4 -4.6,-2.5 -4.9,-4 -0.7,-3 2.5,-2.4 0.3,-2.9 -4,6.9 -1.8,-0.3 -5.3,2.3 -3.3,-1.2 -6.5,-0.2 -0.7,-5.2 -1.6,4.4 -3.3,-2.7 -9.6,-3.5 h -2.6 l -0.7,-7.8 2.3,-8.1 z"
   id="path76" />
	<path
   class="st37"
   d="m 324.8,451.5 -5.6,-5.5 -3.4,-8.2 5.2,-3.9 8,-8.7 -0.6,-3.3 -5.5,-1.6 0.9,-5.8 9.9,-13.4 7.8,-8.8 4.3,-1.7 13.9,-1.4 4.7,-1.7 5.6,-6.3 6.4,1 1.3,7.4 11.7,12.5 4.3,7.5 -8.4,2.3 -4.4,3.4 -6.1,1.7 -5.4,-0.1 -3.6,1.5 -7.7,1.1 -7.9,5.9 -1.5,4.2 -2.8,-1.8 -5.9,2.3 2.9,7.6 5.4,3.1 3.3,3.4 -1.2,1.6 -4.8,-1.2 -2.3,5.1 -4.3,0.3 -5.4,1.8 z"
   id="path78" />
	<path
   class="st38"
   d="m 315.8,437.8 3.4,8.2 5.6,5.5 -0.2,9.8 -3.6,10.2 -2.7,-0.5 -6.8,-4.4 -3.8,-4.4 -0.2,-2 -3.9,-4.1 -4.1,-7.5 -3.5,-3.3 -9.6,-2.9 -3.7,-3.1 -15.1,-7.2 -3,-2.8 -18.4,-3.1 -7.6,0.2 -4.1,-2.5 -4,3 -1.5,3.3 -0.8,9.4 0.4,5.3 -2.3,2.1 -2.2,5.1 2,3.5 -5.8,7.8 0.1,-2.4 -6.6,-3.7 -4.5,0.4 -0.7,2.5 -7.3,1.9 h -3.6 l -8.2,5.1 1.8,-2 h -3.2 l -1.7,1.9 -3.1,-4.9 -4.9,-0.4 -3.7,-3.5 -2.6,1.8 -4.3,-3.6 2.2,-1.7 2.9,-8 5.4,-0.8 0.2,-3.2 4.5,-3.5 0.4,-6.7 5.4,-11.5 2.6,-0.7 4.4,-6.1 0.9,-4.4 2.6,-3.4 8.4,-4 9.7,-3.2 2.7,0.5 3.8,4 15.8,0.1 3.7,-5.4 3.3,-2.8 4,1.7 7.2,-1.9 4.5,-2.3 2.5,0.4 3.7,3.9 6.5,1 11.7,2.7 9.9,7.6 4.3,5.4 5.7,5.2 3.3,1.7 -0.9,5.9 5.5,1.4 1.7,5.3 z"
   id="path80" />
	<path
   class="st39"
   d="m 205.2,371.7 -4.1,-0.4 -3.7,1.2 -1.9,-3.7 -6.1,-2 0.2,-5.9 16.2,-11.7 0.7,-5.3 -5.7,-10 -6.2,-1.7 2.7,-7.4 2.8,-2.7 1,-4.6 9.6,-5.3 3.3,-4.6 4.3,-11.3 5.3,-2.2 3.3,-4.8 2.8,1.7 1.6,3.1 3.4,2.3 6.7,-3 4.5,-4 4.1,3.4 13.4,-7.1 3,3.5 2.2,5.1 3.3,2.7 5.8,-0.5 5.2,0.6 -1.1,5.3 1.8,4.2 -4.9,8.4 -0.7,6.7 -7.5,8.7 -8,5.2 -6.8,-5.5 -8.9,7.8 -5.7,5.7 -5.4,1.5 -6.1,3.2 -4.7,4.6 -10.2,8.4 -0.7,6.1 -1.6,2.8 z"
   id="path82" />
	<path
   class="st40"
   d="m 197.4,372.4 3.7,-1.2 4.1,0.4 1.4,3.7 3.4,-0.1 10,-7.2 7.8,8.2 6.1,0.7 2.6,1.8 2.6,7.4 3.8,6.4 2.1,0.2 1.6,3.1 -3.3,2.8 -3.7,5.4 -15.8,-0.1 -3.8,-4 -2.7,-0.5 -9.7,3.2 -8.4,4 -2.6,3.4 -0.9,4.4 -4.4,6.1 -2.6,0.7 -3.7,-5.5 -5.6,0.5 -2.3,2.7 -1.8,-0.6 -0.1,-6.4 1.4,-6.2 8.3,-13.4 -1.6,-4.2 -0.2,-5.5 5.9,-2.9 1.2,-2.5 z"
   id="path84" />
	<path
   class="st41"
   d="m 264.7,393.8 -2.5,-0.4 -4.5,2.3 -7.2,1.9 -4,-1.7 -1.6,-3.1 -2.1,-0.2 -3.8,-6.4 -2.6,-7.4 -2.6,-1.8 -6.1,-0.7 -7.8,-8.2 -10,7.2 -3.4,0.1 -1.4,-3.7 6.8,-1.7 1.6,-2.8 0.7,-6.1 10.2,-8.4 4.7,-4.6 6.1,-3.2 5.4,-1.5 5.7,-5.7 8.9,-7.8 6.8,5.5 1.2,4.2 6.2,6.7 8.8,7.9 -0.3,1.9 -7.6,3.8 -1,3.8 1,9.1 -2.2,5.7 -3.5,2.3 1.7,5.9 z"
   id="path86" />
	<path
   class="st42"
   d="m 140,349.9 6.1,0.3 3.4,4.6 0.9,7.2 -1.7,3.4 2.5,4.6 2.9,0.7 0.2,2.9 -3.2,1 -4.8,5.2 -6.8,0.1 -1,2.1 1.9,4.6 -5.9,-1.2 -6.1,-4.6 -3.3,-1 -6.1,6.2 -8.8,-0.1 -1.8,-1.2 -6.3,-0.2 -3.1,-2.3 -6.9,-2.8 -3,0.7 -4,7.1 -3.5,3.3 -3.9,0.6 -1.5,-1.3 0.8,-6.8 -2.1,0.5 1.9,-7.5 -8.8,-4.6 5.3,-1.1 5.8,-2.8 1,-8.4 6.8,-1.1 5.7,-3.4 2.4,-0.2 11.1,1.5 10.7,-2.2 8.8,0.3 z"
   id="path88" />
	<path
   class="st43"
   d="m 146.1,350.2 -6.1,-0.3 -4.7,-10.9 -5.4,-2.5 -7.4,0.7 -2.8,-5.1 -7,-1.2 -2,3.7 -2.3,0.4 -2.9,-5.6 -6.4,-4.2 -1.9,-4.7 -9.1,-0.8 -2.5,-2.5 -1,-4 -2.8,-3.2 4.1,-6.4 1.1,-4.4 5.4,-2.5 4.4,-3.6 0.6,-3 -2.2,-5.4 -2.5,-11.7 3.5,-1.6 6.9,3.9 9.6,1 1,1.9 -2.1,4.4 5.1,-0.1 4.4,5.5 2.1,5.3 5.9,-0.1 3,-2.4 7.1,-0.5 4.2,-1.9 3.9,0.8 3,3.3 7.9,2.9 3.3,6.6 -0.6,3.6 2.2,5.5 -0.4,3.6 -8.5,7.2 2.2,3.9 0.3,5.4 -1.1,4.6 -2.6,3.2 4.1,3 -4.2,0.8 -2.7,6.8 z"
   id="path90" />
	<path
   class="st44"
   d="m 621.4,348.8 2.6,-6.6 -1.8,-2.9 -4.9,1.1 1.2,-5.4 -1.8,-3.3 6.1,-1.6 7.7,0.7 6.5,-2.5 6.9,-0.6 2.8,-1.7 2.5,-5.7 5.4,1.3 15.1,-1.6 5.3,-0.6 2.7,-3.1 0.1,-3.3 6.8,-2.5 11.6,0.1 15.4,-9.6 5.8,4.8 0.4,4.7 2.1,1.8 0.5,1.9 -6.8,3.5 -0.9,1.5 -1,8.8 1.1,9.6 -2.9,10 -4,5.4 2.2,5.5 -2.7,1.6 -16,1 -4.9,1.5 -2.4,4.6 -3.7,0.5 -13.5,11.4 -4.1,6.2 -2.3,-2.2 -3.7,-7.4 -1.8,-6.9 -0.2,-6.4 -5,-3.4 -0.8,1.6 -7.1,-3.4 -6.1,-5 -9,-1.3 z"
   id="path92" />
	<path
   class="st45"
   d="m 617.5,340.5 4.9,-1.1 1.8,2.9 -2.6,6.6 -5.7,3.7 -0.2,2.8 -3.2,2.2 -0.1,8.5 -3.3,1.4 1.6,1.5 -5.5,1.3 3.3,2.4 -10,2.2 -5.6,7 -11,2.7 -3.7,3.8 -4.3,-2.1 -2.5,0.6 -3.8,-3 -5.4,-1.8 -10,1.5 -7.9,-3.7 -1.8,-6.1 6.1,-7.6 14.5,-4.2 3.9,0.7 6.9,-2.7 2.6,-2.8 1,-5.4 3.4,-2.1 5.7,-8.5 5.8,-1.3 2.9,2.2 -2.2,3.7 4.3,1.4 h 6.4 l 5.7,-1.3 6.1,-3 z"
   id="path94" />
	<path
   class="st46"
   d="m 548.4,366.1 -6.1,7.6 1.8,6.1 7.9,3.7 -0.1,6.1 -1.9,1.4 -5.7,0.6 -14.2,5.1 -4,4.7 -3.6,-1.1 -1.5,-5.1 -2.2,-1.3 -2.1,3 -5.4,2.9 -2.2,-2.9 -6,-3.7 -11.1,2.8 -1.9,-2.2 -2.2,-6.8 2.5,-5 -0.2,-4.5 3.5,-3.8 -1.9,-10.4 3.5,-18 3.7,-6.1 6.2,-8.3 2.6,-7.2 1.4,-1.1 5.9,-1.7 8.2,1.7 10,-1.3 -2.4,4.6 0.6,3.4 3.3,-0.6 6.8,1.2 5.9,3.2 6.8,2.2 2.4,3.8 -2.5,10.9 -2.4,3.9 -1.9,8.7 z"
   id="path96" />
	<path
   class="st47"
   d="m 509.4,322.6 -1.4,1.1 -2.6,7.2 -6.2,8.3 -5,-7.6 -2.4,-1 -3.7,1.2 -5.3,3.7 -1.8,5 -5.3,9.2 -16.5,12.2 1.3,10.6 -2.4,1.3 -9.8,-3.1 -7.9,-0.4 0.9,-6.6 2.1,-1.4 -1.5,-4 0.1,-5 -1.3,-3.8 -7.3,0.1 -2.7,-2.9 -3.3,-8.7 6.8,-11 -0.2,-8.1 -5.4,-8.2 3.1,-11.3 10.2,1.4 6.9,-4.1 14.2,-9.9 3.6,-5.4 4.5,1.2 8.7,5.8 4.5,0.5 3.3,-1.4 7.4,0.7 4.5,2.4 4,-1.6 8,0.3 3.7,1.8 1.8,5.1 -3.3,10 z"
   id="path98" />
	<path
   class="st48"
   d="m 595.2,293.4 1.1,-0.6 1.4,-0.4 1.9,2.5 -0.3,4.9 2.1,1.7 8.2,-1.7 10.4,1.7 11.6,4.7 2.3,-2.7 7.5,-1.1 4.1,-2 2.5,-3.3 1.4,-5.3 -1,-4.2 1.4,-1.6 4.5,-1.1 9.9,-6.4 5,-2.7 1.6,2.8 -3.6,7.2 -0.6,4.1 1.4,4.4 3.9,5.1 -1.2,6.1 -2.9,-0.6 -1.6,6.4 2.6,3.4 1.1,5.3 -15.1,1.6 -5.4,-1.3 -2.5,5.7 -2.8,1.7 -6.9,0.6 -6.5,2.5 -7.7,-0.7 -6.1,1.6 -5.5,1.4 -4.9,-2 -3.7,-4.1 -5.4,1.4 -5.7,-2.1 -3.9,-0.4 -5,-3.2 -1.4,-3.4 2.2,-4.7 2.5,-1.3 2,-3.8 4.9,0.1 0.6,-2 -1.1,-6.5 -1.5,-3.2 1,-4.1 z"
   id="path100" />
	<path
   class="st49"
   d="m 430,433.9 -7.6,-5 -3.6,0.1 -6.3,2.9 -6.4,6.2 -6.4,4.5 -4.5,6.7 -4.6,3.5 0.1,4.9 -3.6,1.6 -1.8,5.2 -1.4,-4.5 -2.8,-1.4 -3.3,4.9 -2.6,1.1 -2.6,4.1 -1.8,-2.9 -4.4,3.8 -4.4,-1.8 -3.3,1.2 -11.7,0.3 -2.2,3 -6.8,-1.3 -6.5,4.5 -6.1,-1.2 -4.6,-2.8 3.6,-10.2 0.2,-9.8 8.8,0.3 5.4,-1.8 4.3,-0.1 2.3,-5.1 4.8,1.2 1.2,-1.6 -3.3,-3.4 -5.4,-3.1 -2.9,-7.6 5.9,-2.3 2.8,1.8 1.5,-4.2 7.9,-5.9 7.7,-1.1 3.6,-1.5 5.4,0.1 6.1,-1.7 4.4,-3.4 8.4,-2.3 2.8,-2.8 6.5,-2.9 6.6,-4.2 0.5,-1.8 3.5,-0.2 6.1,-2.9 3.2,0.7 3.3,6.6 2.2,1.7 1.4,9.2 5,1.4 1.8,1.8 -1.3,3.7 0.9,9.7 z"
   id="path102" />
	<path
   class="st50"
   d="m 392.9,130.5 5,0.6 6.5,-1.7 3.3,1.3 5.7,0.2 4.4,-1 3.8,-2.8 2.5,-5.3 3.2,0.3 5,4 -1.8,4.4 5.9,10.5 3.3,2.7 4.5,1.3 4.3,2.8 -1.6,4 0.7,9 1.7,7.8 -9,1.7 -6.8,-4.7 -1.7,-2.4 -7.2,4 -2,2.9 -2.1,3.9 -4.9,-1.4 -2.4,-2.1 -7.4,-1.1 -1.2,-1.5 0.2,-7.5 -0.8,-2.2 1.2,-4.2 2.5,-2.2 1.4,-3.9 -2.4,-3.2 -2.9,-0.7 -11.2,-1.1 -2.8,-1.1 3.3,-8 z"
   id="path104" />
	<path
   class="st51"
   d="m 695.5,152.2 3.4,-3.4 4.4,-2 1.7,-4.4 3.2,-4 4.8,1.5 3.3,-0.8 5.1,3.4 5.3,-5.4 3.3,0.8 5.9,-1.5 13.1,2.7 1.5,5.6 3.8,7.9 -0.7,4 -3.4,2.3 -3.3,4.6 -2.2,5.8 -11,1.9 -2.7,2.2 0.2,4.9 -2.5,4.5 -0.4,5 -1.7,3.2 -7.5,-2.3 -3.3,1.3 -7.3,4.8 -3.3,-2.3 0.6,-9.1 -7.1,-0.7 -3.6,-1.6 0.4,-2.4 9.4,-13.9 -6.2,-5.1 z"
   id="path106" />
	<path
   class="st52"
   d="m 660.3,173.3 4.6,-3.6 h 4.1 l 5.8,-3.7 5.1,-6.4 3.1,0.3 5.2,-2.5 4,-4 3.3,-1.2 3.1,7.2 6.2,5.1 -9.4,13.9 -0.4,2.4 -7.5,6.8 -5.2,1.8 -1,3.4 -6.1,2 -6.8,4.2 -0.7,-7.6 -3.3,-6.8 -0.9,-4 z"
   id="path108" />
	<path
   class="st53"
   d="m 607.7,172.9 5.5,0.8 6.5,-4 2.8,0.4 4.6,4.1 3.5,1.1 2.5,-1.1 5.8,2.5 6.1,-1.5 5.8,3.1 9.5,-5.1 3.3,7.3 0.9,4 3.3,6.8 0.7,7.6 -13.2,3 -7.5,-0.6 -4.8,-3.8 -3.3,2.8 -2.4,-3.4 -3.2,-1.8 -1.6,3.6 -4.1,0.8 -10.5,-3.4 -6,-7.1 -3.3,1.4 -1,-2.2 -0.8,-8.2 z"
   id="path110" />
	<path
   class="st54"
   d="m 361.8,323.5 -4.5,-8.9 0.3,-13.1 -2.4,-5.6 -9.6,-5.9 h -1.9 l -2.4,6.9 -6.6,-3.1 -8.3,7.1 -3.3,-1.4 -5.5,3.4 -8.8,-3.8 -6.9,1.6 -7.9,-5.9 -3.9,-2.1 6.2,-3.5 2,-2.4 -2.6,-4.4 0.5,-8.5 -1.9,-5.2 -2.2,-2 -2.4,-9.1 1.8,-2 -1.5,-3.7 -2.8,-1 -2.3,-7.8 -13.1,-0.2 -1.8,-1.9 -6.2,-0.2 -2.5,1.9 -4.8,-1.5 -4.2,1.7 -2.9,-0.2 -0.6,-4.7 -1.8,-2.5 2.8,-3.6 3.7,-2 2.9,-9.8 7.9,3.9 7.4,-0.6 1.4,1.6 5,1.5 4,-1.5 h 7.2 l 11.9,-3.4 3.7,-1.9 6.1,1 3.6,-1.8 3.6,-5.3 -1.7,-4.7 0.2,-3.1 2.8,-1.9 6.9,0.5 12.7,6.1 3.7,5.4 5.7,4 1.4,3.5 2.9,2.2 3.2,-0.3 2.3,-3.4 8.7,3.2 -1.1,8.1 -0.2,10.7 -8.4,2 -1.9,5 -2.4,9.9 1.1,4.9 4.8,6.6 1.8,8.2 3.6,7 1,3.3 8.7,5.8 8.9,4.2 -0.3,1.9 -1.4,3.9 1.8,4.8 -0.1,3.4 -5.4,4.6 -4.1,-0.1 z"
   id="path112" />
	<path
   class="st55"
   d="m 675.1,410.4 -12.5,7.8 -9.6,4.6 -24,6.4 -2.5,0.2 -7.3,-1.9 -10.8,1.5 -6.2,-1.5 -6.6,-6.3 -11.2,-3.3 h -4.6 l -7.3,4.5 -1.2,-7 -2,-1.9 0.3,-3.4 -2.5,0.5 -2.5,-1.9 -1.8,-10.9 1.8,-5 3.8,-5.1 3,-0.7 2.5,-0.6 4.3,2.1 3.7,-3.8 11,-2.7 5.6,-7 10,-2.2 -3.3,-2.4 5.5,-1.3 -1.6,-1.5 3.3,-1.4 0.1,-8.5 3.2,-2.2 0.2,-2.8 5.7,-3.7 3.7,1.8 9,1.3 6.1,5 7.1,3.4 0.8,-1.6 5,3.4 0.2,6.4 1.8,6.9 3.7,7.4 2.3,2.2 1.1,6.9 5.5,4.7 0.6,5.8 4.7,7.1 z"
   id="path114" />
	<path
   class="st56"
   d="m 639.8,200.4 3.3,-2.8 4.8,3.8 7.5,0.6 13.2,-3 1.7,3.4 3.3,11.3 2.9,1.3 7.2,1 -1.8,5 -7.7,3.8 -3.5,3.7 -8.8,0.2 -7.3,-1 -3.7,2.8 -7,1.5 -3.1,-7.3 1.5,-7.3 -0.3,-8.5 z"
   id="path116" />
	<path
   class="st57"
   d="m 757.9,186.9 -0.6,4.1 1.8,5.7 -8.7,6.8 -6.2,2.8 -1,3.3 4.1,4.4 6.7,1.4 5.1,3.3 4.1,5.8 -7.6,5.6 -4.9,0.6 4.1,4.1 6.6,1.8 -0.9,2.1 1,7.9 -1.5,5.4 -4.2,1.1 -5.7,3.7 -1.2,7.8 -4.9,4.7 -5.4,1.5 -3.3,2.9 -7.8,-1.1 -4.1,-4.4 -6.5,-4.8 -3.7,-0.5 -7,1.9 -4.4,-5.3 -6.2,-1.4 -6.1,-4.5 -6.3,4 -4,-0.2 -0.2,-3.7 2.1,-5.6 -5.3,-3.3 -2,-5.3 -3.3,-3.7 -7.6,0.5 -2.5,-1.1 1.2,-6.5 8.8,-0.2 3.5,-3.7 7.7,-3.8 1.8,-5 -7.2,-1 -2.9,-1.3 -3.3,-11.3 -1.7,-3.4 6.8,-4.2 6.1,-2 1,-3.4 5.2,-1.8 7.5,-6.8 3.6,1.6 7.1,0.7 -0.6,9.1 3.3,2.3 7.3,-4.8 3.3,-1.3 7.5,2.3 1.7,-3.2 0.4,-5 2.5,-4.5 -0.2,-4.9 2.7,-2.2 11,-1.9 1.4,4.4 5.7,5.5 z"
   id="path118" />
	<path
   class="st58"
   d="m 749.3,390.6 -18.8,6.4 -12.7,1.7 -14.3,-2.1 -8.5,2 -8,5 -4.1,1.2 -7.6,5.7 -2.2,-0.8 -4.7,-7.1 -0.6,-5.8 -5.5,-4.7 -1.1,-6.9 4.1,-6.2 13.5,-11.4 3.7,-0.5 2.4,-4.6 4.9,-1.5 16,-1 2.7,-1.6 2.1,0.2 3.6,3.8 3.8,6.5 5.2,2.7 6.8,-2.1 12.7,-11.1 5.2,11.9 -0.2,3.9 -7.4,4.8 -1.7,2.3 1,2.3 5.5,1.3 3.1,2.1 z"
   id="path120" />
	<path
   class="st59"
   d="m 815.7,374.7 -4.6,0.1 -6.4,-2.7 -2.2,0.2 -6.5,3.6 -10.1,-1.3 -6.1,13.2 -9.2,3.1 -1.4,-3.4 0.5,-3.4 -3.1,-3.1 -3.2,0.1 -0.8,-2.1 -6.5,8.2 -6.9,3.3 -1.2,-3.5 -3.1,-2.1 -5.5,-1.3 -1,-2.3 1.7,-2.3 7.4,-4.8 0.2,-3.9 -5.2,-11.9 6.8,2.5 9.1,-0.2 3.3,-3.9 6.1,-0.4 9.5,1.5 17.6,0.3 2.5,-3.2 0.2,-3.3 3.4,-2.4 8.8,1.3 4.4,-0.8 -0.2,8.8 3,6.7 0.2,5.2 z"
   id="path122" />
	<path
   class="st60"
   d="m 797.5,351.6 -0.2,3.3 -2.5,3.2 -17.6,-0.3 -9.5,-1.5 -6.1,0.4 -3.3,3.9 -9.1,0.2 -6.8,-2.5 -5.4,-5 -8.5,-2.7 -5.3,-4.1 -0.7,-3.7 1.3,-2.9 5.1,-1.9 4.5,-8.6 4.9,1.3 h 4.9 l 7.6,-3.4 3.2,1.1 6.1,4.5 8.8,2.2 11.2,5.8 2.9,-2.4 -0.7,-6.4 1.8,-5.5 3.5,-0.6 7.1,1.2 1.6,8.8 -0.2,8.4 -0.8,3.2 z"
   id="path124" />
	<path
   class="st61"
   d="m 850.3,335.1 0.9,1.6 4.5,-0.6 2.8,1.1 4,4.7 2.5,-1.1 4.5,3.2 -1.9,5.2 2.2,1.6 0.3,9 11.9,7.6 -1.4,3.7 0.9,5.3 -1.7,-1.3 -7.2,1 -6.2,6.8 -3.7,1.8 -1.2,4 H 858 l -3.2,-5.7 2.2,-4.5 -1.4,-5.5 -6.6,-2.7 -4.5,0.5 -3.9,5.6 -3.7,1.9 -2,-1.4 -7,0.8 -6.5,-0.2 -5.7,-3 1.3,-4.5 -0.2,-5.2 -3,-6.7 0.2,-8.8 6.1,-0.7 8.4,-3.3 3.9,0.6 5.8,-1.3 2.4,-1.8 2.2,-6.8 z"
   id="path126" />
	<path
   class="st62"
   d="m 833,252.5 2.4,7.9 5.3,2.5 0.5,6.5 -1.5,2.7 3.1,5.7 4.1,2.2 -0.1,10.9 2.6,1.8 1.4,14.1 6.1,-0.5 2,3 -3.4,4.8 0.2,6.1 -5,11.3 -0.3,3.7 -7.3,1.2 -2.2,6.8 -2.4,1.8 -5.8,1.3 -3.9,-0.6 -8.4,3.3 -6.1,0.7 -4.4,0.8 -8.8,-1.3 -3.4,2.4 -2.3,-4.1 0.8,-3.2 0.2,-8.4 -1.6,-8.8 -7.1,-1.2 -3.5,0.6 -2.5,-0.5 -1.4,-7.2 -2.4,-4.8 0.8,-3.5 7.2,-5.5 4.8,-10.3 5.2,-5.9 0.9,-4.4 -2.2,-2.8 -5.7,-2.5 -2.2,-7.2 6,-4 -0.6,-5.8 -3.7,-1.4 0.2,-1.8 5.1,-2 3.2,-4 6.7,0.7 5,3.5 5.6,0.1 3.8,-2.9 9.2,0.8 z"
   id="path128" />
	<path
   class="st63"
   d="m 748.9,139 3.6,-5.1 0.5,-3.4 4,-1.7 6.9,0.1 -1.8,4.2 2.9,1.5 1.4,-1.8 6.6,6.2 8.5,4.2 -3.3,3.1 h 3 l 3,3.8 3.9,-1.7 5.2,1.5 0.5,2.9 -20.2,12.1 -4.9,3.4 -0.7,15.9 -10.1,2.7 -6.2,-7.8 -5.7,-5.5 -1.4,-4.4 2.2,-5.8 3.3,-4.6 3.4,-2.3 0.7,-4 -3.8,-7.9 z"
   id="path130" />
	<path
   class="st64"
   d="m 549.6,432.9 -3.4,2.3 -9.5,-1 -6.4,0.7 -2.3,2.1 -1.8,-1.2 -0.3,-4.6 -2.2,-1.8 -14.3,-3.7 2.5,-2.5 6.8,-4.1 0.3,-3.9 3,-0.4 1.6,3.2 6.8,2.8 6,6.1 1.4,-1 7.9,3.8 z"
   id="path132" />
	<path
   class="st65"
   d="m 303.6,151.7 5.7,-6.9 5.8,-1.3 9.2,-5.6 8,-1.2 0.4,3.5 2.7,6.9 -2.7,2 0.4,4 -4.1,4 -2.4,0.6 -2,4.2 -5.3,4.4 -4.5,1.3 -4.7,-0.4 1,-4.9 -2.4,-7 z"
   id="path134" />
	<path
   class="st66"
   d="m 131.6,176.1 -7.2,2 -2.5,3.6 -4.3,-0.4 -5.3,-2.3 -9.3,0.8 -2.5,2.5 -2.5,6.3 -4.3,3.9 -2.1,3.1 -5.1,3.9 -5.8,0.7 -3.7,2.8 -1.1,-4.4 0.3,-4.7 -6.3,-1.1 -2.2,-7.6 v -4.8 l 2.6,-7.4 3.3,-6.1 -0.2,-9.1 6.6,-1 12.1,0.2 6.4,6.3 5.4,-2.3 4,-6.1 9.1,-1.9 15.1,-0.8 1.1,8.1 -2.3,8.1 z"
   id="path136" />
	<path
   class="st67"
   d="m 80.3,359.2 -0.6,-5.8 -5.6,-0.7 -2.2,-2.9 -5.2,-1.9 -3.9,1.4 -1.4,-6.3 -2.6,-4.4 -5.7,0.4 -2.5,5.4 -6.2,-6.6 -9.2,-4.2 3.9,-3.4 2.4,1.4 5,-2.5 -0.9,-3.6 2.8,-0.1 -4.7,-3.6 -1.9,-8 3.2,-3.2 4,1.9 5.1,8.1 -1.3,6.1 2.4,6.5 0.2,-4.6 2.7,-2.5 1.6,4 7.2,-0.3 4.1,-1.8 3.3,0.8 3.2,-3.2 -6,-0.5 -4,1.4 -1.8,-4.9 -2.4,-2 0.8,-2.9 -4.2,-1.5 -1.1,-6.1 4.6,-1.7 3,1.4 1.7,-1.5 -1,-3.3 7.7,-3.5 -0.8,-3.2 -2.7,1 -2.5,-1.3 -3.2,1.1 -2.1,-2 0.3,-4.9 3.6,-1.9 -4.3,-6.1 10,-6.4 2.8,-3.4 11.1,-5.8 2.5,0.6 2.9,4.6 2.5,11.7 2.2,5.4 -0.6,3 -4.4,3.6 -5.4,2.5 -1.1,4.4 -4.1,6.4 2.8,3.2 1,4 2.5,2.5 9.1,0.8 1.9,4.7 6.4,4.2 2.9,5.6 2.3,-0.4 2,-3.7 7,1.2 2.8,5.1 7.4,-0.7 5.4,2.5 4.7,10.9 -14.3,4.2 -8.8,-0.3 -10.7,2.2 -11.1,-1.5 -2.4,0.2 -5.7,3.4 z"
   id="path138" />
	<path
   class="st68"
   d="m 332.3,136.7 5.4,-1.3 3.5,-2 6.8,-2.3 6.8,-3.6 9.2,0.5 3.1,0.8 11.1,1.1 5.6,-0.5 9.1,1.2 0.3,3.3 -3.3,8 2.8,1.1 11.2,1.1 2.9,0.7 2.4,3.2 -1.4,3.9 -2.5,2.2 -1.2,4.2 0.8,2.2 -0.2,7.5 -2.2,0.6 -2.6,5.4 -3,3.1 -3.3,6.9 3.2,4 -1,2.9 -10,3.6 -3.6,-0.4 -5.4,-3.3 -1.7,-2.8 2.9,-5 -2.6,-2 -7,3.8 -3.3,0.6 -6.2,3.4 -7.6,-5.1 -5.6,-0.7 -1.6,-1.8 -1.4,-2.1 -4.7,-1.4 -0.5,-8.2 4.2,-5 4.3,-1 -2.5,-8 -3.1,-2.3 -5.8,1.5 -1.4,-1.7 -0.4,-4 2.7,-2 -2.7,-6.9 z"
   id="path140" />
	<path
   class="st69"
   d="m 167.5,456.5 -7.4,-5.9 1.6,-1.2 -1.4,-4 1,-4.1 -3.7,0.3 0.5,-4.6 3.5,-0.4 -0.9,-1.9 -7.1,-5.3 -3.7,3.3 -1,3.1 -6.4,-4.1 -3.7,0.1 -0.6,-6.8 -6.5,-0.4 -0.6,-3.8 -3.3,1.6 2.2,1.6 -1.4,2.1 -5.5,-3.8 -1.8,2.1 2.2,4.2 -6.1,3.8 -2.5,3.8 -5.7,2.2 -1.4,-2.5 3.4,0.2 2.7,-2.3 -5.3,-3.1 6.8,-1.2 -3,-2.8 -6.1,1.1 -8.4,-1.7 -2.5,1.9 -0.8,3.9 -5.3,-1.9 -4.3,1 -4.2,-1.6 4.7,-3.8 7,-0.1 0.7,-2.1 6.2,1.5 1.9,-1.4 8.9,1.1 2.9,-0.4 -2.1,-3 2.3,-0.6 -1.1,-3.4 7.2,-0.3 1.4,-3.5 5.5,-1.5 -1.1,-1.2 -9.1,0.5 -10.2,-0.1 -5,1.6 -2.7,-0.8 -7.4,1.5 -5.5,-3.5 -5.1,0.4 -1.1,3.2 -2.1,-0.4 -1.2,-5.8 4.5,-3.3 3,-0.1 3.9,2.3 3.8,-2 -1,-3.7 3.7,-0.1 0.6,-4.4 -7.1,0.8 1.5,-4.2 h -4.3 l 2.2,-3.8 -1.5,-1.4 3.9,-7.1 3,-0.7 6.9,2.8 3.1,2.3 6.3,0.2 1.8,1.2 8.8,0.1 6.2,-6.2 3.3,1 6.1,4.6 5.9,1.2 0.6,5.5 4.9,1.6 3.1,7.4 3.4,0.6 1.8,3 6,4.5 1,7.3 8.1,4.2 3.2,-3.5 0.5,-3.8 2.2,-1.6 0.1,6.4 1.8,0.6 2.3,-2.7 5.6,-0.5 3.7,5.5 -5.4,11.5 -0.4,6.7 -4.5,3.5 -0.4,3 -5.4,0.8 -2.9,8 z"
   id="path142" />
	<path
   class="st70"
   d="m 162.8,314.5 0.4,-3.6 -2.2,-5.5 0.6,-3.6 -3.3,-6.6 -7.9,-2.9 -3,-3.3 0.6,-4.8 6.6,-2.7 4,-6.2 0.8,-4.1 2.9,-6.8 1.7,1.4 8.2,1.3 2.5,-1.5 1.5,-6.5 2.2,-1.5 3.9,-10.2 2.3,-1.5 4.5,2 5.5,-0.6 -0.8,7.3 2.1,4.1 8,5.7 1.9,0.5 8.4,-1.5 6.4,7.8 1.5,8 4.3,6.2 0.7,3.7 -3.3,4.8 -5.3,2.2 -4.3,11.3 -3.3,4.6 -9.6,5.3 0.2,-5.9 -2,-2.5 -6.8,-2.1 -5.3,1 -2.1,5.8 -8.4,1.5 -6.2,-0.5 -5.3,-2 z"
   id="path144" />
	<path
   class="st71"
   d="m 431.5,299.5 -3.1,11.3 5.4,8.2 0.2,8.1 -6.8,11 -4.7,1.8 -5.5,-3.1 -9,1.1 -6,-4.8 0.8,-8.4 h -2.9 l -4.3,-1.9 -0.7,-2.9 2.2,-5.6 -1.5,-5.2 0.5,-2.3 4.9,4.2 1.8,-0.5 -0.8,-3.9 1,-3.1 10.5,-5.3 1.8,-2.3 -2.4,-4.7 0.5,-3.7 -1.8,-8.1 6.3,-0.4 5.6,5.8 1.6,4 3.6,2.2 z"
   id="path146" />
	<path
   class="st72"
   d="m 543.8,212.6 2.7,4.6 5,2.2 4,-4.1 4.5,-0.7 0.1,-4 6.5,-2.9 6.2,19.3 8.2,4.6 4.5,-1.4 9.2,3.1 -0.7,5.3 -4.1,-0.1 -4.3,2.2 -4.3,-1.7 -1.9,1.4 -0.9,6.7 6.2,-1.3 0.6,2.7 -3.3,1.3 -2.9,5.1 -0.5,10.3 4.3,3.6 -3.3,4.4 1.8,10.3 -1.2,3.6 -6.5,4 -12.5,2.1 -6.3,4.1 -3.7,1 -3.8,-1.7 -2.9,3 2.5,7.8 -3.7,5.8 -2.9,1.8 -4.3,5.1 -2.6,1.4 -10,1.3 -8.2,-1.7 -5.9,1.7 4.1,-16.2 3.3,-10 -1.8,-5.1 -3.7,-1.8 -8,-0.3 -4,1.6 -4.5,-2.4 -7.4,-0.7 -3.3,1.4 -4.5,-0.5 -8.7,-5.8 -4.5,-1.2 3.6,-3.6 5.1,-8.3 6.8,-6.6 1.2,-4.8 -4.5,-7.1 -1.4,-4.2 10.2,-2.4 7.2,-0.7 7.8,-4.2 2.5,-9.1 3.2,-1.7 5.1,0.4 7.2,-2.5 11.4,-1.5 7.5,-3.7 z"
   id="path148" />
	<path
   class="st73"
   d="m 597.7,292.4 -1.5,-6.9 1.9,-4.2 3.3,-1.9 -0.7,-4.7 6.5,-4 1.8,-2.8 6.6,-2.7 5.9,-1.4 6.9,0.5 10.2,-1.8 6.5,-4.7 6.1,1.9 8.5,-3.7 2.6,0.8 13.9,-0.2 -3.7,3.4 -3.3,-0.1 -3.7,5.1 -4.1,1.1 -0.6,2.1 -3.8,0.4 -2.6,2.1 -0.6,5.9 1.3,4.2 -0.9,3.9 -4.5,1.1 -1.4,1.6 1,4.2 -1.4,5.3 -2.5,3.3 -4.1,2 -7.5,1.1 -2.3,2.7 -11.6,-4.7 -10.4,-1.7 -8.2,1.7 -2.1,-1.7 0.3,-4.9 z"
   id="path150" />
	<path
   class="st74"
   d="m 580.2,286.9 3.7,1.6 4.2,-0.1 4.1,1.7 3.1,3.3 -3.2,0.3 -1,4.1 1.5,3.2 1.1,6.5 -0.6,2 -4.9,-0.1 -2,3.8 -2.5,1.3 -2.2,4.7 1.4,3.4 5,3.2 3.9,0.4 5.7,2.1 5.4,-1.4 3.7,4.1 4.9,2 5.5,-1.4 1.8,3.3 -1.2,5.4 -1.8,2.5 -6.1,3 -5.7,1.3 h -6.4 l -4.3,-1.4 2.2,-3.7 -2.9,-2.2 -5.8,1.3 -5.7,8.5 -3.4,2.1 -1,5.4 -2.6,2.8 -6.9,2.7 -3.9,-0.7 -14.5,4.2 1.8,-3.5 1.9,-8.7 2.4,-3.9 2.5,-10.9 -2.4,-3.8 -6.8,-2.2 -5.9,-3.2 -6.8,-1.2 -3.3,0.6 -0.6,-3.4 2.4,-4.6 2.6,-1.4 4.3,-5.1 2.9,-1.8 3.7,-5.8 -2.5,-7.8 2.9,-3 3.8,1.7 3.7,-1 6.3,-4.1 12.5,-2.1 z"
   id="path152" />
	<path
   class="st75"
   d="m 760,252 1.4,-5.3 -1,-7.9 0.9,-2.1 -6.6,-1.8 -4.1,-4.1 4.9,-0.6 7.6,-5.6 8.8,0.7 13.1,-5.4 8.9,-0.8 2.5,0.7 2.5,9.4 2.4,1 5.4,-3.9 6.2,1.8 2.7,3.6 7.1,1.7 0.8,1.6 8.5,-1 6.9,0.6 7.7,-2.9 2.6,0.7 -1.3,4.1 0.4,8.3 -1.4,2 -4.3,1.8 -3.3,-1.3 -6.1,1.4 -1.9,1.8 1.7,1.9 -6.1,2.5 -9.2,-0.8 -3.8,2.9 -5.6,-0.1 -5,-3.5 -6.7,-0.7 -3.2,4 -5.1,2 -0.2,1.8 3.7,1.4 0.6,5.8 -6,4 -8,2.8 -6.7,4.9 -0.9,-13.7 -7.1,-7.3 z"
   id="path154" />
	<path
   class="st76"
   d="m 725,310.5 7.1,-4 7.7,-0.2 3,-2.1 4.1,-5 -2.2,-4.7 0.6,-2.1 4,-0.3 1.1,-3.7 7.3,-4 h 7.4 l 6.5,-4.8 6.7,-4.9 8,-2.8 2.2,7.2 5.7,2.5 2.2,2.8 -0.9,4.4 -5.2,5.9 -4.8,10.3 -7.2,5.5 -0.8,3.5 2.4,4.8 1.4,7.2 2.5,0.5 -1.8,5.5 0.7,6.4 -2.9,2.4 -11.2,-5.8 -8.8,-2.2 -6.1,-4.5 -3.2,-1.1 -7.6,3.4 H 738 l -4.9,-1.3 -0.8,-6.9 -3.6,-10.8 z"
   id="path156" />
	<path
   class="st77"
   d="m 643.7,232 -3.3,4.9 -7.2,3 -10.4,0.8 -5.4,-1.8 -1.6,-1.7 -8.4,-3.9 -5.3,-1.5 -1.5,-5.5 -0.4,-5.9 6.5,-5.3 0.1,-2.1 -3.6,-2.2 -5.3,-1.1 -1.3,-1.3 -0.1,-5.2 2.4,-3.8 -0.2,-3.3 4.8,-4.6 5.2,-1 3.3,-1.4 6,7.1 10.5,3.4 4.1,-0.8 1.6,-3.6 3.2,1.8 2.4,3.4 2.1,8.5 0.3,8.5 -1.5,7.3 z"
   id="path158" />
	<path
   class="st78"
   d="m 511.3,399.8 -3.7,5.2 -2.3,5.2 -5.7,8.1 -4.6,0.4 -3.3,-2.7 -10.1,0.1 1.8,-6.7 -2.5,-5.1 -3.9,-0.3 -1.5,-4.2 -0.2,-4.5 5.3,-13.7 2,-3.6 7.7,-0.5 0.2,4.5 -2.5,5 2.2,6.8 1.9,2.2 11.2,-2.8 6,3.7 z"
   id="path160" />
	<path
   class="st79"
   d="m 207.1,211.4 2.6,5 3.3,3.4 3.8,1.4 6.1,-1.5 5.3,0.4 3,3.3 5.6,0.7 0.6,2.5 4.1,7 -4.5,0.1 -3.7,2.8 -1.5,5.9 -3.9,4.2 -4.6,0.8 -4.1,3.9 -0.6,5.9 -4.6,6.2 -8.4,1.5 -1.9,-0.5 -8,-5.7 -2.1,-4.1 0.8,-7.3 4.7,-0.1 -0.6,-3 -3.3,-4.5 1.4,-8.6 5.3,-5.9 -1.3,-4.8 2.3,-6.3 z"
   id="path162" />
	<path
   class="st80"
   d="m 194.6,332.1 6.2,1.7 5.7,10 -0.7,5.3 -16.2,11.7 -0.2,5.9 6.1,2 1.9,3.7 -7.2,4.7 -1.2,2.5 -5.9,2.9 0.2,5.5 1.6,4.2 -8.3,13.4 -1.4,6.2 -2.2,1.6 -0.5,3.8 -3.2,3.5 -8.1,-4.2 -1,-7.3 -6,-4.5 -1.8,-3 -3.4,-0.6 -3.1,-7.4 -4.9,-1.6 -0.6,-5.5 -1.9,-4.6 1,-2.1 6.8,-0.1 4.8,-5.2 3.2,-1 -0.2,-2.9 -2.9,-0.7 -2.5,-4.6 1.7,-3.4 -0.9,-7.2 -3.4,-4.6 4,-0.6 2.7,-6.8 4.2,-0.8 5.1,2.3 4.9,-1.4 3,2 5.8,-0.1 3,-3.5 6.6,0.5 3.2,-1.7 0.3,-7 z"
   id="path164" />
	<path
   class="st81"
   d="m 201.2,317.4 -1,4.6 -2.8,2.7 -2.7,7.4 -5.7,1.1 -0.3,7 -3.2,1.7 -6.6,-0.5 -3,3.5 -5.8,0.1 -3,-2 -4.9,1.4 -5.1,-2.3 -4.1,-3 2.7,-3.3 1.1,-4.6 -0.3,-5.4 -2.2,-3.9 8.5,-7.2 2.5,-2 5.3,2 6.2,0.5 8.4,-1.5 2.1,-5.8 5.3,-1 6.8,2.1 2,2.5 z"
   id="path166" />
	<text
   transform="translate(519.8394,196.2138)"
   class="st82 st83"
   id="text168">Ordu</text>
	<text
   transform="translate(454.8862,177.5803)"
   class="st82 st83"
   id="text170">Samsun</text>
	<text
   transform="translate(509.4049,414.4225)"
   class="st82 st83"
   id="text172">Gaziantep</text>
	<text
   transform="translate(187.0575,193.188)"
   class="st82 st84"
   id="text174">Kocaeli</text>
	<text
   transform="translate(95.0264,263.5819)"
   class="st82 st83"
   id="text176">Balıkesir</text>
	<text
   transform="matrix(0.8355,-0.5494,0.5494,0.8355,45.9226,249.9383)"
   class="st82 st85"
   id="text178">Çanakkale</text>
	<text
   transform="translate(475.3232,227.8011)"
   class="st82 st83"
   id="text180">Tokat</text>
	<text
   transform="translate(562.5984,193.1879)"
   class="st82 st83"
   id="text182">Giresun</text>
	<text
   transform="translate(601.3042,256.0435)"
   class="st82 st83"
   id="text184">Erzincan</text>
	<text
   transform="translate(675.1,286.7811)"
   class="st82 st83"
   id="text186">Bingöl</text>
	<text
   transform="translate(475.3231,456.5023)"
   class="st82 st84"
   id="text188">Hatay</text>
	<text
   transform="translate(436.5423,387.3289)"
   class="st82 st83"
   id="text190">Adana</text>
	<text
   transform="translate(396.295,221.4301)"
   class="st82 st83"
   id="text192">Çorum</text>
	<text
   transform="matrix(0.4426,-0.8967,0.8967,0.4426,364.2365,273.5626)"
   class="st82 st84"
   id="text194">Kırıkkale</text>
	<text
   transform="translate(401.443,367.3681)"
   class="st82 st83"
   id="text196">Niğde</text>
	<text
   transform="translate(359.2666,339.3909)"
   class="st82 st83"
   id="text198">Aksaray</text>
	<text
   transform="translate(371.1251,287.2587)"
   class="st82 st83"
   id="text200">Kırşehir</text>
	<text
   transform="translate(415.5887,265.3338)"
   class="st82 st83"
   id="text202">Yozgat</text>
	<text
   transform="translate(437.8278,203.6992)"
   class="st82 st83"
   id="text204">Amasya</text>
	<text
   transform="translate(720.5872,286.9405)"
   class="st82 st83"
   id="text206">Muş</text>
	<text
   transform="matrix(0.109,-0.994,0.994,0.109,720.5876,354.6931)"
   class="st82 st86"
   id="text208">Batman</text>
	<text
   transform="translate(769.2026,203.6993)"
   class="st82 st83"
   id="text210">Kars</text>
	<text
   transform="translate(817.0204,225.2526)"
   class="st82 st83"
   id="text212">Iğdır</text>
	<text
   transform="translate(250.1359,191.1174)"
   class="st82 st83"
   id="text214">Düzce</text>
	<text
   transform="translate(241.65,157.85)"
   class="st82 st84"
   id="text216">Zonguldak</text>
	<text
   transform="translate(303.6376,183.8444)"
   class="st82 st84"
   id="text218">Karabük</text>
	<text
   transform="translate(151.1816,207.0436)"
   class="st82 st87"
   id="text220">Yalova</text>
	<text
   transform="matrix(0.4648,-0.8854,0.8854,0.4648,226.8733,217.8202)"
   class="st82 st84"
   id="text222">Sakarya</text>
	<text
   transform="translate(345.9219,208.955)"
   class="st82 st83"
   id="text224">Çankırı</text>
	<text
   transform="translate(269.1998,214.8001)"
   class="st82 st83"
   id="text226">Bolu</text>
	<text
   transform="matrix(0.2851,-0.9585,0.9585,0.2851,58.2148,192.8692)"
   class="st82 st83"
   id="text228">Edirne</text>
	<text
   transform="translate(229.7694,265.3868)"
   class="st82 st83"
   id="text230">Eskişehir</text>
	<text
   transform="translate(303.9564,361.9532)"
   class="st82 st83"
   id="text232">Konya</text>
	<text
   transform="translate(149.4927,236.8257)"
   class="st82 st83"
   id="text234">Bursa</text>
	<text
   transform="translate(81.7847,144.9304)"
   class="st82 st83"
   id="text236">Kırklareli</text>
	<text
   transform="matrix(0.9681,0.2507,-0.2507,0.9681,154.3,157.8495)"
   class="st82 st83"
   id="text238">İstanbul</text>
	<text
   transform="translate(335.4105,410.422)"
   class="st82 st83"
   id="text240">Karaman</text>
	<text
   transform="translate(226.8732,418.7037)"
   class="st82 st83"
   id="text242">Antalya</text>
	<text
   transform="translate(213.9725,329.0387)"
   class="st82 st83"
   id="text244">Afyon</text>
	<text
   transform="translate(191.3576,394.602)"
   class="st82 st83"
   id="text246">Burdur</text>
	<text
   transform="translate(226.8732,366.1467)"
   class="st82 st83"
   id="text248">Isparta</text>
	<text
   transform="translate(95.0266,370.5533)"
   class="st82 st83"
   id="text250">Aydın</text>
	<text
   transform="translate(101.5227,310.7767)"
   class="st82 st83"
   id="text252">Manisa</text>
	<text
   transform="translate(639.491,343.0009)"
   class="st82 st83"
   id="text254">Diyarbakır</text>
	<text
   transform="matrix(0.8918,-0.4524,0.4524,0.8918,562.5994,377.5076)"
   class="st82 st83"
   id="text256">Adıyaman</text>
	<text
   transform="translate(496.4184,361.1569)"
   class="st82 st83"
   id="text258">K. Maraş</text>
	<text
   transform="translate(450.3838,327.6055)"
   class="st82 st83"
   id="text260">Kayseri</text>
	<text
   transform="translate(615.5056,317.4127)"
   class="st82 st83"
   id="text262">Elazığ</text>
	<text
   transform="translate(364.2372,437.815)"
   class="st82 st83"
   id="text264">Mersin</text>
	<text
   transform="translate(411.9711,153.1598)"
   class="st82 st83"
   id="text266">Sinop</text>
	<text
   transform="translate(714.4221,159.7425)"
   class="st82 st83"
   id="text268">Artvin</text>
	<text
   transform="translate(669.5597,177.5803)"
   class="st82 st83"
   id="text270">Rize</text>
	<text
   transform="translate(616.9075,189.1529)"
   class="st82 st83"
   id="text272">Trabzon</text>
	<text
   transform="translate(303.9561,249.8851)"
   class="st82 st88"
   id="text274">Ankara</text>
	<text
   transform="translate(593.2043,401.3971)"
   class="st82 st83"
   id="text276">Şanlıurfa</text>
	<text
   transform="translate(639.761,222.2797)"
   class="st82 st83"
   id="text278">Bayburt</text>
	<text
   transform="translate(695.0261,238.3124)"
   class="st82 st83"
   id="text280">Erzurum</text>
	<text
   transform="translate(685.3105,384.3561)"
   class="st82 st83"
   id="text282">Mardin</text>
	<text
   transform="translate(759.2986,373.792)"
   class="st82 st83"
   id="text284">Şırnak</text>
	<text
   transform="translate(748.8506,349.1596)"
   class="st82 st83"
   id="text286">Siirt</text>
	<text
   transform="translate(826.0095,363.8643)"
   class="st82 st83"
   id="text288">Hakkari</text>
	<text
   transform="translate(807.2119,312.2102)"
   class="st82 st83"
   id="text290">Van</text>
	<text
   transform="translate(777.7228,136.4001)"
   class="st82 st84"
   id="text292">Ardahan</text>
	<text
   transform="translate(516.9998,445.1003)"
   class="st82 st83"
   id="text294">Kilis</text>
	<text
   transform="translate(288.7999,139.2001)"
   class="st82 st83"
   id="text296">Bartın</text>
	<text
   transform="translate(75.8897,174.0762)"
   class="st82 st83"
   id="text298">Tekirdağ</text>
	<text
   transform="translate(75.8898,339.8155)"
   class="st82 st83"
   id="text300">İzmir</text>
	<text
   transform="translate(346.5565,165.5293)"
   class="st82 st83"
   id="text302">Kastamonu</text>
	<text
   transform="translate(125.821,416.5268)"
   class="st82 st83"
   id="text304">Muğla</text>
	<text
   transform="translate(163.206,281.7379)"
   class="st82 st83"
   id="text306">Kütahya</text>
	<text
   transform="translate(396.2948,317.4124)"
   class="st82 st83"
   id="text308">Nevşehir</text>
	<text
   transform="translate(514.6526,265.1215)"
   class="st82 st83"
   id="text310">Sivas</text>
	<text
   transform="translate(606.7996,287.2589)"
   class="st82 st83"
   id="text312">Tunceli</text>
	<text
   transform="translate(556.9446,336.7364)"
   class="st82 st83"
   id="text314">Malatya</text>
	<text
   transform="translate(777.723,245.2138)"
   class="st82 st83"
   id="text316">Ağrı</text>
	<text
   transform="translate(743.0436,317.413)"
   class="st82 st83"
   id="text318">Bitlis</text>
	<text
   transform="translate(596.6013,211.45)"
   class="st82 st87"
   id="text320">Gümüşhane</text>
	<text
   transform="translate(470.1471,404.5343)"
   class="st82 st84"
   id="text322">Osmaniye</text>
	<text
   transform="translate(198.6938,238.3123)"
   class="st82 st83"
   id="text324">Bilecik</text>
	<text
   transform="translate(147.2416,388.338)"
   class="st82 st83"
   id="text326">Denizli</text>
	<text
   transform="translate(162.3739,330.5785)"
   class="st82 st83"
   id="text328">Uşak</text>
	<path
   class="st89"
   d="m 890,295 h 10 v 10 h -10 z"
   id="path330" />
</g>

</svg>
