<?xml version="1.0" encoding="UTF-8" standalone="no"?>
<!-- Uploaded to: SVG Repo, www.svgrepo.com, Transformed by: SVG Repo Mixer Tools -->

<svg
   width="256px"
   height="256px"
   viewBox="0 0 64 64"
   aria-hidden="true"
   role="img"
   class="iconify iconify--emojione"
   preserveAspectRatio="xMidYMid meet"
   fill="#000000"
   version="1.1"
   id="svg23"
   sodipodi:docname="artist-palette-svgrepo-com.svg"
   inkscape:version="1.2.2 (b0a8486541, 2022-12-01)"
   xmlns:inkscape="http://www.inkscape.org/namespaces/inkscape"
   xmlns:sodipodi="http://sodipodi.sourceforge.net/DTD/sodipodi-0.dtd"
   xmlns="http://www.w3.org/2000/svg"
   xmlns:svg="http://www.w3.org/2000/svg">
  <defs
     id="defs27" />
  <sodipodi:namedview
     id="namedview25"
     pagecolor="#ffffff"
     bordercolor="#000000"
     borderopacity="0.25"
     inkscape:showpageshadow="2"
     inkscape:pageopacity="0.0"
     inkscape:pagecheckerboard="0"
     inkscape:deskcolor="#d1d1d1"
     showgrid="false"
     inkscape:zoom="0.921875"
     inkscape:cx="68.881356"
     inkscape:cy="128.54237"
     inkscape:window-width="1366"
     inkscape:window-height="691"
     inkscape:window-x="0"
     inkscape:window-y="0"
     inkscape:window-maximized="1"
     inkscape:current-layer="SVGRepo_iconCarrier" />
  <g
     id="SVGRepo_bgCarrier"
     stroke-width="0" />
  <g
     id="SVGRepo_tracerCarrier"
     stroke-linecap="round"
     stroke-linejoin="round" />
  <g
     id="SVGRepo_iconCarrier">
    <g
       id="g504"
       transform="matrix(0.77858553,0,0,0.73573892,-0.91637077,18.358708)">
      <path
         d="M 49.6,23.6 C 58.4,8.5 40.3,-1.3 17.3,9.2 3.2,15.7 -6.6,35.7 13,52.9 26.9,65.1 62,58.2 62,44.2 62,28.7 40.3,39.4 49.6,23.6 m 4.9,24.6 c -2.8,2.4 -7.2,2.4 -10,0 -2.8,-2.4 -2.8,-4.5 0,-6.9 2.8,-2.4 7.2,-2.4 10,0 2.8,2.4 2.7,4.5 0,6.9"
         fill="#f6c799"
         id="path4" />
      <path
         d="m 33.2,45.1 c -3.1,-2.4 -8,-2.4 -11.1,0 -3.1,2.4 -3.1,6.2 0,8.6 3.1,2.4 8,2.4 11.1,0 3,-2.4 3,-6.3 0,-8.6"
         fill="#2caece"
         id="path6" />
      <path
         d="M 19.6,33.6 C 16.2,32 11.6,33 9.2,35.9 6.8,38.8 7.6,42.4 11,44 c 3.4,1.6 8,0.6 10.4,-2.3 2.4,-2.9 1.6,-6.5 -1.8,-8.1"
         fill="#fdf516"
         id="path8" />
      <path
         d="M 17,20.6 C 14.1,19 9.8,19.7 7.6,22.2 5.3,24.7 5.9,28 8.8,29.5 c 2.9,1.6 7.2,0.9 9.4,-1.6 2.2,-2.5 1.7,-5.7 -1.2,-7.3"
         fill="#ff5555"
         id="path10" />
      <path
         d="m 28.4,10.8 c -2.8,-1.6 -6.9,-1 -9.1,1.4 -2.2,2.4 -1.8,5.5 1.1,7.1 2.8,1.6 6.9,1 9.1,-1.4 2.2,-2.4 1.7,-5.6 -1.1,-7.1"
         fill="#83bf4f"
         id="path12" />
      <path
         d="m 44.7,9.7 c -2.2,-1.8 -5.9,-2.2 -8.5,-1 -2.5,1.2 -2.8,3.7 -0.6,5.5 2.2,1.8 5.9,2.2 8.5,1 2.5,-1.3 2.7,-3.7 0.6,-5.5"
         fill="#9156b7"
         id="path14" />
    </g>
    <g
       id="g464"
       transform="matrix(0.09710432,0,0,0.09028528,13.26026,0.61037593)">
      <polygon
         style="fill:#e6e6e6"
         points="150.837,459.24 52.76,361.164 31.266,432.193 79.808,480.736 "
         id="polygon315" />
      <polygon
         style="fill:#b3b3b3"
         points="31.266,432.193 10.199,501.801 79.808,480.736 "
         id="polygon317" />
      <rect
         x="167.07401"
         y="85.196999"
         transform="matrix(0.7071,0.7071,-0.7071,0.7071,264.1103,-86.4613)"
         style="fill:#ffba57"
         width="138.698"
         height="380.763"
         id="rect319" />
      <rect
         x="363.95001"
         y="54.480999"
         transform="matrix(-0.7071,0.7071,-0.7071,-0.7071,750.1869,-63.0778)"
         style="fill:#e6e6e6"
         width="48.415001"
         height="138.698"
         id="rect321" />
      <path
         style="fill:#e8655a"
         d="m 491.326,118.751 c 13.967,-13.967 13.967,-36.613 0,-50.58 L 443.83,20.675 c -13.967,-13.968 -36.613,-13.968 -50.58,0 l -37.01,37.01 98.076,98.076 z"
         id="path323" />
      <g
         id="g331">
	<path
   style="fill:#603813"
   d="m 45.548,353.953 c 0,0 -0.004,0.011 -0.012,0.033 -1.158,1.165 -2.046,2.601 -2.538,4.226 L 0.437,498.848 c -1.089,3.599 -0.109,7.507 2.55,10.167 1.941,1.939 4.548,2.985 7.213,2.985 0.986,0 1.981,-0.144 2.954,-0.438 l 140.637,-42.561 c 1.631,-0.494 3.073,-1.386 4.24,-2.551 0.003,0 0.018,0.001 0.018,0.001 L 498.538,125.962 v 0 c 8.682,-8.682 13.463,-20.225 13.463,-32.502 0,-12.278 -4.781,-23.82 -13.463,-32.503 L 451.042,13.462 C 442.361,4.782 430.817,0 418.539,0 406.261,0 394.719,4.781 386.037,13.463 Z M 356.24,72.109 l 83.652,83.652 -19.81,19.81 L 336.43,91.919 Z M 150.837,444.816 67.185,361.164 322.006,106.343 405.658,189.995 Z M 57.59,380.417 131.583,454.41 82.7,469.204 42.797,429.3 Z m -21.496,71.03 24.46,24.46 -35.074,10.614 z m 448.02,-339.908 v 0 l -29.798,29.798 -83.652,-83.652 29.798,-29.798 c 4.828,-4.829 11.249,-7.488 18.077,-7.488 6.829,0 13.25,2.659 18.078,7.488 l 47.496,47.496 c 4.829,4.829 7.488,11.249 7.488,18.078 0,6.829 -2.658,13.249 -7.487,18.078 z"
   id="path325" />

	<path
   style="fill:#603813"
   d="m 307.069,256.948 c -3.983,-3.983 -10.441,-3.983 -14.425,0 l -4.08,4.08 c -3.983,3.983 -3.983,10.441 0,14.425 1.992,1.992 4.602,2.987 7.212,2.987 2.61,0 5.221,-0.995 7.212,-2.987 l 4.08,-4.08 c 3.984,-3.984 3.984,-10.442 0.001,-14.425 z"
   id="path327" />

	<path
   style="fill:#603813"
   d="M 258.987,290.605 143.736,405.856 c -3.983,3.983 -3.983,10.441 0,14.425 1.992,1.992 4.602,2.987 7.212,2.987 2.61,0 5.221,-0.995 7.212,-2.987 L 273.411,305.03 c 3.983,-3.983 3.983,-10.441 0,-14.425 -3.983,-3.983 -10.441,-3.983 -14.424,0 z"
   id="path329" />

</g>
    </g>
  </g>
</svg>
