<!DOCTYPE svg PUBLIC "-//W3C//DTD SVG 1.1//EN" "http://www.w3.org/Graphics/SVG/1.1/DTD/svg11.dtd">
<!-- Uploaded to: SVG Repo, www.svgrepo.com, Transformed by: SVG Repo Mixer Tools -->
<svg fill="#3584e4" height="256px" width="256px" version="1.1" id="Layer_1" xmlns="http://www.w3.org/2000/svg" xmlns:xlink="http://www.w3.org/1999/xlink" viewBox="0 0 496 496" xml:space="preserve">
<g id="SVGRepo_bgCarrier" stroke-width="0"/>
<g id="SVGRepo_tracerCarrier" stroke-linecap="round" stroke-linejoin="round"/>
<g id="SVGRepo_iconCarrier"> <g> <g> <path d="M458.8,434.92L356,102.792V48h-32V0h-48v48h-32v54.784l-64,206.224V168h-64v160h-16v24H84v-24H36v64h48v-24h16v24h16 v58.664l32,42.672l32-42.672V392h29.52l88.048-232.12c0.816,0.032,1.608,0.12,2.432,0.12c0.784,0,1.552-0.088,2.328-0.12 l105.68,294.384c3.208,8.936,10.912,15.336,19.992,17.16V496h16v-26.312c9.4-4.16,16-13.544,16-24.472v-2.376 C460,440.144,459.6,437.48,458.8,434.92z M68,376H52v-32h16V376z M292,16h16v32h-16V16z M132,184h32v144h-32V184z M148,466.664 L134,448h28L148,466.664z M164,432h-32v-40h32V432z M198.48,376H116v-32h16v16h16v-16h16v16h16v-16h5.896l65.76-211.88 c6.68,11.44,17.28,20.288,29.96,24.712L198.48,376z M300,144c-22.056,0-40-17.944-40-40v-8h48V80h-48V64h80v16h-16v16h16v8 C340,126.056,322.056,144,300,144z M444,445.216c0,5.952-4.84,10.784-10.784,10.784c-4.536,0-8.616-2.864-10.152-7.144 L318.256,156.88c12.736-4.408,23.376-13.272,30.08-24.744l95.184,307.52c0.32,1.032,0.48,2.104,0.48,3.184V445.216z"/> </g> </g> </g>
</svg>