<?xml version="1.0" encoding="UTF-8" standalone="no"?>
<!-- Uploaded to: SVG Repo, www.svgrepo.com, Transformed by: SVG Repo Mixer Tools -->

<svg
   fill="#000000"
   height="256px"
   width="256px"
   version="1.1"
   id="Capa_1"
   viewBox="0 0 191 191"
   xml:space="preserve"
   sodipodi:docname="smartpen.svg"
   inkscape:version="1.2.2 (b0a8486541, 2022-12-01)"
   xmlns:inkscape="http://www.inkscape.org/namespaces/inkscape"
   xmlns:sodipodi="http://sodipodi.sourceforge.net/DTD/sodipodi-0.dtd"
   xmlns="http://www.w3.org/2000/svg"
   xmlns:svg="http://www.w3.org/2000/svg"><defs
   id="defs2505" /><sodipodi:namedview
   id="namedview2503"
   pagecolor="#ffffff"
   bordercolor="#000000"
   borderopacity="0.25"
   inkscape:showpageshadow="2"
   inkscape:pageopacity="0.0"
   inkscape:pagecheckerboard="0"
   inkscape:deskcolor="#d1d1d1"
   showgrid="false"
   inkscape:zoom="0.921875"
   inkscape:cx="68.881356"
   inkscape:cy="128.54237"
   inkscape:window-width="1366"
   inkscape:window-height="691"
   inkscape:window-x="0"
   inkscape:window-y="0"
   inkscape:window-maximized="1"
   inkscape:current-layer="Capa_1" />

<g
   id="SVGRepo_bgCarrier"
   stroke-width="0" />

<g
   id="SVGRepo_tracerCarrier"
   stroke-linecap="round"
   stroke-linejoin="round" />

<g
   id="SVGRepo_iconCarrier"> <path
   d="M174.396,191H16.604C7.449,191,0,183.551,0,174.396V16.605C0,7.449,7.449,0,16.604,0h157.791 C183.551,0,191,7.449,191,16.605v157.79C191,183.551,183.551,191,174.396,191z M16.604,5C10.206,5,5,10.206,5,16.605v157.79 C5,180.794,10.206,186,16.604,186h157.791c6.398,0,11.604-5.206,11.604-11.604V16.605C186,10.206,180.794,5,174.396,5H16.604z M57.712,167.582c-0.663,0-1.299-0.264-1.768-0.732l-31.912-31.913c-0.977-0.977-0.977-2.559,0-3.535l31.912-31.912 c0.977-0.977,2.559-0.977,3.535,0l31.912,31.912c0.977,0.977,0.977,2.559,0,3.535L59.479,166.85 C59.011,167.318,58.375,167.582,57.712,167.582z M29.335,133.169l28.377,28.378l28.377-28.378l-28.377-28.377L29.335,133.169z M165.2,161.045h-58.603c-0.894,0-1.719-0.477-2.165-1.25s-0.446-1.727,0-2.5l29.302-50.751c0.446-0.773,1.271-1.25,2.165-1.25 s1.719,0.477,2.165,1.25l29.301,50.751c0.446,0.773,0.446,1.727,0,2.5S166.094,161.045,165.2,161.045z M110.928,156.045h49.942 l-24.971-43.251L110.928,156.045z M135.899,82.919c-16.404,0-29.75-13.346-29.75-29.75s13.346-29.75,29.75-29.75 s29.75,13.346,29.75,29.75S152.304,82.919,135.899,82.919z M135.899,28.419c-13.647,0-24.75,11.103-24.75,24.75 s11.103,24.75,24.75,24.75s24.75-11.103,24.75-24.75S149.547,28.419,135.899,28.419z M84.962,82.919h-54.5 c-1.381,0-2.5-1.119-2.5-2.5v-54.5c0-1.381,1.119-2.5,2.5-2.5h54.5c1.381,0,2.5,1.119,2.5,2.5v54.5 C87.462,81.8,86.343,82.919,84.962,82.919z M32.962,77.919h49.5v-49.5h-49.5V77.919z"
   id="path2499"
   style="fill:#000000" /> </g><g
   id="g2773"
   transform="matrix(0.212358,0,0,0.20001169,73.100411,10.558728)"><polygon
     style="fill:#e6e6e6"
     points="79.808,480.736 150.837,459.24 52.76,361.164 31.266,432.193 "
     id="polygon2624" /><polygon
     style="fill:#b3b3b3"
     points="79.808,480.736 31.266,432.193 10.199,501.801 "
     id="polygon2626" /><rect
     x="167.07401"
     y="85.196999"
     transform="matrix(0.7071,0.7071,-0.7071,0.7071,264.1103,-86.4613)"
     style="fill:#ffba57"
     width="138.698"
     height="380.763"
     id="rect2628" /><rect
     x="363.95001"
     y="54.480999"
     transform="matrix(-0.7071,0.7071,-0.7071,-0.7071,750.1869,-63.0778)"
     style="fill:#e6e6e6"
     width="48.415001"
     height="138.698"
     id="rect2630" /><path
     style="fill:#e8655a"
     d="m 491.326,118.751 c 13.967,-13.967 13.967,-36.613 0,-50.58 L 443.83,20.675 c -13.967,-13.968 -36.613,-13.968 -50.58,0 l -37.01,37.01 98.076,98.076 z"
     id="path2632" /><g
     id="g2640"
     style="fill:#ff0000">
	<path
   style="fill:#ff0000"
   d="m 45.548,353.953 c 0,0 -0.004,0.011 -0.012,0.033 -1.158,1.165 -2.046,2.601 -2.538,4.226 L 0.437,498.848 c -1.089,3.599 -0.109,7.507 2.55,10.167 1.941,1.939 4.548,2.985 7.213,2.985 0.986,0 1.981,-0.144 2.954,-0.438 l 140.637,-42.561 c 1.631,-0.494 3.073,-1.386 4.24,-2.551 0.003,0 0.018,0.001 0.018,0.001 L 498.538,125.962 v 0 c 8.682,-8.682 13.463,-20.225 13.463,-32.502 0,-12.278 -4.781,-23.82 -13.463,-32.503 L 451.042,13.462 C 442.361,4.782 430.817,0 418.539,0 406.261,0 394.719,4.781 386.037,13.463 Z M 356.24,72.109 l 83.652,83.652 -19.81,19.81 L 336.43,91.919 Z M 150.837,444.816 67.185,361.164 322.006,106.343 405.658,189.995 Z M 57.59,380.417 131.583,454.41 82.7,469.204 42.797,429.3 Z m -21.496,71.03 24.46,24.46 -35.074,10.614 z m 448.02,-339.908 v 0 l -29.798,29.798 -83.652,-83.652 29.798,-29.798 c 4.828,-4.829 11.249,-7.488 18.077,-7.488 6.829,0 13.25,2.659 18.078,7.488 l 47.496,47.496 c 4.829,4.829 7.488,11.249 7.488,18.078 0,6.829 -2.658,13.249 -7.487,18.078 z"
   id="path2634" />
	<path
   style="fill:#ff0000"
   d="m 307.069,256.948 c -3.983,-3.983 -10.441,-3.983 -14.425,0 l -4.08,4.08 c -3.983,3.983 -3.983,10.441 0,14.425 1.992,1.992 4.602,2.987 7.212,2.987 2.61,0 5.221,-0.995 7.212,-2.987 l 4.08,-4.08 c 3.984,-3.984 3.984,-10.442 0.001,-14.425 z"
   id="path2636" />
	<path
   style="fill:#ff0000"
   d="M 258.987,290.605 143.736,405.856 c -3.983,3.983 -3.983,10.441 0,14.425 1.992,1.992 4.602,2.987 7.212,2.987 2.61,0 5.221,-0.995 7.212,-2.987 L 273.411,305.03 c 3.983,-3.983 3.983,-10.441 0,-14.425 -3.983,-3.983 -10.441,-3.983 -14.424,0 z"
   id="path2638" />
</g></g>

</svg>
