<?xml version="1.0" encoding="UTF-8" standalone="no"?>
<!-- Uploaded to: SVG Repo, www.svgrepo.com, Transformed by: SVG Repo Mixer Tools -->

<svg
   version="1.1"
   id="Layer_1"
   viewBox="0 0 504 504"
   xml:space="preserve"
   width="256px"
   height="256px"
   fill="#000000"
   sodipodi:docname="smartboard.svg"
   inkscape:version="1.2.2 (b0a8486541, 2022-12-01)"
   xmlns:inkscape="http://www.inkscape.org/namespaces/inkscape"
   xmlns:sodipodi="http://sodipodi.sourceforge.net/DTD/sodipodi-0.dtd"
   xmlns="http://www.w3.org/2000/svg"
   xmlns:svg="http://www.w3.org/2000/svg"><defs
   id="defs54" /><sodipodi:namedview
   id="namedview52"
   pagecolor="#ffffff"
   bordercolor="#000000"
   borderopacity="0.25"
   inkscape:showpageshadow="2"
   inkscape:pageopacity="0.0"
   inkscape:pagecheckerboard="0"
   inkscape:deskcolor="#d1d1d1"
   showgrid="false"
   inkscape:zoom="0.86178639"
   inkscape:cx="-41.193503"
   inkscape:cy="163.03344"
   inkscape:window-width="1366"
   inkscape:window-height="691"
   inkscape:window-x="0"
   inkscape:window-y="0"
   inkscape:window-maximized="1"
   inkscape:current-layer="g880" />

<g
   id="SVGRepo_bgCarrier"
   stroke-width="0" />

<g
   id="SVGRepo_tracerCarrier"
   stroke-linecap="round"
   stroke-linejoin="round" />

<g
   id="SVGRepo_iconCarrier">  <path
   style="fill:#3584e4;stroke-width:1.70228"
   d="M 479.82814,8.0769231 H 25.18148 c -10.653335,0 -19.4266723,10.1730149 -19.4266723,22.9355159 v 379.545741 65.29221 c 0,12.57753 8.6166643,22.93552 19.4266723,22.93552 h 454.64666 c 10.65333,0 19.42666,-10.17301 19.42666,-22.93552 V 410.55818 31.012439 c 0,-12.762501 -8.61666,-22.9355159 -19.42666,-22.9355159 z"
   id="path6" />  <rect
   x="30.508148"
   y="37.301216"
   style="fill:#ffffff;stroke-width:1.70228"
   width="444.14999"
   height="373.44189"
   id="rect10" /> <ellipse
   style="fill:#ffffff;stroke-width:1.70228"
   cx="252.50479"
   cy="454.57953"
   id="circle12"
   rx="21.933332"
   ry="25.894934" />        <g
   id="g880"
   transform="matrix(0.9133881,0,0,0.74837526,42.506524,51.685297)">
	
	
	
	
	
	
	<path
   style="fill:#6da8d6"
   d="m 356.689,123.939 -30.052,30.052 c -1.465,1.464 -3.385,2.196 -5.304,2.196 -1.919,0 -3.839,-0.732 -5.304,-2.196 -2.929,-2.93 -2.929,-7.678 0,-10.607 L 346.081,113.332 321.333,88.584 70.192,339.726 c 3.443,2.019 6.652,4.489 9.528,7.364 5.88,5.88 9.975,13.012 12.035,20.57 L 287.747,171.668 c 2.93,-2.928 7.678,-2.928 10.607,0 2.929,2.93 2.929,7.678 0,10.607 L 102.361,378.268 c 7.558,2.06 14.69,6.154 20.57,12.034 2.875,2.876 5.346,6.084 7.364,9.527 L 381.437,148.687 Z"
   id="path868" />
	
		<rect
   x="358.73199"
   y="57.655998"
   transform="matrix(0.7071,-0.7071,0.7071,0.7071,37.5098,290.8692)"
   style="fill:#f2ebd9"
   width="22.266001"
   height="85"
   id="rect870" />
	<polygon
   style="fill:#274b6d"
   points="21.29,448.731 44.328,439.245 30.776,425.692 "
   id="polygon872" />
	<path
   style="fill:#ffcc75"
   d="m 112.324,400.909 c -7.087,-7.087 -16.71,-10.372 -25.742,-8.784 -2.408,0.424 -4.873,-0.354 -6.603,-2.083 -1.729,-1.729 -2.507,-4.193 -2.083,-6.603 1.588,-9.031 -1.696,-18.655 -8.784,-25.742 -2.366,-2.367 -5.054,-4.32 -7.942,-5.816 l -24.206,58.785 22.392,22.391 58.784,-24.205 c -1.496,-2.889 -3.45,-5.577 -5.816,-7.943 z"
   id="path874" />
	<path
   style="fill:#f2484b"
   d="m 418.396,111.729 30.052,-30.053 c 8.772,-8.772 8.772,-23.047 0,-31.819 L 420.164,21.573 c -8.773,-8.772 -23.047,-8.772 -31.82,0 l -14.143,14.144 c -2.93,2.928 -7.678,2.928 -10.607,0 l -10.605,10.605 z"
   id="path876" />
	<path
   style="fill:#082947"
   d="m 397.34,153.999 c 0.016,-0.016 61.715,-61.716 61.715,-61.716 14.62,-14.621 14.62,-38.412 0,-53.033 L 430.771,10.966 c -14.621,-14.619 -38.411,-14.623 -53.034,0 L 363.593,25.11 c -2.929,2.93 -2.929,7.678 0,10.607 2.93,2.928 7.678,2.928 10.607,0 l 14.143,-14.144 c 8.773,-8.772 23.047,-8.772 31.82,0 l 28.284,28.284 c 8.772,8.772 8.772,23.047 0,31.819 l -30.052,30.053 -65.408,-65.407 c -2.93,-2.928 -7.677,-2.928 -10.607,0 l -26.342,26.342 c -0.018,0.018 -75.734,75.734 -75.734,75.734 l -91.924,91.924 -96.686,96.686 c -0.015,0.015 -0.027,0.031 -0.042,0.047 -0.063,0.064 -0.121,0.133 -0.181,0.2 -0.592,0.647 -1.073,1.388 -1.408,2.201 l -28.872,70.116 c -0.01,0.024 -0.02,0.048 -0.029,0.071 L 0.565,459.665 c -1.152,2.8 -0.509,6.018 1.632,8.159 1.436,1.435 3.354,2.196 5.306,2.196 0.961,0 1.93,-0.185 2.854,-0.564 l 50.027,-20.6 c 0.019,-0.008 0.038,-0.016 0.058,-0.023 l 70.124,-28.875 c 0.817,-0.337 1.561,-0.821 2.211,-1.417 0.063,-0.057 0.127,-0.111 0.188,-0.17 0.016,-0.016 0.034,-0.029 0.05,-0.045 l 96.686,-96.686 91.924,-91.925 z M 59.356,433.057 36.964,410.666 61.17,351.881 c 2.888,1.496 5.576,3.449 7.942,5.816 7.088,7.087 10.372,16.711 8.784,25.742 -0.424,2.409 0.354,4.873 2.083,6.603 1.729,1.729 4.194,2.507 6.603,2.083 9.032,-1.588 18.655,1.697 25.742,8.784 2.367,2.366 4.32,5.054 5.816,7.942 z m 63.575,-42.755 c -5.88,-5.88 -13.012,-9.975 -20.57,-12.034 L 298.353,182.276 c 2.929,-2.93 2.929,-7.678 0,-10.607 -2.93,-2.928 -7.678,-2.928 -10.607,0 L 91.754,367.66 c -2.06,-7.559 -6.155,-14.69 -12.035,-20.57 -2.876,-2.875 -6.084,-5.346 -9.528,-7.364 l 251.143,-251.142 24.748,24.748 -30.052,30.052 c -2.929,2.93 -2.929,7.678 0,10.607 1.465,1.464 3.385,2.196 5.304,2.196 1.919,0 3.839,-0.732 5.304,-2.196 l 30.052,-30.052 24.749,24.748 -251.144,251.142 c -2.018,-3.443 -4.488,-6.651 -7.364,-9.527 z M 392.045,138.08 331.941,77.976 l 15.744,-15.744 60.104,60.104 z m -361.269,287.612 13.552,13.553 -23.039,9.486 z"
   id="path878" />
</g></g>

</svg>
