<?xml version="1.0" encoding="UTF-8" standalone="no"?>
<!-- Uploaded to: SVG Repo, www.svgrepo.com, Transformed by: SVG Repo Mixer Tools -->

<svg
   version="1.1"
   id="Layer_1"
   viewBox="0 0 504 504"
   xml:space="preserve"
   width="256px"
   height="256px"
   fill="#000000"
   sodipodi:docname="desktop.svg"
   inkscape:version="1.2.2 (b0a8486541, 2022-12-01)"
   xmlns:inkscape="http://www.inkscape.org/namespaces/inkscape"
   xmlns:sodipodi="http://sodipodi.sourceforge.net/DTD/sodipodi-0.dtd"
   xmlns="http://www.w3.org/2000/svg"
   xmlns:svg="http://www.w3.org/2000/svg"><defs
   id="defs54" /><sodipodi:namedview
   id="namedview52"
   pagecolor="#ffffff"
   bordercolor="#000000"
   borderopacity="0.25"
   inkscape:showpageshadow="2"
   inkscape:pageopacity="0.0"
   inkscape:pagecheckerboard="0"
   inkscape:deskcolor="#d1d1d1"
   showgrid="false"
   inkscape:zoom="2.4375"
   inkscape:cx="128"
   inkscape:cy="128.20513"
   inkscape:window-width="1920"
   inkscape:window-height="993"
   inkscape:window-x="0"
   inkscape:window-y="0"
   inkscape:window-maximized="1"
   inkscape:current-layer="SVGRepo_iconCarrier" />

<g
   id="SVGRepo_bgCarrier"
   stroke-width="0" />

<g
   id="SVGRepo_tracerCarrier"
   stroke-linecap="round"
   stroke-linejoin="round" />

<g
   id="SVGRepo_iconCarrier">  <path
   style="fill:#3584e4;stroke-width:1.55384"
   d="M 479.04667,8.0769231 H 27.376415 c -10.583591,0 -19.2994919,8.5320559 -19.2994919,19.2359009 v 318.323086 54.76025 c 0,10.54871 8.5602539,19.2359 19.2994919,19.2359 H 479.04667 c 10.58359,0 19.29948,-8.53205 19.29948,-19.2359 V 345.63591 27.312824 c 0,-10.703845 -8.56025,-19.2359009 -19.29948,-19.2359009 z"
   id="path6" /> <path
   style="fill:#3584e4;stroke-width:1.55384"
   d="M 377.1018,496.73077 H 129.32128 c -6.38129,0 -10.42795,-6.67051 -7.47077,-12.25512 l 34.08539,-64.84359 h 194.55128 l 34.08539,64.84359 c 2.95717,5.58461 -1.24514,12.25512 -7.47077,12.25512 z"
   id="path8" /> <rect
   x="32.668213"
   y="32.587189"
   style="fill:#e6e9ee;stroke-width:1.55384"
   width="441.24231"
   height="313.20383"
   id="rect10" /> <ellipse
   style="fill:#ffffff;stroke-width:1.55384"
   cx="253.21152"
   cy="382.5564"
   id="circle12"
   rx="21.789743"
   ry="21.717949" />       <g
   id="g268"
   transform="matrix(1.8202151,0,0,1.2834704,-209.78975,-54.819115)"><rect
     x="-78.226799"
     y="-446.95581"
     transform="matrix(-0.70827266,0.70593898,-0.70827266,-0.70593898,0,0)"
     style="fill:#ffd05b;stroke-width:1.55384"
     width="66.659454"
     height="268.3439"
     id="rect14" /><g
     id="g34"
     transform="matrix(1.5564103,0,0,1.551282,-139.00385,-138.51923)"> <rect
   x="182.625"
   y="164.508"
   transform="matrix(-0.7071,0.7071,-0.7071,-0.7071,445.1377,153.0334)"
   style="fill:#f9b54c"
   width="16.5"
   height="8.3999996"
   id="rect16" /> <rect
   x="194.487"
   y="174.927"
   transform="matrix(-0.7071,0.7071,-0.7071,-0.7071,478.816,159.9217)"
   style="fill:#f9b54c"
   width="23.6"
   height="8.3999996"
   id="rect18" /> <rect
   x="208.522"
   y="190.418"
   transform="matrix(-0.7071,0.7071,-0.7071,-0.7071,507.6691,178.952)"
   style="fill:#f9b54c"
   width="16.5"
   height="8.3999996"
   id="rect20" /> <rect
   x="220.381"
   y="200.83701"
   transform="matrix(-0.7071,0.7071,-0.7071,-0.7071,541.3406,185.8432)"
   style="fill:#f9b54c"
   width="23.6"
   height="8.3999996"
   id="rect22" /> <rect
   x="234.42"
   y="216.328"
   transform="matrix(-0.7071,0.7071,-0.7071,-0.7071,570.2005,204.8707)"
   style="fill:#f9b54c"
   width="16.5"
   height="8.3999996"
   id="rect24" /> <rect
   x="246.27901"
   y="226.74699"
   transform="matrix(-0.7071,0.7071,-0.7071,-0.7071,603.8719,211.7618)"
   style="fill:#f9b54c"
   width="23.6"
   height="8.3999996"
   id="rect26" /> <rect
   x="260.30801"
   y="242.23801"
   transform="matrix(-0.7071,0.7071,-0.7071,-0.7071,632.7148,230.7964)"
   style="fill:#f9b54c"
   width="16.5"
   height="8.3999996"
   id="rect28" /> <rect
   x="272.30801"
   y="252.66701"
   transform="matrix(-0.7071,0.7071,-0.7071,-0.7071,666.6348,237.6046)"
   style="fill:#f9b54c"
   width="23.6"
   height="8.3999996"
   id="rect30" /> <rect
   x="286.276"
   y="268.08701"
   transform="matrix(-0.7071,0.7071,-0.7071,-0.7071,695.324,256.5614)"
   style="fill:#f9b54c"
   width="16.5"
   height="8.3999996"
   id="rect32" /> </g><rect
     x="277.17026"
     y="-136.42493"
     transform="matrix(0.70827266,0.70593898,-0.70827266,0.70593898,0,0)"
     style="fill:#ff6600;stroke-width:1.55384"
     width="35.582787"
     height="199.04449"
     id="rect36" /><rect
     x="312.63519"
     y="-136.40359"
     transform="matrix(0.70827266,0.70593898,-0.70827266,0.70593898,0,0)"
     style="fill:#ff7f2a;stroke-width:1.55384"
     width="35.582787"
     height="199.04449"
     id="rect38" /><path
     style="fill:#4cdbc4;stroke-width:1.55384"
     d="m 151.88923,239.83845 -13.38512,13.34104 c -5.13616,5.11924 -5.13616,13.49616 0,18.61538 l 31.75076,31.64615 c 5.13615,5.11924 13.54077,5.11924 18.67693,0 l 13.38512,-13.34101 z"
     id="path40" /><g
     id="g46"
     transform="matrix(1.5564103,0,0,1.551282,-139.00385,-138.51923)"> <rect
   x="186.33299"
   y="245.155"
   transform="matrix(-0.7071,-0.7071,0.7071,-0.7071,177.68,581.3071)"
   style="fill:#3584e4"
   width="45.799999"
   height="17.4"
   id="rect42" /> <polygon
   style="fill:#3584e4"
   points="322.4,151 328.2,135 312.2,140.8 "
   id="polygon44" /> </g><polygon
     style="fill:#ac9d93"
     points="322.4,151 312.2,140.8 277.5,153.3 309.9,185.7 "
     id="polygon48"
     transform="matrix(1.5564103,0,0,1.551282,-139.00385,-138.51923)" /></g> <g
   id="g325"
   transform="matrix(1.0175503,0,0,1.0075247,-135.70854,124.14172)"> <rect
   x="228.021"
   y="113.143"
   transform="matrix(0.7071,-0.7071,0.7071,0.7071,-106.0178,256.0051)"
   style="fill:#e21b1b"
   width="55.991001"
   height="285.66901"
   id="rect321" /> <rect
   x="113.164"
   y="227.968"
   transform="matrix(0.7071,-0.7071,0.7071,0.7071,-106.0134,255.9885)"
   style="fill:#e21b1b"
   width="285.66901"
   height="55.991001"
   id="rect323" /> </g></g>

</svg>
