<?xml version="1.0" encoding="UTF-8" standalone="no"?>
<!-- Uploaded to: SVG Repo, www.svgrepo.com, Transformed by: SVG Repo Mixer Tools -->

<svg
   width="256px"
   height="256px"
   viewBox="0 0 24.00 24.00"
   version="1.1"
   fill="#000000"
   id="svg12"
   sodipodi:docname="izometripage.svg"
   inkscape:version="1.2.2 (b0a8486541, 2022-12-01)"
   xmlns:inkscape="http://www.inkscape.org/namespaces/inkscape"
   xmlns:sodipodi="http://sodipodi.sourceforge.net/DTD/sodipodi-0.dtd"
   xmlns:xlink="http://www.w3.org/1999/xlink"
   xmlns="http://www.w3.org/2000/svg"
   xmlns:svg="http://www.w3.org/2000/svg">
  <defs
     id="defs16">
    <clipPath
       clipPathUnits="userSpaceOnUse"
       id="clipPath626">
      <use
         x="0"
         y="0"
         xlink:href="#g622"
         id="use628" />
    </clipPath>
    <clipPath
       clipPathUnits="userSpaceOnUse"
       id="clipPath647">
      <use
         x="0"
         y="0"
         xlink:href="#g643"
         id="use649" />
    </clipPath>
  </defs>
  <sodipodi:namedview
     id="namedview14"
     pagecolor="#ffffff"
     bordercolor="#000000"
     borderopacity="0.25"
     inkscape:showpageshadow="2"
     inkscape:pageopacity="0.0"
     inkscape:pagecheckerboard="0"
     inkscape:deskcolor="#d1d1d1"
     showgrid="false"
     inkscape:zoom="0.921875"
     inkscape:cx="233.76271"
     inkscape:cy="128"
     inkscape:window-width="1366"
     inkscape:window-height="672"
     inkscape:window-x="0"
     inkscape:window-y="0"
     inkscape:window-maximized="1"
     inkscape:current-layer="SVGRepo_iconCarrier" />
  <g
     id="SVGRepo_bgCarrier"
     stroke-width="0" />
  <g
     id="SVGRepo_tracerCarrier"
     stroke-linecap="round"
     stroke-linejoin="round"
     stroke="#CCCCCC"
     stroke-width="0.048" />
  <g
     id="SVGRepo_iconCarrier">
    <title
       id="title4">dot_grid_line</title>
    <g
       id="页面-1-3"
       stroke-width="0.00024"
       fill="none"
       fill-rule="evenodd"
       transform="matrix(1.0543,0,0,1.0649272,7.5982566,-4.7413955)">
      <path
         d="M 24,0 V 24 H 0 V 0 Z m -11.40651,23.25784 -0.0115,0.002 -0.0711,0.0355 -0.019,0.004 v 0 l -0.0152,-0.004 -0.0711,-0.0355 c -0.01,-0.003 -0.0186,-4.9e-4 -0.0235,0.005 l -0.004,0.0109 -0.0171,0.42728 0.005,0.0204 0.011,0.0122 0.10357,0.074 0.0149,0.004 v 0 l 0.0118,-0.004 0.10358,-0.074 0.0126,-0.016 v 0 l 0.003,-0.0166 -0.0171,-0.42728 c -0.002,-0.0101 -0.009,-0.0165 -0.0161,-0.018 z m 0.2649,-0.11255 -0.0138,0.002 -0.1847,0.0924 -0.01,0.0102 v 0 l -0.003,0.0112 0.0179,0.42952 0.005,0.0128 v 0 l 0.009,0.007 0.20095,0.0928 c 0.0121,0.004 0.0229,-2.5e-4 0.0285,-0.008 l 0.004,-0.0141 -0.0341,-0.61463 c -0.002,-0.0119 -0.0103,-0.0195 -0.0193,-0.0212 z m -0.71534,0.002 c -0.01,-0.005 -0.0209,-0.002 -0.0274,0.005 l -0.006,0.0139 -0.0342,0.61463 c -6.4e-4,0.0115 0.007,0.0207 0.0169,0.0234 l 0.0156,-0.001 0.20095,-0.0928 0.009,-0.008 v 0 l 0.004,-0.0118 0.0179,-0.42953 -0.003,-0.0126 v 0 l -0.01,-0.009 z"
         id="MingCute-5"
         fill-rule="nonzero" />
      <g
         id="g615"
         clip-path="none">
        <g
           inkscape:label="Clip"
           id="g613">
          <path
             d="m -5.6439,19.53805 c 0.82843,0 1.5,0.6716 1.5,1.5 0,0.8284 -0.67157,1.5 -1.5,1.5 -0.82843,0 -1.5,-0.6716 -1.5,-1.5 0,-0.8284 0.67157,-1.5 1.5,-1.5 z m 6.5,0 c 0.8284,0 1.5,0.6716 1.5,1.5 0,0.8284 -0.6716,1.5 -1.5,1.5 -0.8284,0 -1.5,-0.6716 -1.5,-1.5 0,-0.8284 0.6716,-1.5 1.5,-1.5 z m 6.5,0 c 0.8284,0 1.5,0.6716 1.5,1.5 0,0.8284 -0.6716,1.5 -1.5,1.5 -0.8284,0 -1.5,-0.6716 -1.5,-1.5 0,-0.8284 0.6716,-1.5 1.5,-1.5 z m -13,-6.5 c 0.82843,0 1.5,0.6716 1.5,1.5 0,0.8284 -0.67157,1.5 -1.5,1.5 -0.82843,0 -1.5,-0.6716 -1.5,-1.5 0,-0.8284 0.67157,-1.5 1.5,-1.5 z m 6.5,0 c 0.8284,0 1.5,0.6716 1.5,1.5 0,0.8284 -0.6716,1.5 -1.5,1.5 -0.8284,0 -1.5,-0.6716 -1.5,-1.5 0,-0.8284 0.6716,-1.5 1.5,-1.5 z m 6.5,0 c 0.8284,0 1.5,0.6716 1.5,1.5 0,0.8284 -0.6716,1.5 -1.5,1.5 -0.8284,0 -1.5,-0.6716 -1.5,-1.5 0,-0.8284 0.6716,-1.5 1.5,-1.5 z m -13,-6.5 c 0.82843,0 1.5,0.67157 1.5,1.5 0,0.82843 -0.67157,1.5 -1.5,1.5 -0.82843,0 -1.5,-0.67157 -1.5,-1.5 0,-0.82843 0.67157,-1.5 1.5,-1.5 z m 6.5,0 c 0.8284,0 1.5,0.67157 1.5,1.5 0,0.82843 -0.6716,1.5 -1.5,1.5 -0.8284,0 -1.5,-0.67157 -1.5,-1.5 0,-0.82843 0.6716,-1.5 1.5,-1.5 z m 6.5,0 c 0.8284,0 1.5,0.67157 1.5,1.5 0,0.82843 -0.6716,1.5 -1.5,1.5 -0.8284,0 -1.5,-0.67157 -1.5,-1.5 0,-0.82843 0.6716,-1.5 1.5,-1.5 z M 0.9675,19.57246 c 0.82843,0 1.5,0.6716 1.5,1.5 0,0.8284 -0.67157,1.5 -1.5,1.5 -0.82843,0 -1.5,-0.6716 -1.5,-1.5 0,-0.8284 0.67157,-1.5 1.5,-1.5 z m 6.5,0 c 0.8284,0 1.5,0.6716 1.5,1.5 0,0.8284 -0.6716,1.5 -1.5,1.5 -0.8284,0 -1.5,-0.6716 -1.5,-1.5 0,-0.8284 0.6716,-1.5 1.5,-1.5 z m 6.5,0 c 0.82841,0 1.50001,0.6716 1.50001,1.5 0,0.8284 -0.6716,1.5 -1.50001,1.5 -0.8284,0 -1.5,-0.6716 -1.5,-1.5 0,-0.8284 0.6716,-1.5 1.5,-1.5 z m -13,-6.5 c 0.82843,0 1.5,0.6716 1.5,1.5 0,0.8284 -0.67157,1.5 -1.5,1.5 -0.82843,0 -1.5,-0.6716 -1.5,-1.5 0,-0.8284 0.67157,-1.5 1.5,-1.5 z m 6.5,0 c 0.8284,0 1.5,0.6716 1.5,1.5 0,0.8284 -0.6716,1.5 -1.5,1.5 -0.8284,0 -1.5,-0.6716 -1.5,-1.5 0,-0.8284 0.6716,-1.5 1.5,-1.5 z m 6.5,0 c 0.82841,0 1.50001,0.6716 1.50001,1.5 0,0.8284 -0.6716,1.5 -1.50001,1.5 -0.8284,0 -1.5,-0.6716 -1.5,-1.5 0,-0.8284 0.6716,-1.5 1.5,-1.5 z m -13,-6.5 c 0.82843,0 1.5,0.67157 1.5,1.5 0,0.82843 -0.67157,1.5 -1.5,1.5 -0.82843,0 -1.5,-0.67157 -1.5,-1.5 0,-0.82843 0.67157,-1.5 1.5,-1.5 z m 6.5,0 c 0.8284,0 1.5,0.67157 1.5,1.5 0,0.82843 -0.6716,1.5 -1.5,1.5 -0.8284,0 -1.5,-0.67157 -1.5,-1.5 0,-0.82843 0.6716,-1.5 1.5,-1.5 z m 6.5,0 c 0.82841,0 1.50001,0.67157 1.50001,1.5 0,0.82843 -0.6716,1.5 -1.50001,1.5 -0.8284,0 -1.5,-0.67157 -1.5,-1.5 0,-0.82843 0.6716,-1.5 1.5,-1.5 z"
             id="形状-3-6"
             fill="#000000"
             style="fill-rule:nonzero" />
        </g>
      </g>
      <g
         id="g645"
         clip-path="url(#clipPath647)">
        <g
           inkscape:label="Clip"
           id="g643">
          <use
             x="0"
             y="0"
             xlink:href="#g613"
             id="use619" />
        </g>
      </g>
    </g>
    <g
       id="g624"
       clip-path="url(#clipPath626)"
       transform="matrix(1.0543,0,0,1.0649272,0.93656344,1.2783769)">
      <g
         inkscape:label="Clip"
         id="g622">
        <path
           d="m -2.30418,16.5071 c 0.82843,0 1.5,0.6716 1.5,1.5 0,0.8284 -0.67157,1.5 -1.5,1.5 -0.82843,0 -1.5,-0.6716 -1.5,-1.5 0,-0.8284 0.67157,-1.5 1.5,-1.5 z m 6.5,0 c 0.8284,0 1.5,0.6716 1.5,1.5 0,0.8284 -0.6716,1.5 -1.5,1.5 -0.8284,0 -1.5,-0.6716 -1.5,-1.5 0,-0.8284 0.6716,-1.5 1.5,-1.5 z m 6.5,0 c 0.8284,0 1.5,0.6716 1.5,1.5 0,0.8284 -0.6716,1.5 -1.5,1.5 -0.8284,0 -1.5,-0.6716 -1.5,-1.5 0,-0.8284 0.6716,-1.5 1.5,-1.5 z m -13,-6.5 c 0.82843,0 1.5,0.6716 1.5,1.5 0,0.8284 -0.67157,1.5 -1.5,1.5 -0.82843,0 -1.5,-0.6716 -1.5,-1.5 0,-0.8284 0.67157,-1.5 1.5,-1.5 z m 6.5,0 c 0.8284,0 1.5,0.6716 1.5,1.5 0,0.8284 -0.6716,1.5 -1.5,1.5 -0.8284,0 -1.5,-0.6716 -1.5,-1.5 0,-0.8284 0.6716,-1.5 1.5,-1.5 z m 6.5,0 c 0.8284,0 1.5,0.6716 1.5,1.5 0,0.8284 -0.6716,1.5 -1.5,1.5 -0.8284,0 -1.5,-0.6716 -1.5,-1.5 0,-0.8284 0.6716,-1.5 1.5,-1.5 z m -13,-6.5 c 0.82843,0 1.5,0.67157 1.5,1.5 0,0.82843 -0.67157,1.5 -1.5,1.5 -0.82843,0 -1.5,-0.67157 -1.5,-1.5 0,-0.82843 0.67157,-1.5 1.5,-1.5 z m 6.5,0 c 0.8284,0 1.5,0.67157 1.5,1.5 0,0.82843 -0.6716,1.5 -1.5,1.5 -0.8284,0 -1.5,-0.67157 -1.5,-1.5 0,-0.82843 0.6716,-1.5 1.5,-1.5 z m 6.5,0 c 0.8284,0 1.5,0.67157 1.5,1.5 0,0.82843 -0.6716,1.5 -1.5,1.5 -0.8284,0 -1.5,-0.67157 -1.5,-1.5 0,-0.82843 0.6716,-1.5 1.5,-1.5 z m -6.3886,13.03441 c 0.82843,0 1.5,0.6716 1.5,1.5 0,0.8284 -0.67157,1.5 -1.5,1.5 -0.82843,0 -1.5,-0.6716 -1.5,-1.5 0,-0.8284 0.67157,-1.5 1.5,-1.5 z m 6.5,0 c 0.8284,0 1.5,0.6716 1.5,1.5 0,0.8284 -0.6716,1.5 -1.5,1.5 -0.8284,0 -1.5,-0.6716 -1.5,-1.5 0,-0.8284 0.6716,-1.5 1.5,-1.5 z m 6.5,0 c 0.82841,0 1.50001,0.6716 1.50001,1.5 0,0.8284 -0.6716,1.5 -1.50001,1.5 -0.8284,0 -1.5,-0.6716 -1.5,-1.5 0,-0.8284 0.6716,-1.5 1.5,-1.5 z m -13,-6.5 c 0.82843,0 1.5,0.6716 1.5,1.5 0,0.8284 -0.67157,1.5 -1.5,1.5 -0.82843,0 -1.5,-0.6716 -1.5,-1.5 0,-0.8284 0.67157,-1.5 1.5,-1.5 z m 6.5,0 c 0.8284,0 1.5,0.6716 1.5,1.5 0,0.8284 -0.6716,1.5 -1.5,1.5 -0.8284,0 -1.5,-0.6716 -1.5,-1.5 0,-0.8284 0.6716,-1.5 1.5,-1.5 z m 6.5,0 c 0.82841,0 1.50001,0.6716 1.50001,1.5 0,0.8284 -0.6716,1.5 -1.50001,1.5 -0.8284,0 -1.5,-0.6716 -1.5,-1.5 0,-0.8284 0.6716,-1.5 1.5,-1.5 z m -13,-6.5 c 0.82843,0 1.5,0.67157 1.5,1.5 0,0.82843 -0.67157,1.5 -1.5,1.5 -0.82843,0 -1.5,-0.67157 -1.5,-1.5 0,-0.82843 0.67157,-1.5 1.5,-1.5 z m 6.5,0 c 0.8284,0 1.5,0.67157 1.5,1.5 0,0.82843 -0.6716,1.5 -1.5,1.5 -0.8284,0 -1.5,-0.67157 -1.5,-1.5 0,-0.82843 0.6716,-1.5 1.5,-1.5 z m 6.5,0 c 0.82841,0 1.50001,0.67157 1.50001,1.5 0,0.82843 -0.6716,1.5 -1.50001,1.5 -0.8284,0 -1.5,-0.67157 -1.5,-1.5 0,-0.82843 0.6716,-1.5 1.5,-1.5 z"
           id="形状-3"
           fill="#000000"
           style="fill-rule:nonzero" />
      </g>
    </g>
  </g>
</svg>
