<?xml version="1.0" encoding="UTF-8" standalone="no"?>
<!-- Uploaded to: SVG Repo, www.svgrepo.com, Transformed by: SVG Repo Mixer Tools -->

<svg
   width="256px"
   height="256px"
   viewBox="0 0 1024 1024"
   class="icon"
   version="1.1"
   fill="#3584e4"
   stroke="#3584e4"
   stroke-width="0.01024"
   id="svg165"
   sodipodi:docname="pdfopen.svg"
   inkscape:version="1.2.2 (b0a8486541, 2022-12-01)"
   xmlns:inkscape="http://www.inkscape.org/namespaces/inkscape"
   xmlns:sodipodi="http://sodipodi.sourceforge.net/DTD/sodipodi-0.dtd"
   xmlns="http://www.w3.org/2000/svg"
   xmlns:svg="http://www.w3.org/2000/svg">
  <defs
     id="defs169" />
  <sodipodi:namedview
     id="namedview167"
     pagecolor="#ffffff"
     bordercolor="#000000"
     borderopacity="0.25"
     inkscape:showpageshadow="2"
     inkscape:pageopacity="0.0"
     inkscape:pagecheckerboard="0"
     inkscape:deskcolor="#d1d1d1"
     showgrid="false"
     inkscape:zoom="1.21875"
     inkscape:cx="-0.82051282"
     inkscape:cy="157.12821"
     inkscape:window-width="1920"
     inkscape:window-height="993"
     inkscape:window-x="0"
     inkscape:window-y="0"
     inkscape:window-maximized="1"
     inkscape:current-layer="SVGRepo_iconCarrier" />
  <g
     id="SVGRepo_bgCarrier"
     stroke-width="0" />
  <g
     id="SVGRepo_tracerCarrier"
     stroke-linecap="round"
     stroke-linejoin="round" />
  <g
     id="SVGRepo_iconCarrier"
     transform="matrix(1.2323675,0,0,1.4862064,-154.30532,-220.73072)">
    <path
       d="m 582.4,384 c 0,14.08 -11.52,25.6 -25.6,25.6 l -384,409.6 c -14.08,0 -25.6,-11.52 -25.6,-25.6 V 192 c 0,-14.08 11.52,-25.6 25.6,-25.6 h 230.4 c 14.08,0 25.6,11.52 25.6,25.6 z"
       fill="#deddda"
       id="path156" />
    <path
       d="m 177.92,832 h -5.12 c -21.76,0 -38.4,-16.64 -38.4,-38.4 V 192 c 0,-21.76 16.64,-38.4 38.4,-38.4 h 230.4 c 19.2,0 35.84,14.08 38.4,33.28 l 153.6,192 V 384 c 0,19.2 -14.08,34.56 -32,38.4 z M 172.8,179.2 c -7.68,0 -12.8,5.12 -12.8,12.8 v 601.6 c 0,5.12 3.84,10.24 7.68,11.52 L 550.4,396.8 h 5.12 c 5.12,0 10.24,-3.84 12.8,-8.96 L 414.72,197.12 V 192 c 0,-7.68 -5.12,-12.8 -12.8,-12.8 z"
       fill="#f66151"
       id="path158"
       style="fill:#d38d5f" />
    <path
       d="m 864,793.6 c 0,14.08 -11.52,25.6 -25.6,25.6 H 172.8 c -14.08,0 -25.6,-11.52 -25.6,-25.6 l 64,-512 c 0,-14.08 11.52,-25.6 25.6,-25.6 h 678.4 c 14.08,0 25.6,11.52 25.6,25.6 z"
       fill="#deddda"
       id="path160" />
    <path
       d="M 849.84348,832 H 173.42418 C 151.31048,832 134.4,815.61019 134.4,794.17735 v -1.26075 l 65.04031,-503.04133 c 0,-20.17209 18.21129,-36.56191 39.02419,-36.56191 h 689.42736 c 22.1137,0 39.02419,16.38982 39.02419,37.82266 v 1.26076 L 888.86767,795.4381 C 887.56686,815.61019 870.65638,832 849.84348,832 Z M 160.41612,795.4381 c 0,6.30378 6.50403,11.3468 13.00806,11.3468 h 676.4193 c 7.80484,0 13.00806,-5.04302 13.00806,-12.60755 v -1.26075 l 78.04838,-503.04133 c 0,-6.30379 -6.50403,-11.3468 -13.00806,-11.3468 H 238.4645 c -7.80484,0 -13.00806,5.04301 -13.00806,12.60755 v 1.26076 z"
       fill="#f66151"
       id="path162"
       style="stroke-width:0.010245;fill:#d38d5f" />
  </g>
  <path
     style="fill:#f15642;stroke-width:2.59724"
     d="m 884.558,910.48212 c 0,28.66995 -14.21704,52.12725 -31.59349,52.12725 H 157.90732 c -17.37644,0 -31.59352,-23.4573 -31.59352,-52.12725 V 389.21014 c 0,-28.66991 14.21708,-52.12718 31.59352,-52.12718 h 695.05719 c 17.37645,0 31.59349,23.45727 31.59349,52.12718 z"
     id="path136-3" />
  <g
     id="g144"
     transform="matrix(2.7776142,0,0,6.2870229,-118.8365,-1480.6907)"> <path
   style="fill:#ffffff"
   d="m 101.744,303.152 c 0,-4.224 3.328,-8.832 8.688,-8.832 h 29.552 c 16.64,0 31.616,11.136 31.616,32.48 0,20.224 -14.976,31.488 -31.616,31.488 h -21.36 v 16.896 c 0,5.632 -3.584,8.816 -8.192,8.816 -4.224,0 -8.688,-3.184 -8.688,-8.816 z m 16.88,7.28 v 31.872 h 21.36 c 8.576,0 15.36,-7.568 15.36,-15.504 0,-8.944 -6.784,-16.368 -15.36,-16.368 z"
   id="path138" />
 <path
   style="fill:#ffffff"
   d="m 196.656,384 c -4.224,0 -8.832,-2.304 -8.832,-7.92 v -72.672 c 0,-4.592 4.608,-7.936 8.832,-7.936 h 29.296 c 58.464,0 57.184,88.528 1.152,88.528 z m 8.064,-72.912 V 368.4 h 21.232 c 34.544,0 36.08,-57.312 0,-57.312 z"
   id="path140" />
 <path
   style="fill:#ffffff"
   d="m 303.872,312.112 v 20.336 h 32.624 c 4.608,0 9.216,4.608 9.216,9.072 0,4.224 -4.608,7.68 -9.216,7.68 h -32.624 v 26.864 c 0,4.48 -3.184,7.92 -7.664,7.92 -5.632,0 -9.072,-3.44 -9.072,-7.92 v -72.672 c 0,-4.592 3.456,-7.936 9.072,-7.936 h 44.912 c 5.632,0 8.96,3.344 8.96,7.936 0,4.096 -3.328,8.704 -8.96,8.704 h -37.248 z"
   id="path142" />
 </g>
</svg>
