<?xml version="1.0" encoding="UTF-8" standalone="no"?>
<!-- Uploaded to: SVG Repo, www.svgrepo.com, Transformed by: SVG Repo Mixer Tools -->

<svg
   height="800px"
   width="800px"
   version="1.1"
   id="Layer_1"
   viewBox="0 0 503.467 503.467"
   xml:space="preserve"
   fill="#000000"
   sodipodi:docname="pdfsave.svg"
   inkscape:version="1.2.2 (b0a8486541, 2022-12-01)"
   xmlns:inkscape="http://www.inkscape.org/namespaces/inkscape"
   xmlns:sodipodi="http://sodipodi.sourceforge.net/DTD/sodipodi-0.dtd"
   xmlns="http://www.w3.org/2000/svg"
   xmlns:svg="http://www.w3.org/2000/svg"><defs
   id="defs22" /><sodipodi:namedview
   id="namedview20"
   pagecolor="#ffffff"
   bordercolor="#000000"
   borderopacity="0.25"
   inkscape:showpageshadow="2"
   inkscape:pageopacity="0.0"
   inkscape:pagecheckerboard="0"
   inkscape:deskcolor="#d1d1d1"
   showgrid="false"
   inkscape:zoom="0.78"
   inkscape:cx="400"
   inkscape:cy="400.64103"
   inkscape:window-width="1920"
   inkscape:window-height="993"
   inkscape:window-x="0"
   inkscape:window-y="0"
   inkscape:window-maximized="1"
   inkscape:current-layer="Layer_1" />

<g
   id="SVGRepo_bgCarrier"
   stroke-width="0" />

<g
   id="SVGRepo_tracerCarrier"
   stroke-linecap="round"
   stroke-linejoin="round" />

<g
   id="SVGRepo_iconCarrier"> <g
   transform="translate(1 1)"
   id="g14"> <g
   id="g10"> <polygon
   style="fill:#ECF4F7;"
   points="276.333,122.733 344.6,122.733 344.6,3.267 276.333,3.267 "
   id="polygon4" /> <polygon
   style="fill:#ECF4F7;"
   points="378.733,3.267 378.733,156.867 122.733,156.867 122.733,3.267 276.333,3.267 276.333,122.733 344.6,122.733 344.6,3.267 "
   id="polygon6" /> <polygon
   style="fill:#ECF4F7;"
   points="88.6,498.2 412.867,498.2 412.867,276.333 88.6,276.333 "
   id="polygon8" /> </g> <path
   style="fill:#62a0ea;"
   d="M498.2,88.6v375.467c0,18.773-15.36,34.133-34.133,34.133h-51.2V276.333H88.6V498.2H37.4 c-18.773,0-34.133-15.36-34.133-34.133V37.4c0-18.773,15.36-34.133,34.133-34.133h85.333v153.6h256V3.267h34.133L498.2,88.6z"
   id="path12" /> </g> <path
   style="fill:#51565F;"
   d="M465.067,503.467h-51.2c-2.56,0-4.267-1.707-4.267-4.267V281.6H93.867v183.467 c0,2.56-1.707,4.267-4.267,4.267c-2.56,0-4.267-1.707-4.267-4.267V277.333c0-2.56,1.707-4.267,4.267-4.267h324.267 c2.56,0,4.267,1.707,4.267,4.267v217.6h46.933c16.213,0,29.867-13.653,29.867-29.867V91.307L412.16,8.533h-62.293v115.2 c0,2.56-1.707,4.267-4.267,4.267h-68.267c-2.56,0-4.267-1.707-4.267-4.267V4.267c0-2.56,1.707-4.267,4.267-4.267h34.133 c2.56,0,4.267,1.707,4.267,4.267s-1.707,4.267-4.267,4.267H281.6v110.933h59.733V6.827c-0.853-0.853-0.853-1.707-0.853-2.56 c0-2.56,1.707-4.267,4.267-4.267h69.12c0.853,0,2.56,0.853,3.413,0.853l85.333,85.333c0.853,0.853,0.853,1.707,0.853,3.413v375.467 C503.467,486.4,486.4,503.467,465.067,503.467z M379.733,503.467H38.4c-21.333,0-38.4-17.067-38.4-38.4V38.4 C0,17.067,17.067,0,38.4,0h51.2c2.56,0,4.267,1.707,4.267,4.267S92.16,8.533,89.6,8.533H38.4C22.187,8.533,8.533,22.187,8.533,38.4 v426.667c0,16.213,13.653,29.867,29.867,29.867h341.333c2.56,0,4.267,1.707,4.267,4.267C384,501.76,382.293,503.467,379.733,503.467 z M328.533,418.133h-153.6c-2.56,0-4.267-1.707-4.267-4.267c0-2.56,1.707-4.267,4.267-4.267h153.6c2.56,0,4.267,1.707,4.267,4.267 C332.8,416.427,331.093,418.133,328.533,418.133z M328.533,366.933h-153.6c-2.56,0-4.267-1.707-4.267-4.267s1.707-4.267,4.267-4.267 h153.6c2.56,0,4.267,1.707,4.267,4.267S331.093,366.933,328.533,366.933z M379.733,162.133h-256c-2.56,0-4.267-1.707-4.267-4.267 V4.267c0-2.56,1.707-4.267,4.267-4.267H243.2c2.56,0,4.267,1.707,4.267,4.267s-1.707,4.267-4.267,4.267H128V153.6h247.467V38.4 c0-2.56,1.707-4.267,4.267-4.267c2.56,0,4.267,1.707,4.267,4.267v119.467C384,160.427,382.293,162.133,379.733,162.133z"
   id="path16" /> </g>

<path
   style="fill:#f15642;stroke-width:1.26739"
   d="m 438.99791,469.67167 c 0,14.03295 -6.91651,25.51446 -15.37004,25.51446 H 85.48699 c -8.453529,0 -15.370046,-11.48151 -15.370046,-25.51446 V 214.52706 c 0,-14.03293 6.916517,-25.51445 15.370046,-25.51445 h 338.14088 c 8.45353,0 15.37004,11.48152 15.37004,25.51445 z"
   id="path136-3" /><g
   id="g144"
   transform="matrix(1.3512916,0,0,3.0772803,-49.147118,-700.72478)"> <path
   style="fill:#ffffff"
   d="m 101.744,303.152 c 0,-4.224 3.328,-8.832 8.688,-8.832 h 29.552 c 16.64,0 31.616,11.136 31.616,32.48 0,20.224 -14.976,31.488 -31.616,31.488 h -21.36 v 16.896 c 0,5.632 -3.584,8.816 -8.192,8.816 -4.224,0 -8.688,-3.184 -8.688,-8.816 z m 16.88,7.28 v 31.872 h 21.36 c 8.576,0 15.36,-7.568 15.36,-15.504 0,-8.944 -6.784,-16.368 -15.36,-16.368 z"
   id="path138" /> <path
   style="fill:#ffffff"
   d="m 196.656,384 c -4.224,0 -8.832,-2.304 -8.832,-7.92 v -72.672 c 0,-4.592 4.608,-7.936 8.832,-7.936 h 29.296 c 58.464,0 57.184,88.528 1.152,88.528 z m 8.064,-72.912 V 368.4 h 21.232 c 34.544,0 36.08,-57.312 0,-57.312 z"
   id="path140" /> <path
   style="fill:#ffffff"
   d="m 303.872,312.112 v 20.336 h 32.624 c 4.608,0 9.216,4.608 9.216,9.072 0,4.224 -4.608,7.68 -9.216,7.68 h -32.624 v 26.864 c 0,4.48 -3.184,7.92 -7.664,7.92 -5.632,0 -9.072,-3.44 -9.072,-7.92 v -72.672 c 0,-4.592 3.456,-7.936 9.072,-7.936 h 44.912 c 5.632,0 8.96,3.344 8.96,7.936 0,4.096 -3.328,8.704 -8.96,8.704 h -37.248 z"
   id="path142" /> </g></svg>
