<!DOCTYPE svg PUBLIC "-//W3C//DTD SVG 1.1//EN" "http://www.w3.org/Graphics/SVG/1.1/DTD/svg11.dtd">
<!-- Uploaded to: SVG Repo, www.svgrepo.com, Transformed by: SVG Repo Mixer Tools -->
<svg width="256px" height="256px" viewBox="0 0 14 14" role="img" focusable="false" aria-hidden="true" xmlns="http://www.w3.org/2000/svg" fill="#000000">
<g id="SVGRepo_bgCarrier" stroke-width="0"/>
<g id="SVGRepo_tracerCarrier" stroke-linecap="round" stroke-linejoin="round"/>
<g id="SVGRepo_iconCarrier"> <g transform="matrix(.3 0 0 .3 -.2 .1)"> <path fill="#424242" d="M9 11h30v3H9z"/> <path fill="#616161" d="M4 25h40v-7c0-2.2-1.8-4-4-4H8c-2.2 0-4 1.8-4 4v7z"/> <path fill="#424242" d="M8 36h32c2.2 0 4-1.8 4-4v-8H4v8c0 2.2 1.8 4 4 4z"/> <circle cx="40" cy="18" r="1" fill="#00e676"/> <path fill="#90caf9" d="M11 4h26v10H11z"/> <path fill="#242424" d="M37.5 31h-27c-.8 0-1.5-.7-1.5-1.5s.7-1.5 1.5-1.5h27c.8 0 1.5.7 1.5 1.5s-.7 1.5-1.5 1.5z"/> <path fill="#90caf9" d="M11 31h26v11H11z"/> <path fill="#42a5f5" d="M11 29h26v2H11z"/> <path fill="#1976d2" d="M16 33h17v2H16zm0 4h13v2H16z"/> </g> </g>
</svg>