<?xml version="1.0" encoding="UTF-8" standalone="no"?>
<!-- Uploaded to: SVG Repo, www.svgrepo.com, Generator: SVG Repo Mixer Tools -->

<svg
   width="128"
   height="128"
   version="1.1"
   id="svg10"
   sodipodi:docname="zoompagefit.svg"
   inkscape:version="1.2.2 (b0a8486541, 2022-12-01)"
   xmlns:inkscape="http://www.inkscape.org/namespaces/inkscape"
   xmlns:sodipodi="http://sodipodi.sourceforge.net/DTD/sodipodi-0.dtd"
   xmlns="http://www.w3.org/2000/svg"
   xmlns:svg="http://www.w3.org/2000/svg"
   xmlns:rdf="http://www.w3.org/1999/02/22-rdf-syntax-ns#"
   xmlns:cc="http://creativecommons.org/ns#"
   xmlns:dc="http://purl.org/dc/elements/1.1/">
  <defs
     id="defs14" />
  <sodipodi:namedview
     id="namedview12"
     pagecolor="#ffffff"
     bordercolor="#000000"
     borderopacity="0.25"
     inkscape:showpageshadow="2"
     inkscape:pageopacity="0.0"
     inkscape:pagecheckerboard="0"
     inkscape:deskcolor="#d1d1d1"
     showgrid="false"
     inkscape:zoom="1.84375"
     inkscape:cx="-28.745763"
     inkscape:cy="64"
     inkscape:window-width="1366"
     inkscape:window-height="672"
     inkscape:window-x="0"
     inkscape:window-y="0"
     inkscape:window-maximized="1"
     inkscape:current-layer="svg10" />
  <title
     id="title2">Zoom Fit Page Icon</title>
  <desc
     id="desc4">This is shape (source) for Clarity vector icon theme for gtk</desc>
  <metadata
     id="metadata6">
    <rdf:RDF>
      <cc:Work
         rdf:about="">
        <dc:title>Zoom Fit Page Icon</dc:title>
        <dc:description>This is shape (source) for Clarity vector icon theme for gtk</dc:description>
        <dc:creator>
          <cc:Agent>
            <dc:title>Jakub Jankiewicz</dc:title>
          </cc:Agent>
        </dc:creator>
        <dc:rights>
          <cc:Agent>
            <dc:title>Jakub Jankiewicz</dc:title>
          </cc:Agent>
        </dc:rights>
        <dc:date>2010</dc:date>
        <dc:format>image/svg+xml</dc:format>
        <dc:type
           rdf:resource="http://purl.org/dc/dcmitype/StillImage" />
        <cc:license
           rdf:resource="http://creativecommons.org/licenses/by-sa/3.0/" />
      </cc:Work>
    </rdf:RDF>
  </metadata>
  <ellipse
     id="secondary"
     cx="59.534164"
     cy="56.154156"
     style="fill:#ffffff;stroke-width:14.8043"
     rx="51.77618"
     ry="51.853905" />
  <path
     d="M 60.753454,1.1267322 C 29.404621,0.2992752 3.1347517,24.12916 2.2703497,54.138166 1.4059487,84.147174 26.265076,109.29337 57.613908,110.12083 c 12.842863,0.33899 24.826114,-3.4614 34.569512,-10.124883 l 21.0083,25.421813 a 7.7771951,7.4448033 0 1 0 12.17869,-9.25311 L 103.52229,89.75656 C 111.08053,80.787943 115.74004,69.50241 116.09606,57.142615 116.96046,27.133607 92.10229,1.9541892 60.753454,1.1267322 Z M 60.325727,15.975974 c 22.94665,0.60568 40.856133,18.790349 40.223413,40.756277 C 99.9164,78.698178 80.989245,95.844049 58.042593,95.238369 35.095944,94.632689 17.184553,76.514458 17.817276,54.54853 18.449999,32.582602 37.379075,15.370294 60.325727,15.975974 Z m -27.430714,13.072652 -0.168413,5.846681 -0.461219,16.011934 12.215442,0.322428 0.292807,-10.165252 8.085789,0.213425 0.336825,-11.693361 -14.193511,-0.37464 z m 33.488355,0.88393 -0.336824,11.693363 8.32871,0.219837 -0.292807,10.165253 12.215442,0.322429 0.461219,-16.011934 0.168413,-5.846681 -6.107722,-0.161215 z m -34.480647,33.564981 -0.328212,11.394385 -0.168413,5.846682 6.107722,0.161214 14.19351,0.374639 0.336824,-11.693363 -8.085789,-0.213425 0.1598,-5.547703 z m 41.817066,1.103769 -0.1598,5.547703 -8.32871,-0.219838 -0.336824,11.693363 14.436431,0.381051 6.107721,0.161215 0.168411,-5.846681 0.328212,-11.394385 z"
     id="path8"
     style="fill:#3584e4;fill-opacity:1;stroke-width:1.08692" />
</svg>
